<?xml version="1.0" encoding="utf-8"?>
<!-- Generator: Adobe Illustrator 19.2.1, SVG Export Plug-In . SVG Version: 6.00 Build 0)  -->
<svg version="1.1" id="Layer_1" xmlns="http://www.w3.org/2000/svg" xmlns:xlink="http://www.w3.org/1999/xlink" x="0px" y="0px"
	 viewBox="0 0 64 64" style="enable-background:new 0 0 64 64;" xml:space="preserve">
<style type="text/css">
	.st0{fill:none;}
	.st1{fill:#000;}
	.st2{fill:#000;}
	.st3{enable-background:new    ;}
	.st4{fill:#000;}
</style>
<g>
	<rect class="st0" width="64" height="64"/>
	<rect class="st0" width="64" height="64"/>
	<g>
		<g>
			<g>
				<path class="st1" d="M52.2,27.3c1.8,0,3.3,1.5,3.3,3.3v17.3c0,1.8-1.5,3.3-3.3,3.3H36.9c-1.8,0-3.3-1.5-3.3-3.3V30.6
					c0-1.8,1.5-3.3,3.3-3.3L52.2,27.3 M52.2,23.3H36.9c-4,0-7.3,3.3-7.3,7.3v17.3c0,4,3.3,7.3,7.3,7.3h15.3c4,0,7.3-3.3,7.3-7.3
					V30.6C59.6,26.6,56.3,23.3,52.2,23.3L52.2,23.3z"/>
			</g>
			<g>
				<g>
					<circle class="st1" cx="38.6" cy="31.9" r="2"/>
					<circle class="st1" cx="44.6" cy="31.9" r="2"/>
					<circle class="st1" cx="50.6" cy="31.9" r="2"/>
				</g>
				<g>
					<circle class="st1" cx="38.6" cy="36.9" r="2"/>
					<circle class="st1" cx="44.6" cy="36.9" r="2"/>
					<circle class="st1" cx="50.6" cy="36.9" r="2"/>
				</g>
				<circle class="st1" cx="44.6" cy="46.9" r="2"/>
				<g>
					<circle class="st1" cx="38.6" cy="41.9" r="2"/>
					<circle class="st1" cx="44.6" cy="41.9" r="2"/>
					<circle class="st1" cx="50.6" cy="41.9" r="2"/>
				</g>
			</g>
		</g>
		<g>
			<path class="st2" d="M44.4,62h-36c-2.2,0-4-1.8-4-4V6c0-2.2,1.8-4,4-4h34c2.2,0,4,1.8,4,4v13.4c0,1.1-0.9,2-2,2s-2-0.9-2-2V6h-34
				v52h36c1.1,0,2,0.9,2,2S45.5,62,44.4,62z"/>
		</g>
		<g class="st3">
			<path class="st4" d="M23.9,20.9c0,0.3-0.1,0.5-0.2,0.7C23.5,21.9,23.3,22,23,22h-1.5c-0.3,0-0.5,0-0.7-0.1
				c-0.2,0-0.4-0.1-0.5-0.3c-0.2-0.1-0.3-0.3-0.4-0.5c-0.1-0.2-0.3-0.5-0.4-0.8l-4-8.7h0v10c0,0.1,0,0.1-0.1,0.2
				c0,0.1-0.1,0.1-0.2,0.1c-0.1,0-0.2,0.1-0.4,0.1c-0.2,0-0.4,0-0.6,0c-0.3,0-0.5,0-0.6,0c-0.2,0-0.3,0-0.4-0.1s-0.2-0.1-0.2-0.1
				c0-0.1-0.1-0.1-0.1-0.2V9.1c0-0.2,0-0.3,0.1-0.4c0-0.1,0.1-0.2,0.2-0.3s0.2-0.1,0.3-0.2c0.1,0,0.2-0.1,0.4-0.1h1.7
				c0.3,0,0.5,0,0.7,0.1s0.4,0.1,0.5,0.3c0.1,0.1,0.3,0.3,0.4,0.4c0.1,0.2,0.2,0.4,0.3,0.6l4,8.9h0V8.4c0-0.1,0-0.1,0.1-0.2
				c0-0.1,0.1-0.1,0.2-0.1C21.8,8.1,21.9,8,22,8c0.2,0,0.4,0,0.6,0c0.3,0,0.5,0,0.6,0c0.2,0,0.3,0,0.4,0.1s0.2,0.1,0.2,0.1
				c0,0.1,0.1,0.1,0.1,0.2V20.9z M33.4,14.3c0,0.6-0.1,1.1-0.3,1.7c-0.2,0.5-0.4,0.9-0.8,1.3c-0.3,0.4-0.8,0.7-1.2,0.9
				c-0.5,0.2-1,0.3-1.7,0.3c-0.7,0-1.2-0.1-1.7-0.3c-0.5-0.2-0.9-0.4-1.2-0.8c-0.3-0.3-0.5-0.8-0.7-1.3c-0.2-0.5-0.2-1.1-0.2-1.7
				c0-0.6,0.1-1.2,0.3-1.7s0.4-0.9,0.8-1.3s0.7-0.6,1.2-0.8c0.5-0.2,1.1-0.3,1.7-0.3c0.6,0,1.2,0.1,1.6,0.3c0.5,0.2,0.9,0.4,1.2,0.8
				c0.3,0.3,0.6,0.8,0.7,1.2C33.3,13.1,33.4,13.7,33.4,14.3z M33.1,21c0,0.3,0,0.6-0.1,0.8C33,21.9,32.9,22,32.7,22h-6.3
				c-0.2,0-0.3-0.1-0.3-0.2c-0.1-0.2-0.1-0.4-0.1-0.8c0-0.3,0-0.6,0.1-0.7c0.1-0.2,0.2-0.2,0.3-0.2h6.3c0.2,0,0.3,0.1,0.3,0.2
				S33.1,20.6,33.1,21z M31,14.4c0-0.3,0-0.6-0.1-0.9c-0.1-0.3-0.1-0.5-0.3-0.7c-0.1-0.2-0.3-0.4-0.5-0.5c-0.2-0.1-0.4-0.2-0.7-0.2
				c-0.3,0-0.5,0.1-0.7,0.2c-0.2,0.1-0.4,0.3-0.5,0.5c-0.1,0.2-0.2,0.4-0.3,0.7C28,13.8,28,14.1,28,14.4c0,0.7,0.1,1.3,0.4,1.6
				c0.2,0.4,0.6,0.6,1.1,0.6c0.2,0,0.5-0.1,0.7-0.2c0.2-0.1,0.4-0.3,0.5-0.5c0.1-0.2,0.2-0.4,0.3-0.7C31,15,31,14.7,31,14.4z"/>
		</g>
	</g>
</g>
</svg>
