<?xml version="1.0" encoding="utf-8"?>
<!-- Generator: Adobe Illustrator 25.0.0, SVG Export Plug-In . SVG Version: 6.00 Build 0)  -->
<svg version="1.1"
     id="svg2" xmlns:cc="http://creativecommons.org/ns#" xmlns:dc="http://purl.org/dc/elements/1.1/"
     xmlns:rdf="http://www.w3.org/1999/02/22-rdf-syntax-ns#" xmlns:svg="http://www.w3.org/2000/svg"
     xmlns="http://www.w3.org/2000/svg" xmlns:xlink="http://www.w3.org/1999/xlink" x="0px" y="0px"
     viewBox="0 0 153.3 248.8"
     preserveAspectRatio="xMidYMid meet"
     style="enable-background:new 0 0 153.3 248.8;" xml:space="preserve">
<style type="text/css">
	.st0{fill-rule:evenodd;clip-rule:evenodd;fill:#FFF;}
	.st1{fill:none;}
	.st2{fill-rule:evenodd;clip-rule:evenodd;fill:#FFF;stroke:#000000;stroke-width:4.7244;stroke-miterlimit:9.4488;}
	.st3{fill:#FFFFFF;}
	.st4{fill-rule:evenodd;clip-rule:evenodd;}
	.st5{fill-rule:evenodd;clip-rule:evenodd;fill:#E32E26;}
	.st6{fill-rule:evenodd;clip-rule:evenodd;stroke:#FFFFFF;stroke-width:0.3928;stroke-miterlimit:9.4488;}
	.st7{fill:none;stroke:#FFFFFF;stroke-width:0.18;stroke-miterlimit:9.4488;}
	.st8{fill-rule:evenodd;clip-rule:evenodd;fill:#CAB08F;}
	.st9{fill-rule:evenodd;clip-rule:evenodd;fill:#ECB938;}
	.st10{fill-rule:evenodd;clip-rule:evenodd;fill:#E72C2E;}
	.st11{fill-rule:evenodd;clip-rule:evenodd;fill:#4E503A;}
	.st12{fill-rule:evenodd;clip-rule:evenodd;fill:#CAB296;}
	.st13{fill-rule:evenodd;clip-rule:evenodd;fill:#19172A;}
	.st14{fill-rule:evenodd;clip-rule:evenodd;fill:#C99A54;}
</style>
    <g id="Layer_x0020_1">
	<g id="_406295744">
		<g id="g16">
			<g id="g18">
				<path id="_408610960" class="st0" d="M116.3,65.3c-6.7-2.3-19.6-7.3-40.1-7.3c-20.5,0-31.6,4.7-38.4,6.8l-1.2-2.3l2.8-4.4
					l-7.1-18.1l-4.9-4.3L23.7,35l-7.2-18.8l-2.4-1.7l-0.6-2.1l30.8-8.7l10.3,9.6l0,1.8l-1.5,1.3L57.9,34l10.3-1.2l-4-6.2l-2.1-0.3
					L58.2,6.4l-2-1.7l-0.6-2.3C69.1,0,82.7-0.2,97,1.8l-0.5,2.3l-2.1,1.8l-3.7,19.7l-2.2,0.5l-4.5,6.6l10.2,1.2l4.9-18l-2-1l-0.2-2
					l10.9-9.2l31.7,8.9l-1.3,2.2l-2.8,1.4l-6.1,18.9l-3.8,0.4l-4.8,3.3l-6.8,18.6l3.2,4.8L116.3,65.3L116.3,65.3z"/>
                <path id="_408610864" d="M116.2,65.7c-0.4-0.1-0.7-0.3-1.1-0.4c-6.9-2.4-19.5-6.9-38.8-6.9c-18,0-28.7,3.6-35.7,5.9
					c-1,0.3-1.9,0.6-2.6,0.9l-0.3,0.1l-0.2-0.3l-1.2-2.3l-0.1-0.2l0.1-0.2l2.6-4.2l-7-17.8l-4.8-4.2l-3.6-0.8l-0.2,0l-0.1-0.2
					l-7.2-18.7l-2.3-1.6l-0.1-0.1l0-0.1l-0.6-2.1l-0.1-0.4l0.4-0.1l30.8-8.7l0.2-0.1l0.2,0.2L55,12.9l0.1,0.1l0,0.2l0,1.8l0,0.2
					L55,15.3l-1.3,1.1l4.5,17.1l9.3-1L63.9,27L62,26.7l-0.3,0l-0.1-0.3L57.8,6.7L55.9,5l-0.1-0.1l0-0.1l-0.6-2.3L55,2.1L55.5,2
					C62.2,0.8,69.1,0.1,76,0c6.9-0.1,13.9,0.4,21.1,1.4l0.4,0.1l-0.1,0.4L97,4.2l0,0.1l-0.1,0.1l-2,1.7l-3.6,19.6l0,0.3L90.9,26
					l-2.1,0.5l-4,5.9l9.1,1l4.7-17.3L97,15.2l-0.2-0.1l0-0.2l-0.2-2l0-0.2l0.2-0.1l10.9-9.2l0.2-0.1l0.2,0.1l31.7,8.9l0.5,0.1
					l-0.3,0.5l-1.3,2.2l-0.1,0.1l-0.1,0.1l-2.7,1.3l-6.1,18.7l-0.1,0.3l-0.3,0l-3.7,0.4L121,39l-6.7,18.2l3.1,4.6l0.1,0.1l0,0.2
					l-0.7,3.2l-0.1,0.5L116.2,65.7L116.2,65.7z M115.3,64.6l0.7,0.2l0.6-2.6l-3.1-4.6l-0.1-0.2l0.1-0.2l6.8-18.6l0-0.1l0.1-0.1
					l4.8-3.3l0.1-0.1l0.1,0l3.5-0.3l6-18.6l0.1-0.2l0.2-0.1l2.7-1.4l1-1.6l-31-8.7L97.4,13l0.2,1.5l1.8,0.9l0.3,0.2L99.6,16l-4.9,18
					l-0.1,0.3l-0.4,0l-10.2-1.2L83.4,33l0.4-0.6l4.5-6.6l0.1-0.1l0.2,0l2-0.5l3.6-19.5l0-0.1l0.1-0.1l2-1.7l0.4-1.7
					c-7-1-13.8-1.4-20.5-1.3c-6.7,0.1-13.3,0.7-20,1.9l0.5,1.7l1.9,1.7l0.1,0.1l0,0.1l3.9,19.6l1.8,0.3l0.2,0l0.1,0.2l4,6.2l0.4,0.6
					l-0.7,0.1l-10.3,1.2l-0.4,0l-0.1-0.3l-4.6-17.7l-0.1-0.2L53,16l1.3-1.2l0-1.4l-10-9.3l-30.1,8.5l0.4,1.6l2.2,1.6l0.1,0.1l0,0.1
					l7.1,18.6l3.5,0.7l0.1,0l0.1,0.1l4.9,4.3l0.1,0.1l0,0.1l7.1,18.1l0.1,0.2l-0.1,0.2l-2.6,4.2l0.9,1.8c0.7-0.2,1.5-0.5,2.3-0.8
					c7-2.3,17.9-6,36-6C95.7,57.7,108.4,62.1,115.3,64.6L115.3,64.6z"/>
                <path id="_408610792" d="M36.5,62.2c1.7-0.8,8.9-3.6,19.1-5.6c6-1.1,13.1-2,20.6-2c20.5,0,41.1,7.3,41.2,7.3l-0.3,0.8
					c-0.1,0-20.5-7.2-40.9-7.2c-7.5,0-14.5,0.8-20.5,2c-10.2,1.9-17.3,4.7-18.9,5.5L36.5,62.2z"/>
                <path id="_408610720" d="M39.3,57.6c1.6-0.8,8.2-3,17.4-4.5c5.7-1,12.4-1.7,19.6-1.8h0c18.6-0.1,37.9,5.5,38,5.5l-0.2,0.8
					c-0.1,0-19.2-5.6-37.7-5.5c-7.1,0.1-13.8,0.8-19.4,1.8c-9.1,1.5-15.6,3.7-17.2,4.5L39.3,57.6z"/>
                <path id="_408610648" d="M37.2,51.9c1.6-0.8,8.4-3.1,18.2-4.7c6-1,13.1-1.7,20.9-1.7c20.5,0,39.7,5.2,39.7,5.2l-0.2,0.8
					c-0.1,0-19.1-5.2-39.5-5.2c-7.7,0-14.8,0.7-20.7,1.7c-9.7,1.6-16.4,3.8-18,4.6L37.2,51.9L37.2,51.9z"/>
                <path id="_408610576" d="M34.9,45.8c1.6-0.8,9.3-3.4,19.8-5.2c6.3-1.1,13.6-1.9,21.3-1.9c20.5,0,42.4,5.8,42.5,5.8l-0.2,0.8
					c-0.1,0-21.8-5.8-42.3-5.8c-7.7,0-14.9,0.8-21.2,1.9c-10.4,1.8-17.9,4.4-19.5,5.2L34.9,45.8L34.9,45.8z"/>
                <path id="_408610504" d="M32.4,39.7c1.1-0.6,5.3-2,11.3-3.4c4-1,8.9-2,14.1-2.7l0.1,0.8c-5.2,0.8-10,1.8-14,2.7
					c-5.9,1.4-10.1,2.8-11.1,3.3L32.4,39.7z M68.1,32.4c1.3-0.1,2.6-0.2,3.9-0.2c1.3,0,2.6-0.1,3.9-0.1c0.8,0,1.3,0,1.7,0
					c2.2,0,4.3,0,6.5,0.1l-0.1,0.8c-2.2-0.1-4.3-0.1-6.4-0.1c-0.7,0-1.4,0-1.7,0c-1.4,0-2.7,0-3.9,0.1c-1.3,0-2.6,0.1-3.9,0.2
					L68.1,32.4L68.1,32.4z M94.3,33.4c14.2,1.8,26.4,4.9,26.5,4.9l-0.2,0.8c0,0-12.2-3.1-26.4-4.9L94.3,33.4L94.3,33.4z"/>
                <polygon id="_408610432" points="53.3,41.2 52.5,41.3 51.1,35.4 51.9,35.2 				"/>
                <polygon id="_408610360" points="76.2,39 75.4,39 75.3,32.5 76.1,32.5 				"/>
                <polygon id="_408610288" points="76.2,52.2 75.4,52.2 75.3,45.7 76.1,45.7 				"/>
                <polygon id="_408610216" points="76.3,24.8 75.5,24.8 75.3,18.3 76.2,18.3 				"/>
                <polygon id="_408610144" points="76.2,11.3 75.4,11.3 75.3,4.9 76.1,4.9 				"/>
                <polygon id="_408610072" points="43.8,49.9 43,50.1 41.3,44.2 42.1,44 				"/>
                <polygon id="_408610000" points="65.2,46.2 64.3,46.3 63.5,40 64.3,39.9 				"/>
                <polygon id="_408609928" points="56.6,53.4 55.8,53.6 54.4,47.9 55.2,47.7 				"/>
                <polygon id="_408609856" points="36.6,31.8 35.8,32 33.8,25.2 34.6,24.9 				"/>
                <polygon id="_408609784" points="26.1,27 25.3,27.3 23.2,21.5 24,21.2 				"/>
                <polygon id="_408609712" points="42.8,22.2 42,22.5 40.3,16.2 41.1,16 				"/>
                <polygon id="_408609496" points="32.3,18.3 31.5,18.5 29.8,12.6 30.6,12.4 				"/>
                <polygon id="_408609568"
                         points="47.6,27.7 47.7,27.7 47.9,27.8 57.7,33.2 57.3,33.9 47.6,28.6 24.5,35.3 24.3,34.5 				"/>
                <polyline id="_408609400" class="st1" points="56,27.6 46.2,21.6 21.8,28.7 				"/>
                <polygon id="_408609304"
                         points="46.1,22 22,29.1 21.7,28.3 46.1,21.2 46.3,21.1 46.4,21.2 56.3,27.2 55.8,27.9 				"/>
                <polygon id="_408609232"
                         points="44.5,14.7 44.7,14.7 44.9,14.8 54.8,21.5 54.4,22.2 44.6,15.6 19.1,22.8 18.9,22 				"/>
                <polygon id="_408609160"
                         points="43.1,9.1 16.8,16.7 16.6,15.9 43.1,8.2 43.3,8.2 43.5,8.3 53.5,16.1 53,16.7 				"/>
                <polygon id="_408609088"
                         points="44.1,5.7 44.4,5.7 44.5,5.8 54.6,14.6 54.1,15.2 44.1,6.6 14.7,14.9 14.4,14.1 				"/>
                <polygon id="_408609016" points="44.8,6.3 44.8,6.4 44.8,6.5 43.5,8.8 48.2,28.4 48.2,28.5 48.1,28.6 45.1,36.5 44.3,36.2
					47.3,28.4 42.7,8.9 42.6,8.7 42.7,8.6 44,6.2 43.9,4 44.7,3.9 				"/>
                <polygon id="_408608944" points="100.2,41 99.3,40.8 100.7,34.9 101.5,35.1 				"/>
                <polygon id="_408277880" points="109.6,49.5 108.8,49.3 110.5,43.4 111.3,43.6 				"/>
                <polygon id="_408277808" points="88.3,46.2 87.4,46.1 88.3,39.8 89.1,39.9 				"/>
                <polygon id="_408277736" points="96.8,53.2 96,53 97.4,47.4 98.2,47.6 				"/>
                <polygon id="_408277664" points="51.9,24.5 51.1,24.6 49.9,19.1 50.8,18.9 				"/>
                <polygon id="_408277592" points="116.4,31.5 115.6,31.3 117.5,24.9 118.2,25.2 				"/>
                <polygon id="_408277520" points="126.8,27.3 126,27 127.7,21.3 128.5,21.5 				"/>
                <polygon id="_408277448" points="110.1,22.7 109.3,22.5 110.9,16 111.7,16.2 				"/>
                <polygon id="_408277376" points="120.6,18.5 119.8,18.3 121.5,12.4 122.3,12.6 				"/>
                <polygon id="_408277304" points="104.4,28.6 94.8,33.9 94.4,33.2 104.2,27.8 104.3,27.7 104.5,27.7 129.1,34.3 128.9,35.1
					"/>
                <polygon id="_408277232" points="105.9,21.4 106.1,21.3 106.2,21.3 131.1,28.5 130.9,29.3 106.2,22.2 96.3,27.9 95.8,27.2
					"/>
                <polygon id="_408277160"
                         points="107.7,15.6 97.7,22.2 97.2,21.5 107.4,14.8 107.6,14.7 107.8,14.7 133.2,22 133,22.8 				"/>
                <polygon id="_408277088"
                         points="108.6,8.3 108.8,8.2 109,8.2 135.5,15.9 135.3,16.7 109,9.1 99.1,16.7 98.6,16.1 				"/>
                <polygon id="_408277016"
                         points="107.9,6.6 97.8,15.2 97.2,14.6 107.6,5.8 107.7,5.7 107.9,5.7 138,14.3 137.8,15.1 				"/>
                <polygon id="_408276944" points="108.1,6.2 109.4,8.6 109.4,8.7 109.4,8.9 104.8,28.4 107.6,35.6 106.8,35.9 103.9,28.6
					103.9,28.5 103.9,28.4 108.6,8.8 107.3,6.5 107.3,6.4 107.3,6.3 107.3,3.9 108.2,4 				"/>
                <polygon id="_408276872" points="100.7,25.4 99.9,25.2 101.3,18.9 102.1,19.1 				"/>
                <path id="_408276800" d="M62.3,25.7c4.1-0.9,8.8-1.5,13.9-1.6c4.6-0.1,9.4,0.2,14.3,1L90.4,26c-4.8-0.8-9.6-1.1-14.2-1
					c-5,0.1-9.7,0.7-13.7,1.6L62.3,25.7z"/>
                <path id="_408276728" d="M60.9,19.4c4.5-0.9,9.4-1.3,14.8-1.4c5.1,0,10.6,0.3,16.3,1.1L91.8,20c-5.6-0.8-11.1-1.2-16.2-1.1
					c-5.3,0-10.2,0.5-14.6,1.4L60.9,19.4L60.9,19.4z"/>
                <path id="_408276656" d="M59.5,12.5c4.9-0.9,10.3-1.3,16.1-1.4c5.6,0,11.6,0.3,17.7,1.1l-0.1,0.8c-6.1-0.8-12.1-1.2-17.6-1.1
					c-5.7,0-11.1,0.5-15.9,1.4L59.5,12.5L59.5,12.5z"/>
                <path id="_408276584" d="M58.1,5.8C63.4,4.9,69.5,4.4,76,4.3c5.9-0.1,12.2,0.2,18.6,1l-0.1,0.8C88.1,5.3,81.9,5,76,5.1
					c-6.4,0.1-12.4,0.7-17.8,1.5L58.1,5.8z"/>
                <path id="_408276512" d="M56.4,4.2c6.2-1.1,12.5-1.7,19.1-1.8C82,2.4,89,2.8,96.3,3.6l-0.1,0.8C88.9,3.6,82,3.2,75.4,3.3
					c-6.6,0.1-12.8,0.6-18.9,1.8C56.5,5.1,56.4,4.2,56.4,4.2z"/>
                <polygon id="_408276416" points="87.9,18.8 87,18.7 87.8,12.3 88.6,12.4 				"/>
                <polygon id="_408276368" points="65.5,19 64.7,19.1 64,12.7 64.8,12.6 				"/>
			</g>
            <g id="g69">
				<path id="_408276200" class="st2" d="M2.4,65.9h148.5v106.3c0,40.8-33.4,74.3-74.3,74.3l0,0c-40.8,0-74.3-33.4-74.3-74.3
					C2.4,172.1,2.4,65.9,2.4,65.9z"/>
                <path id="_408276104" class="st3" d="M2.4,65.5h148.5h0.4v0.4v106.3c0,20.5-8.4,39.2-21.9,52.7c-13.5,13.5-32.2,21.9-52.7,21.9
					c-20.5,0-39.2-8.4-52.7-21.9C10.4,211.3,2,192.7,2,172.1V65.9v-0.4L2.4,65.5L2.4,65.5z M150.5,66.2H2.7v105.9
					c0,20.3,8.3,38.8,21.7,52.2C37.8,237.7,56.3,246,76.6,246c20.3,0,38.8-8.3,52.2-21.7c13.4-13.4,21.7-31.9,21.7-52.2L150.5,66.2
					L150.5,66.2z"/>
                <g id="g73">
					<g id="g75">
						<polygon id="_408275936" class="st4" points="49.9,119.5 23.1,119.5 23.1,84.8 19.3,81.7 19.3,75.6 26.9,75.6 26.9,79.2 
							32.7,79.2 32.7,75.6 40.3,75.6 40.3,79.2 46.1,79.2 46.1,75.6 53.7,75.6 53.7,81.7 49.9,84.8 						"/>
                        <path id="_408275840" class="st3" d="M50.2,85v34.5v0.4h-0.4H23.1h-0.4v-0.4V85l-3.7-3l-0.1-0.1v-0.2v-6.1v-0.4h0.4h7.6h0.4
							v0.4v3.3h5v-3.3v-0.4h0.4h7.6h0.4v0.4v3.3h5v-3.3v-0.4h0.4h7.6h0.4v0.4v6.1v0.2L53.9,82L50.2,85L50.2,85z M49.5,119.1V84.8
							v-0.2l0.1-0.1l3.7-3V76h-6.9v3.3v0.4h-0.4h-5.8h-0.4v-0.4V76H33v3.3v0.4h-0.4h-5.8h-0.4v-0.4V76h-6.9v5.6l3.7,3l0.1,0.1v0.2
							v34.3L49.5,119.1L49.5,119.1z"/>
                        <g id="g79">
							<path id="_408275672" class="st0" d="M36.5,90.1L36.5,90.1c0.6,0,1.1,0.5,1.1,1.1v6.4h-2.2v-6.4
								C35.4,90.6,35.9,90.1,36.5,90.1z"/>
                            <path id="_408275504" class="st0" d="M41.7,90.1L41.7,90.1c0.6,0,1.1,0.5,1.1,1.1v6.4h-2.2v-6.4
								C40.6,90.6,41.1,90.1,41.7,90.1z"/>
                            <path id="_408275336" class="st0" d="M31.3,90.1L31.3,90.1c0.6,0,1.1,0.5,1.1,1.1v6.4h-2.2v-6.4
								C30.2,90.6,30.7,90.1,31.3,90.1z"/>
                            <path id="_408275168" class="st0" d="M39.1,101.6L39.1,101.6c0.6,0,1.1,0.5,1.1,1.1v6.4H38v-6.4
								C38,102.1,38.5,101.6,39.1,101.6z"/>
                            <path id="_408275000" class="st0" d="M33.9,101.6L33.9,101.6c0.6,0,1.1,0.5,1.1,1.1v6.4h-2.2v-6.4
								C32.8,102.1,33.3,101.6,33.9,101.6z"/>
						</g>
                        <path id="_408274880" class="st3" d="M23.1,84.5h26.8v0.7H23.1V84.5z M53.7,82.1l-34.5,0v-0.7l34.5,0
							C53.7,81.3,53.7,82.1,53.7,82.1z"/>
                        <polygon id="_408274712" class="st4" points="90,119.5 63.3,119.5 63.3,84.8 59.5,81.7 59.5,75.6 67.1,75.6 67.1,79.2
							72.8,79.2 72.8,75.6 80.5,75.6 80.5,79.2 86.2,79.2 86.2,75.6 93.8,75.6 93.8,81.7 90,84.8 						"/>
                        <path id="_408274616" class="st3" d="M90.4,85v34.5v0.4H90H63.3h-0.4v-0.4V85l-3.7-3l-0.1-0.1v-0.2v-6.1v-0.4h0.4h7.6h0.4v0.4
							v3.3h5v-3.3v-0.4h0.4h7.6h0.4v0.4v3.3h5v-3.3v-0.4h0.4h7.6h0.4v0.4v6.1v0.2L94.1,82L90.4,85L90.4,85z M89.7,119.1V84.8v-0.2
							l0.1-0.1l3.7-3V76h-6.9v3.3v0.4h-0.4h-5.8h-0.4v-0.4V76h-6.9v3.3v0.4h-0.4h-5.8h-0.4v-0.4V76h-6.9v5.6l3.7,3l0.1,0.1v0.2v34.3
							L89.7,119.1L89.7,119.1z"/>
                        <polygon id="_408274448" class="st4" points="130.2,119.5 103.4,119.5 103.4,84.8 99.6,81.7 99.6,75.6 107.2,75.6 107.2,79.2
							113,79.2 113,75.6 120.6,75.6 120.6,79.2 126.4,79.2 126.4,75.6 134,75.6 134,81.7 130.2,84.8 						"/>
                        <path id="_408274352" class="st3" d="M130.6,85v34.5v0.4h-0.4h-26.8h-0.4v-0.4V85l-3.7-3l-0.1-0.1v-0.2v-6.1v-0.4h0.4h7.6h0.4
							v0.4v3.3h5v-3.3v-0.4h0.4h7.6h0.4v0.4v3.3h5v-3.3v-0.4h0.4h7.6h0.4v0.4v6.1v0.2l-0.1,0.1L130.6,85L130.6,85z M129.8,119.1
							V84.8v-0.2l0.1-0.1l3.7-3V76h-6.9v3.3v0.4h-0.4h-5.8h-0.4v-0.4V76h-6.9v3.3v0.4H113h-5.8h-0.4v-0.4V76H100v5.6l3.7,3l0.1,0.1
							v0.2v34.3L129.8,119.1L129.8,119.1z"/>
                        <path id="_408274136" class="st3" d="M63.2,84.5H90v0.7H63.2V84.5z M93.9,82.1l-34.5,0v-0.7l34.5,0
							C93.9,81.3,93.9,82.1,93.9,82.1z"/>
                        <path id="_408274208" class="st3" d="M103.4,84.5h26.8v0.7h-26.8V84.5z M134.1,82.1l-34.5,0v-0.7l34.5,0
							C134.1,81.3,134.1,82.1,134.1,82.1z"/>
                        <g id="g93">
							<path id="_408274040" class="st0" d="M76.7,90.1L76.7,90.1c0.6,0,1.1,0.5,1.1,1.1v6.4h-2.2v-6.4C75.5,90.6,76,90.1,76.7,90.1
								z"/>
                            <path id="_408273872" class="st0" d="M81.9,90.1L81.9,90.1c0.6,0,1.1,0.5,1.1,1.1v6.4h-2.2v-6.4
								C80.8,90.6,81.3,90.1,81.9,90.1z"/>
                            <path id="_408273704" class="st0" d="M71.4,90.1L71.4,90.1c0.6,0,1.1,0.5,1.1,1.1v6.4h-2.2v-6.4
								C70.3,90.6,70.8,90.1,71.4,90.1z"/>
                            <path id="_408273536" class="st0" d="M79.3,101.6L79.3,101.6c0.6,0,1.1,0.5,1.1,1.1v6.4h-2.2v-6.4
								C78.1,102.1,78.6,101.6,79.3,101.6z"/>
                            <path id="_408273296" class="st0" d="M74,101.6L74,101.6c0.6,0,1.1,0.5,1.1,1.1v6.4h-2.2v-6.4
								C72.9,102.1,73.4,101.6,74,101.6z"/>
						</g>
                        <g id="g100">
							<path id="_408273152" class="st0" d="M116.8,90.1L116.8,90.1c0.6,0,1.1,0.5,1.1,1.1v6.4h-2.2v-6.4
								C115.7,90.6,116.2,90.1,116.8,90.1z"/>
                            <path id="_408272984" class="st0" d="M122,90.1L122,90.1c0.6,0,1.1,0.5,1.1,1.1v6.4h-2.2v-6.4
								C120.9,90.6,121.4,90.1,122,90.1z"/>
                            <path id="_408272816" class="st0" d="M111.6,90.1L111.6,90.1c0.6,0,1.1,0.5,1.1,1.1v6.4h-2.2v-6.4
								C110.5,90.6,111,90.1,111.6,90.1z"/>
                            <path id="_408272648" class="st0" d="M119.4,101.6L119.4,101.6c0.6,0,1.1,0.5,1.1,1.1v6.4h-2.2v-6.4
								C118.3,102.1,118.8,101.6,119.4,101.6z"/>
                            <path id="_408272408" class="st0" d="M114.2,101.6L114.2,101.6c0.6,0,1.1,0.5,1.1,1.1v6.4h-2.2v-6.4
								C113.1,102.1,113.6,101.6,114.2,101.6z"/>
						</g>
                        <path id="_408272264" class="st4" d="M51.2,211.5H18.8v-2.3l4.3-4v-80.9l-3.8-3.1v-7.1h7.6v3.6h5.8v-3.6h7.6v3.6h5.8v-3.6h7.6
							v3.6l5.8,0v-3.6h7.6v3.6h5.8v-3.6h7.6v3.6h5.8v-3.6h7.6v3.6l5.8,0v-3.6h7.6v3.6h5.8v-3.6h7.6v3.6h5.8v-3.6h7.6v7.1l-3.8,3.1
							l0,80.9l4.3,4v2.3h-32.6v-45.1c0-13.9-11.4-25.4-25.4-25.4h0c-13.9,0-25.4,11.4-25.4,25.4L51.2,211.5L51.2,211.5z"/>
                        <path id="_408272168" class="st3" d="M51.2,211.9H18.8h-0.4v-0.4v-2.3v-0.2l0.1-0.1l4.2-3.9v-80.6l-3.7-3l-0.1-0.1v-0.2v-7.1
							v-0.4h0.4h7.6h0.4v0.4v3.3h5v-3.3v-0.4h0.4h7.6h0.4v0.4v3.3h5v-3.3v-0.4h0.4h7.6h0.4v0.4v3.3l5,0v-3.3v-0.4h0.4h7.6h0.4v0.4
							v3.3h5v-3.3v-0.4h0.4h7.6h0.4v0.4v3.3h5v-3.3v-0.4h0.4h7.6h0.4v0.4v3.3l5,0v-3.3v-0.4h0.4h7.6h0.4v0.4v3.3h5v-3.3v-0.4h0.4
							h7.6h0.4v0.4v3.3h5v-3.3v-0.4h0.4h7.6h0.4v0.4v7.1v0.2l-0.1,0.1l-3.7,3l0,80.6l4.2,3.9l0.1,0.1v0.2v2.3v0.4h-0.4h-32.6h-0.4
							v-0.4v-45.1c0-6.9-2.8-13.1-7.3-17.7c-4.5-4.5-10.8-7.3-17.7-7.3h0c-6.9,0-13.1,2.8-17.7,7.3c-4.5,4.5-7.3,10.8-7.3,17.7v45.1
							v0.4H51.2L51.2,211.9z M19.1,211.2h31.7v-44.7c0-7.1,2.9-13.5,7.6-18.2c4.7-4.7,11.1-7.6,18.2-7.6h0c7.1,0,13.5,2.9,18.2,7.6
							c4.7,4.7,7.6,11.1,7.6,18.2v44.7h31.9v-1.8l-4.2-3.9l-0.1-0.1l0-0.2l0-80.9v-0.2l0.1-0.1l3.7-3v-6.6h-6.9v3.3v0.4h-0.4h-5.8
							h-0.4v-0.4v-3.3h-6.9v3.3v0.4H113h-5.8h-0.4v-0.4v-3.3H100v3.3v0.4h-0.4l-5.8,0l-0.4,0v-0.4v-3.3h-6.9v3.3v0.4h-0.4h-5.8h-0.4
							v-0.4v-3.3h-6.9v3.3v0.4h-0.4h-5.8h-0.4v-0.4v-3.3h-6.9v3.3v0.4h-0.4l-5.8,0l-0.4,0v-0.4v-3.3h-6.9v3.3v0.4h-0.4h-5.8h-0.4
							v-0.4v-3.3H33v3.3v0.4h-0.4h-5.8h-0.4v-0.4v-3.3h-6.9v6.6l3.7,3l0.1,0.1v0.2v80.9v0.2l-0.1,0.1l-4.2,3.9L19.1,211.2
							L19.1,211.2z"/>
                        <path id="_408272096" class="st3" d="M96.7,127.1c0.9,0,1.8,0.4,2.4,1l0,0l0,0c0.6,0.6,1,1.5,1,2.4c0,0.6-0.2,1.2-0.5,1.7
							c-0.3,0.5-0.7,0.9-1.1,1.1v3.2v0.4h-0.4h-2.9h-0.4v-0.4v-3.2c-0.5-0.3-0.8-0.7-1.1-1.1c-0.3-0.5-0.5-1.1-0.5-1.7
							c0-0.9,0.4-1.8,1-2.4l0,0C94.9,127.5,95.8,127.1,96.7,127.1L96.7,127.1z M98.6,128.6c-0.5-0.5-1.2-0.8-1.9-0.8
							c-0.7,0-1.4,0.3-1.9,0.8v0c-0.5,0.5-0.8,1.2-0.8,1.9c0,0.5,0.1,1,0.4,1.4c0.2,0.4,0.6,0.8,1,1l0.2,0.1v0.2v3h2.2v-3V133
							l0.2-0.1c0.4-0.2,0.8-0.6,1-1c0.2-0.4,0.4-0.9,0.4-1.4C99.4,129.8,99.1,129.1,98.6,128.6L98.6,128.6L98.6,128.6z M56.6,127.1
							c0.9,0,1.8,0.4,2.4,1l0,0l0,0c0.6,0.6,1,1.5,1,2.4c0,0.6-0.2,1.2-0.5,1.7c-0.3,0.5-0.7,0.9-1.1,1.1v3.2v0.4H58h-2.9h-0.4v-0.4
							v-3.2c-0.5-0.3-0.8-0.7-1.1-1.1c-0.3-0.5-0.5-1.1-0.5-1.7c0-0.9,0.4-1.8,1-2.4l0,0C54.8,127.5,55.6,127.1,56.6,127.1
							L56.6,127.1z M58.5,128.6c-0.5-0.5-1.2-0.8-1.9-0.8c-0.7,0-1.4,0.3-1.9,0.8v0c-0.5,0.5-0.8,1.2-0.8,1.9c0,0.5,0.1,1,0.4,1.4
							c0.2,0.4,0.6,0.8,1,1l0.2,0.1v0.2v3h2.2v-3V133l0.2-0.1c0.4-0.2,0.8-0.6,1-1c0.2-0.4,0.4-0.9,0.4-1.4
							C59.2,129.8,58.9,129.1,58.5,128.6L58.5,128.6L58.5,128.6z"/>
                        <path id="_408272000" class="st3" d="M104.2,124.3v32.5v2.1l-0.7-2c-2-5.6-5.7-10.4-10.5-13.8c-4.7-3.3-10.3-5.2-16.4-5.2
							c-6,0-11.6,1.9-16.3,5.1c-4.8,3.3-8.5,8-10.5,13.6l-0.7,1.9v-2v-32.1h0.7v30.3c2.2-4.9,5.7-9.1,10.1-12.2
							c4.7-3.3,10.5-5.2,16.7-5.2c6.3,0,12.1,2,16.9,5.4c4.4,3.1,7.9,7.4,10.1,12.4v-30.6L104.2,124.3L104.2,124.3z"/>
                        <path id="_408271856" class="st3" d="M108.2,144.9l0,6l22,0v0.7l-26.3,0v-0.7l3.6,0l0-6l-3.6,0v-0.7l7.7,0l0-6.2l-7.7,0v-0.7
							l3.6,0l0-6.1l-3.6,0v-0.7l7.7,0l0-6.1h0.7l0,6.1l8.9,0l0-6.1h0.7l0,6.1l8.2,0v0.7l-3,0l0,6.1l3,0v0.7l-8.2,0l0,6.2l8.2,0v0.7
							L108.2,144.9L108.2,144.9z M112.3,138l0,6.2l8.9,0l0-6.2L112.3,138L112.3,138z M108.2,137.3l8.5,0l0-6.1l-8.5,0L108.2,137.3
							L108.2,137.3z M117.4,137.3l9,0l0-6.1l-9,0L117.4,137.3L117.4,137.3z M130.2,158.5l-26.3,0v-0.7l26.3,0L130.2,158.5
							L130.2,158.5z M130.2,165.4l-26.3,0v-0.7l26.3,0L130.2,165.4L130.2,165.4z M130.2,172.1l-26.3,0v-0.7l26.3,0L130.2,172.1
							L130.2,172.1z M130.2,178.8l-26.3,0v-0.7l26.3,0L130.2,178.8L130.2,178.8z M130.2,185.4l-26.3,0v-0.7l26.3,0L130.2,185.4
							L130.2,185.4z M130.2,192.1l-26.3,0v-0.7l26.3,0L130.2,192.1L130.2,192.1z M130.2,199.3l-26.3,0v-0.7l26.3,0L130.2,199.3
							L130.2,199.3z"/>
                        <path id="_408271736" class="st3" d="M45.2,144.9l0,6l-22,0v0.7l26.3,0v-0.7l-3.6,0l0-6l3.6,0v-0.7l-7.7,0l0-6.2l7.7,0v-0.7
							l-3.6,0l0-6.1l3.6,0v-0.7l-7.7,0l0-6.1H41l0,6.1l-8.9,0l0-6.1h-0.7l0,6.1l-8.2,0v0.7l3,0l0,6.1l-3,0v0.7l8.2,0l0,6.2l-8.2,0
							v0.7L45.2,144.9z M41,138l0,6.2l-8.9,0l0-6.2L41,138z M45.2,137.3l-8.5,0l0-6.1l8.5,0L45.2,137.3z M36,137.3l-9,0l0-6.1l9,0
							L36,137.3L36,137.3z M23.2,158.5l26.3,0v-0.7l-26.3,0V158.5z M23.2,165.4l26.3,0v-0.7l-26.3,0V165.4z M23.2,172.1l26.3,0v-0.7
							l-26.3,0V172.1z M23.2,178.8l26.3,0v-0.7l-26.3,0V178.8z M23.2,185.4l26.3,0v-0.7l-26.3,0V185.4z M23.2,192.1l26.3,0v-0.7
							l-26.3,0V192.1z M23.2,199.3l26.3,0v-0.7l-26.3,0V199.3z"/>
                        <path id="_408271520" class="st3"
                              d="M23.2,124h107v0.7h-107L23.2,124L23.2,124z M134,121.6l-114.7,0v-0.7l114.7,0V121.6z"/>
                        <path id="_408271592" class="st3" d="M23.1,205h23.7v0.7H23.1V205z M104.9,205h25.2v0.7h-25.2V205z M133.6,208.8l-29.1,0v-0.7
							l29.1,0V208.8z M45.8,208.8l-26.1,0v-0.7l26.1,0V208.8z"/>
                        <path id="_408271424" class="st4" d="M126.5,141.9L126.5,141.9c-0.1,0-0.3,0-0.4,0c-13.3,0.2-24.2,11.4-24.2,25.1v44.5h24.5
							h0.1V141.9z"/>
                        <path id="_408271328" class="st3" d="M126.5,141.5L126.5,141.5h0.4v0.4v69.6v0.4h-0.4h-0.1h-24.5h-0.4v-0.4V167
							c0-6.9,2.7-13.2,7.2-17.8c4.4-4.6,10.6-7.5,17.4-7.6l0,0h0v0L126.5,141.5L126.5,141.5z M126.2,142.3L126.2,142.3L126.2,142.3
							L126.2,142.3L126.2,142.3c-6.6,0.1-12.6,2.9-16.9,7.4c-4.3,4.5-7,10.6-7,17.3v44.2h23.9L126.2,142.3L126.2,142.3z"/>
                        <path id="_408271160" class="st4" d="M122.6,190h-20.7v2.8h20.7l1.4-1.4L122.6,190L122.6,190z M122.6,170.2h-20.7v2.8h20.7
							l1.4-1.4L122.6,170.2z"/>
                        <path id="_408271064" class="st3" d="M122.5,190.3h-20.2v2.1h20.2l1-1L122.5,190.3L122.5,190.3z M101.9,189.6h20.7h0.1
							l0.1,0.1l1.4,1.4l0.3,0.3l-0.3,0.3l-1.4,1.4l-0.1,0.1h-0.1h-20.7h-0.4v-0.4V190v-0.4L101.9,189.6L101.9,189.6z M122.5,170.6
							h-20.2v2.1h20.2l1-1L122.5,170.6L122.5,170.6z M101.9,169.9h20.7h0.1l0.1,0.1l1.4,1.4l0.3,0.3l-0.3,0.3l-1.4,1.4l-0.1,0.1
							h-0.1h-20.7h-0.4V173v-2.8v-0.4H101.9z"/>
                        <path id="_408270896" class="st4" d="M26.6,141.9L26.6,141.9c0.1,0,0.3,0,0.4,0c13.3,0.2,24.2,11.4,24.2,25.1v44.5H26.7h-0.1
							V141.9z"/>
                        <path id="_408270800" class="st3" d="M26.6,141.5L26.6,141.5l0.4,0c6.8,0.1,12.9,3,17.4,7.6c4.4,4.6,7.2,10.9,7.2,17.8v44.5
							v0.4h-0.4H26.7h-0.1h-0.4v-0.4v-69.6v-0.4L26.6,141.5L26.6,141.5z M27,142.3L27,142.3l0,68.9h23.9V167c0-6.7-2.7-12.8-7-17.3
							C39.5,145.2,33.6,142.4,27,142.3L27,142.3z"/>
                        <path id="_408270608" class="st4" d="M30.5,190h20.7v2.8H30.5l-1.4-1.4L30.5,190L30.5,190z M30.5,170.2h20.7v2.8H30.5
							l-1.4-1.4L30.5,170.2z"/>
                        <path id="_408270464" class="st3" d="M30.5,189.6h20.7h0.4v0.4v2.8v0.4h-0.4H30.5h-0.1l-0.1-0.1l-1.4-1.4l-0.3-0.3l0.3-0.3
							l1.4-1.4l0.1-0.1L30.5,189.6L30.5,189.6z M50.8,190.3H30.6l-1,1l1,1h20.2V190.3z M30.5,169.9h20.7h0.4v0.4v2.8v0.4h-0.4H30.5
							h-0.1l-0.1-0.1l-1.4-1.4l-0.3-0.3l0.3-0.3l1.4-1.4l0.1-0.1H30.5z M50.8,170.6H30.6l-1,1l1,1h20.2V170.6L50.8,170.6z"/>
					</g>
                    <g id="g123">
						<g id="g125">
							<path id="_408270320" class="st5" d="M69.5,193.3c1.3-1,4.7-1.1,6.2-1.1c1.5,0,4.4,0.3,5.7,0.5c1.3,0.2,2.2,0.6,2.2,2.5
								c-0.1,1.8-0.2,4.4-0.2,7.8s0,4.7,0.1,6.1c0.2,1.4,0.6,2.4-0.8,1.6c-1.4-0.8-2.2-1.3-4.2-2.4c-2-1.1-3.9-1-4.5-2
								c-0.6-1-0.6-1.7-1.4-2.1c-0.8-0.3-1.3-0.3-1.8,0c-0.5,0.3-1,1.5-1-0.1s0.3-2.5,0.3-4.1c0-1.6-0.1-1.7-0.5-3.2
								C69.1,195.3,69,194.7,69.5,193.3L69.5,193.3z"/>
                            <path id="_408270224" class="st3" d="M69.3,193.1c0.6-0.4,1.5-0.7,2.4-0.9c1.4-0.2,3-0.3,3.9-0.2c0.8,0,2.1,0.1,3.2,0.2
								c1,0.1,1.9,0.2,2.5,0.3c0.7,0.1,1.3,0.3,1.7,0.7c0.4,0.4,0.7,1,0.6,2c0,0.2,0,0.4,0,0.6c-0.1,1.8-0.2,4.2-0.2,7.2
								c0,1.1,0,2,0,2.8c0,1.5,0,2.3,0.1,3.3c0,0.2,0.1,0.5,0.1,0.7c0.1,0.5,0.2,1,0,1.2c-0.2,0.3-0.5,0.3-1.3-0.1
								c-0.6-0.3-1.1-0.6-1.7-1c-0.7-0.4-1.4-0.8-2.5-1.4c-0.9-0.4-1.7-0.7-2.4-0.9c-1-0.3-1.8-0.5-2.1-1.2
								c-0.2-0.3-0.3-0.6-0.5-0.9c-0.2-0.5-0.4-0.9-0.8-1.1c-0.4-0.2-0.7-0.2-0.9-0.2c-0.2,0-0.5,0.1-0.7,0.2
								c-0.1,0.1-0.3,0.2-0.4,0.3c-0.2,0.2-0.4,0.4-0.5,0.4c-0.2,0-0.4-0.3-0.4-1c0-0.8,0.1-1.4,0.1-2c0.1-0.6,0.1-1.3,0.1-2.1
								c0-1.3-0.1-1.6-0.3-2.5c-0.1-0.2-0.1-0.4-0.2-0.6c-0.2-0.8-0.3-1.3-0.3-1.9C69,194.5,69.1,193.9,69.3,193.1L69.3,193.1
								L69.3,193.1L69.3,193.1z M71.8,192.7c-0.9,0.2-1.7,0.4-2.2,0.7c-0.2,0.6-0.3,1.1-0.3,1.6c0,0.5,0.1,1,0.3,1.8
								c0.1,0.3,0.1,0.5,0.2,0.6c0.2,1,0.3,1.2,0.4,2.6c0,0.9,0,1.5-0.1,2.2c-0.1,0.6-0.1,1.2-0.1,1.9c0,0.5,0,0.6,0,0.6
								c0,0,0.1-0.1,0.3-0.3c0.1-0.2,0.3-0.3,0.5-0.4c0.3-0.2,0.6-0.2,0.9-0.2c0.3,0,0.6,0.1,1.1,0.3c0.6,0.3,0.8,0.7,1.1,1.3
								c0.1,0.3,0.2,0.6,0.4,0.9c0.3,0.5,1,0.7,1.9,1c0.7,0.2,1.6,0.5,2.5,0.9c1.1,0.6,1.9,1,2.5,1.4c0.5,0.3,1,0.6,1.7,0.9
								c0.5,0.3,0.7,0.3,0.7,0.2c0.1-0.1,0-0.5-0.1-1c0-0.2-0.1-0.4-0.1-0.7c-0.1-0.9-0.1-1.8-0.1-3.3c0-0.7,0-1.6,0-2.8
								c0-3.1,0.1-5.5,0.2-7.3c0-0.2,0-0.4,0-0.6c0-0.8-0.2-1.4-0.5-1.7c-0.4-0.3-0.9-0.5-1.5-0.6c-0.6-0.1-1.5-0.2-2.5-0.3
								c-1.2-0.1-2.4-0.2-3.2-0.2C74.8,192.4,73.2,192.4,71.8,192.7L71.8,192.7z"/>
                            <path id="_408270056" class="st4" d="M73.5,196.3c-0.8-0.1-2-1.6-1.9,0.4c0.1,2,0,4.1-0.1,5.5c-0.1,1.4,0,3,0.3,4.5
								c0.3,1.6,0.5,2.2,0.8,4.4c0.1,0.6,0.1,2.7,1,2.8c0.8,0,0.9-0.3,0.9-0.8c0-1.1,0-3.1,0.1-4.1c0.1-2.1,0.5-3.5,0.4-5.5
								c-0.1-2,0.1-2.1,0-3.6C75,198.5,74.7,197,73.5,196.3L73.5,196.3z"/>
                            <path id="_408269960" class="st3" d="M73.4,196.5c-0.3,0-0.6-0.2-0.8-0.4c-0.2-0.1-0.5-0.3-0.6-0.3c-0.1,0-0.2,0.2-0.2,0.8
								c0,1,0,2,0,3c0,0.9-0.1,1.8-0.1,2.5c0,0.7-0.1,1.5,0,2.3c0,0.7,0.1,1.4,0.3,2.2c0.1,0.5,0.2,0.9,0.3,1.3
								c0.2,0.9,0.3,1.7,0.6,3.2c0,0.1,0,0.3,0,0.4c0.1,0.8,0.2,2.2,0.8,2.2c0.4,0,0.5-0.1,0.6-0.2c0.1-0.1,0.1-0.3,0.1-0.5
								c0-0.6,0-1.5,0-2.4c0-0.7,0-1.3,0.1-1.7c0-0.8,0.1-1.5,0.2-2.1c0.1-1.1,0.2-2.1,0.2-3.3c0-1.1,0-1.7,0-2.2c0-0.4,0-0.8,0-1.4
								c0-0.7-0.1-1.4-0.3-2.1C74.3,197.3,74,196.8,73.4,196.5L73.4,196.5z M72.8,195.8c0.2,0.1,0.5,0.3,0.7,0.3l0,0l0,0
								c0.7,0.4,1.1,1,1.3,1.7c0.2,0.7,0.3,1.4,0.4,2.2c0,0.6,0,1,0,1.4c0,0.5-0.1,1,0,2.1c0.1,1.3-0.1,2.3-0.2,3.4
								c-0.1,0.6-0.1,1.3-0.2,2.1c0,0.4,0,1-0.1,1.7c0,0.8,0,1.7,0,2.4c0,0.3,0,0.5-0.2,0.7c-0.2,0.2-0.4,0.3-0.9,0.3
								c-1,0-1.1-1.6-1.2-2.5c0-0.2,0-0.3,0-0.4c-0.2-1.5-0.4-2.3-0.5-3.1c-0.1-0.4-0.2-0.8-0.3-1.3c-0.1-0.7-0.2-1.5-0.3-2.2
								c0-0.8,0-1.6,0-2.4c0-0.7,0.1-1.6,0.1-2.5c0-0.9,0-1.9,0-3c0-0.9,0.2-1.2,0.6-1.3C72.2,195.4,72.5,195.6,72.8,195.8
								L72.8,195.8z"/>
                            <path id="_408269792" class="st4" d="M80,196.3c0.8-0.1,1.9-1.6,1.8,0.4c-0.1,2-0.3,4.1-0.2,5.5c0.1,1.4,0.1,2.8-0.2,4.4
								c-0.3,1.6-0.5,2.4-0.6,4.6c-0.1,1.7-0.1,2.4-1.1,2.6c-0.7,0.1-0.8-0.3-0.8-0.8c0-1.1-0.1-3.1-0.1-4c-0.1-2.1-0.4-3.5-0.3-5.5
								c0.1-2-0.1-2.1,0-3.6C78.4,198.5,78.7,197,80,196.3L80,196.3z"/>
                            <path id="_408608888" class="st3" d="M79.9,196.1c0.2,0,0.5-0.2,0.7-0.3c0.3-0.2,0.6-0.3,0.8-0.3c0.4,0,0.6,0.3,0.5,1.3
								c0,0.6-0.1,1.1-0.1,1.7c-0.1,1.4-0.1,2.8-0.1,3.8c0,0.7,0.1,1.4,0,2.2c0,0.7-0.1,1.5-0.3,2.3l0,0.2c-0.3,1.4-0.4,2.3-0.6,4.4
								l0,0l0,0.2c-0.1,1.7-0.2,2.4-1.2,2.6c-0.4,0.1-0.7,0-0.8-0.2c-0.1-0.2-0.2-0.5-0.2-0.7c0-0.5,0-1.2,0-1.9
								c0-0.8-0.1-1.6-0.1-2.1c0-0.7-0.1-1.4-0.2-2c-0.1-1.2-0.2-2.2-0.2-3.5c0-1.1,0-1.6,0-2.1c0-0.4,0-0.8,0-1.4
								c0-0.7,0.1-1.5,0.4-2.2C78.8,197.1,79.2,196.5,79.9,196.1L79.9,196.1L79.9,196.1L79.9,196.1z M80.8,196.1
								c-0.3,0.2-0.5,0.3-0.8,0.4c-0.6,0.3-0.9,0.9-1.1,1.5c-0.2,0.6-0.3,1.4-0.3,2.1c0,0.6,0,1,0,1.4c0,0.5,0.1,1,0,2.2
								c-0.1,1.3,0.1,2.3,0.2,3.5c0.1,0.6,0.1,1.3,0.2,2c0,0.5,0.1,1.3,0.1,2.1c0,0.7,0,1.4,0,1.9c0,0.2,0,0.4,0.1,0.5
								c0.1,0.1,0.2,0.1,0.5,0.1c0.7-0.2,0.8-0.8,0.9-2.3l0-0.2v0c0.2-2.1,0.3-3,0.6-4.5l0-0.2c0.1-0.8,0.2-1.5,0.2-2.2
								c0-0.7,0-1.4,0-2.1c-0.1-1,0-2.4,0.1-3.8c0-0.6,0.1-1.1,0.1-1.7c0-0.6,0-0.8-0.2-0.8C81.3,195.8,81.1,196,80.8,196.1
								L80.8,196.1z"/>
                            <path id="_408608720" class="st4" d="M74,199.9c0.6,0.6,1.3,1.5,1.2-0.5c-0.1-2-0.3-2.4-0.1-3.6c0.2-1.2,0.1-1.3-0.1-2.1
								c-0.2-0.7,0.2-1-1-1.1c-1.2-0.1-1.6,0-2.2,0.6c-0.6,0.5-0.6,0.5-0.4,1.8c0.2,1.3,0.1,1.9,1.1,2.4c1,0.5,0.8,0.4,0.9,1.1
								C73.5,199.3,73.4,199.4,74,199.9L74,199.9z"/>
                            <path id="_408608624" class="st3" d="M74.1,199.8c0.1,0.1,0.1,0.1,0.2,0.2c0.2,0.3,0.5,0.5,0.6,0.5c0.1,0,0.1-0.3,0.1-1
								c0-0.7-0.1-1.2-0.1-1.6c-0.1-0.8-0.1-1.3,0-2.1c0.1-0.6,0.1-0.9,0.1-1.2c0-0.3-0.1-0.5-0.2-0.8c-0.1-0.2-0.1-0.4-0.1-0.5
								c0-0.3,0-0.4-0.7-0.5c-0.6-0.1-0.9-0.1-1.3,0c-0.3,0.1-0.6,0.3-0.8,0.5l0,0l-0.1,0.1c-0.5,0.4-0.5,0.4-0.3,1.6
								c0,0.3,0.1,0.5,0.1,0.7c0.1,0.8,0.1,1.2,0.9,1.6c0.9,0.4,0.9,0.5,1,0.9c0,0.1,0,0.2,0,0.4c0,0.1,0,0.2,0,0.3
								C73.7,199.2,73.7,199.4,74.1,199.8L74.1,199.8z M74,200.3c-0.1-0.1-0.1-0.1-0.2-0.2c-0.5-0.5-0.5-0.7-0.6-1.2
								c0-0.1,0-0.2,0-0.3c0-0.2,0-0.3,0-0.4c0-0.3,0-0.3-0.7-0.6c-0.9-0.4-1-0.9-1.1-1.9c0-0.2-0.1-0.4-0.1-0.6
								c-0.2-1.4-0.2-1.4,0.4-1.9l0.1-0.1l0,0c0.3-0.3,0.6-0.5,1-0.6c0.4-0.1,0.8-0.1,1.4,0c1,0.1,1,0.4,1.1,0.8
								c0,0.1,0,0.3,0.1,0.5c0.1,0.4,0.2,0.6,0.2,0.9c0,0.3,0,0.6-0.1,1.2c-0.1,0.8-0.1,1.2,0,2c0,0.4,0.1,0.9,0.1,1.6
								c0.1,1.1-0.1,1.4-0.5,1.4C74.7,200.9,74.4,200.6,74,200.3L74,200.3z"/>
                            <path id="_408608456" class="st6" d="M79.4,199.8c-0.6,0.6-1,0.8-0.9-0.6c0.1-1.5,0.1-2.3,0-3.5c-0.2-1.2-0.1-1.3,0.1-2.1
								c0.2-0.7-0.2-1,1-1.1c2.3-0.3,2,0.3,2.1,2.2c0.1,1.3,0.5,2.6-0.6,2.7c-1,0.1-1,0.2-1.1,1C79.9,199.1,79.9,199.3,79.4,199.8z"
                            />
                            <path id="_408608288" class="st4" d="M80.9,194c0.7,0.1,1.3,0.4,1.5-0.1c0.3-0.5,0.1-0.7,0.6-0.8c0.5-0.1,0.6-0.4,0.5-1.2
								c0-0.8,0.7-1.5-0.9-1.6c-1.6-0.1-2.6-0.1-3.4-0.3c-0.7-0.2-1.1-0.7-1.7,0c-0.6,0.7-1,1.6-0.7,2.3c0.3,0.7,0.8,1.1,1.3,1.5
								c0.5,0.5,1,0.6,1.5,0.2C80.3,193.7,80.6,193.9,80.9,194L80.9,194z"/>
                            <path id="_408608192" class="st3" d="M81,193.8c0.1,0,0.3,0.1,0.4,0.1c0.4,0.1,0.8,0.2,0.9-0.1c0.1-0.2,0.1-0.3,0.1-0.4
								c0.1-0.3,0.1-0.5,0.6-0.5c0.2,0,0.3-0.1,0.3-0.2c0.1-0.2,0.1-0.4,0.1-0.8c0-0.2,0-0.4,0.1-0.6c0-0.1,0-0.2,0.1-0.3
								c0-0.2-0.1-0.4-0.9-0.5c-0.5,0-0.9-0.1-1.3-0.1c-0.9,0-1.6-0.1-2.1-0.2c-0.2-0.1-0.4-0.1-0.6-0.2c-0.3-0.1-0.6-0.3-0.9,0.2
								c-0.3,0.4-0.6,0.8-0.7,1.2c-0.1,0.3-0.1,0.6,0,0.9c0.2,0.6,0.6,0.9,1,1.3c0.1,0.1,0.2,0.1,0.2,0.2c0.2,0.2,0.4,0.3,0.7,0.4
								c0.2,0,0.4,0,0.6-0.2C80.2,193.5,80.5,193.7,81,193.8C80.9,193.8,80.9,193.8,81,193.8L81,193.8z M81.3,194.3
								c-0.1,0-0.3-0.1-0.4-0.1l0,0l0,0c0,0-0.1,0-0.1,0c-0.2-0.1-0.5-0.2-0.9,0.1c-0.3,0.2-0.6,0.3-0.9,0.2c-0.3,0-0.6-0.2-0.9-0.5
								c-0.1-0.1-0.2-0.1-0.2-0.2c-0.4-0.4-0.9-0.8-1.1-1.4c-0.2-0.4-0.1-0.8,0-1.2c0.1-0.4,0.4-0.9,0.8-1.3
								c0.5-0.6,0.9-0.5,1.4-0.3c0.1,0.1,0.3,0.1,0.5,0.2c0.5,0.1,1.1,0.2,2,0.2c0.4,0,0.8,0,1.3,0.1c1.1,0.1,1.3,0.4,1.2,0.9
								c0,0.1,0,0.2-0.1,0.4c0,0.2-0.1,0.4-0.1,0.6c0,0.4,0,0.7-0.1,1c-0.1,0.3-0.3,0.4-0.6,0.5c-0.2,0-0.2,0.1-0.3,0.3
								c0,0.1-0.1,0.3-0.2,0.4C82.4,194.6,81.9,194.5,81.3,194.3L81.3,194.3z"/>
                            <path id="_408608024" class="st4" d="M70.1,193.4c0.6,0.7,0.7,0.7,1.5,0.6c0.8-0.2,1.3-0.2,1.3-0.5c0-0.3,0.3-0.3,0.6,0.1
								c0.4,0.4,0.9,0.9,1.4,0.3c0.3-0.4,0.6-0.6,0.6-0.2c0,0.4,0,0.7,0.4,0.7c0.4,0,2.2,0.2,2.1-0.3c-0.1-0.6,0.4-0.8,0.6-1.3
								c0.2-0.5,0.1-0.7-0.3-0.8c-0.4-0.1-0.6,0.1-0.7-0.6c0-0.6-1-1.2-2.7-1.5c-1.7-0.3-3.5-0.6-4.5,0.2c-1,0.8-1.3,1.2-1.1,2
								C69.6,192.8,69.6,192.9,70.1,193.4L70.1,193.4z"/>
                            <path id="_408607928" class="st3" d="M70.2,193.3c0.3,0.3,0.5,0.5,0.6,0.5c0.1,0.1,0.3,0,0.7,0c0.1,0,0.3-0.1,0.4-0.1
								c0.5-0.1,0.8-0.2,0.8-0.3c0-0.1,0-0.2,0.1-0.2c0.1-0.1,0.1-0.1,0.2-0.2c0.1,0,0.2,0,0.3,0c0.1,0.1,0.2,0.2,0.4,0.3
								c0.2,0.2,0.4,0.4,0.6,0.5c0.2,0.1,0.3,0,0.5-0.2c0.2-0.2,0.4-0.4,0.5-0.5c0.3-0.1,0.4,0,0.5,0.3v0c0,0.1,0,0.2,0,0.2
								c0,0.2,0,0.3,0.2,0.3h0l0.1,0c0.3,0,0.9,0.1,1.3,0c0.3,0,0.5-0.1,0.5-0.2c0-0.5,0.2-0.7,0.4-1c0.1-0.1,0.2-0.2,0.3-0.4
								c0.1-0.2,0.1-0.3,0.1-0.4c0-0.1-0.1-0.1-0.3-0.2c-0.1,0-0.2,0-0.2-0.1c-0.3,0-0.5-0.1-0.5-0.7c0-0.2-0.2-0.5-0.6-0.7
								c-0.4-0.2-1.1-0.4-1.9-0.6l-0.2,0c-1.6-0.3-3.2-0.5-4.1,0.2c-0.5,0.4-0.8,0.7-1,0.9c-0.1,0.3-0.2,0.5-0.1,0.8l0,0
								C69.7,192.7,69.8,192.8,70.2,193.3L70.2,193.3L70.2,193.3z M70.7,194.2c-0.2-0.1-0.4-0.3-0.7-0.6l0,0
								c-0.5-0.6-0.6-0.7-0.8-1.5l0,0c-0.1-0.4-0.1-0.8,0.1-1.1c0.2-0.3,0.5-0.6,1.1-1.1c1-0.8,2.8-0.5,4.4-0.2l0.2,0
								c0.9,0.1,1.5,0.4,2,0.6c0.5,0.3,0.8,0.7,0.8,1.1c0,0.3,0.1,0.3,0.2,0.3c0.1,0,0.2,0,0.3,0.1c0.2,0.1,0.4,0.2,0.5,0.4
								c0.1,0.2,0.1,0.4-0.1,0.7c-0.1,0.2-0.2,0.3-0.3,0.4c-0.2,0.2-0.3,0.4-0.3,0.7c0,0.4-0.3,0.5-0.8,0.6c-0.5,0-1.1,0-1.4,0
								l-0.1,0v0c-0.5-0.1-0.5-0.3-0.6-0.7c0-0.1,0-0.1,0-0.2c-0.1,0.1-0.2,0.2-0.3,0.3c-0.3,0.4-0.7,0.4-1,0.3
								c-0.3-0.1-0.5-0.4-0.7-0.6c-0.1-0.1-0.2-0.2-0.3-0.2l0,0c0,0,0,0,0,0c0,0.4-0.4,0.5-1.1,0.6c-0.1,0-0.2,0.1-0.4,0.1
								C71.2,194.3,70.9,194.3,70.7,194.2L70.7,194.2z"/>
                            <path id="_408607760" class="st4" d="M63.2,162.2c0,3.3,0.1,7.2,0.9,13.6c0.8,6.3,1.5,11.8,1.4,14c-0.1,2.2-1.4,7-2.8,10.1
								c-1.4,3.2-1.3,2.7-1.5,5c-0.3,2.3,0.9,0.5,1.6-0.7c0.7-1.2,0.8-1.6,1.4-0.7c0.6,0.9,0.8,0.2,1.4-1.2c0.7-1.4,1-0.9,1.3-0.4
								c0.3,0.4,0.9,0.8,1.7-1.9c0.8-2.6,1.5-6.1,1.8-9.3c0.3-3.2,3.5-19.2,2.6-22c-0.9-2.8-1.6-4.3-3-6.1c-1.4-1.7-2.3-3-2.3-5.5
								c0-2.6,0.3-5.4,0.3-6.1c-0.1-0.7-0.3-1.8-1.3-1.6c-0.9,0.2-2.2,0.5-2.7,5C63.4,158.9,63.2,162.2,63.2,162.2L63.2,162.2z"/>
                            <path id="_408607664" class="st3" d="M63.4,162.2c0,1.7,0,3.5,0.1,5.6c0.1,2.2,0.3,4.7,0.7,7.9c0.1,1.2,0.3,2.4,0.4,3.5
								c0.6,4.8,1.1,8.7,1,10.5c0,1.1-0.4,2.8-0.9,4.7c-0.5,1.9-1.2,3.9-1.9,5.6c-0.2,0.5-0.3,0.7-0.4,1c-0.4,0.9-0.6,1.4-0.8,1.9
								c-0.2,0.5-0.2,0.9-0.3,1.9l0,0.2c-0.1,0.8,0,0.9,0.1,0.8c0.3-0.3,0.8-1,1.1-1.6c0.1-0.1,0.1-0.2,0.2-0.3
								c0.3-0.5,0.4-0.8,0.6-0.9c0.3-0.2,0.5-0.1,0.9,0.5c0.2,0.2,0.3,0.3,0.3,0.3c0.1-0.1,0.3-0.4,0.5-1c0.1-0.1,0.1-0.2,0.2-0.5
								c0.5-1,0.8-1.1,1.1-1c0.2,0.1,0.3,0.2,0.4,0.4c0,0.1,0.1,0.1,0.1,0.1c0.1,0.1,0.3,0.3,0.4,0.2l0,0c0.3-0.2,0.6-0.7,0.9-2
								c0.4-1.4,0.8-3.1,1.2-4.8c0.3-1.5,0.5-3,0.6-4.4c0.1-1,0.4-3.2,0.9-5.9c1-5.9,2.3-14.2,1.7-16.1c-0.5-1.4-0.9-2.5-1.3-3.4
								c-0.5-0.9-1-1.7-1.6-2.6c-0.7-0.9-1.3-1.6-1.7-2.5c-0.4-0.9-0.7-1.9-0.7-3.2c0-1.4,0.1-2.8,0.2-4c0.1-1,0.1-1.8,0.1-2.1
								c0-0.3-0.1-0.7-0.3-1.1c-0.2-0.3-0.4-0.5-0.8-0.4c-0.4,0.1-0.9,0.2-1.4,0.8c-0.5,0.6-0.9,1.8-1.2,4
								C63.6,158.8,63.4,162,63.4,162.2L63.4,162.2L63.4,162.2z M63.1,167.8c-0.1-2.2-0.1-4-0.1-5.7l0,0c0,0,0,0,0,0h0
								c0,0,0.2-3.3,0.7-7.8c0.3-2.3,0.7-3.5,1.2-4.2c0.5-0.7,1.1-0.9,1.6-1c0.6-0.1,0.9,0.2,1.2,0.6c0.2,0.4,0.3,0.8,0.3,1.2
								c0,0.3,0,1.1-0.1,2.1c-0.1,1.1-0.2,2.6-0.2,3.9c0,1.2,0.2,2.2,0.6,3c0.4,0.8,1,1.6,1.6,2.4c0.7,0.9,1.2,1.7,1.7,2.6
								c0.5,1,0.9,2,1.3,3.5c0.7,2-0.7,10.3-1.7,16.2c-0.4,2.6-0.8,4.8-0.9,5.8c-0.1,1.5-0.3,3-0.6,4.5c-0.3,1.7-0.8,3.4-1.2,4.9
								c-0.4,1.4-0.8,2-1.1,2.2l-0.1-0.2l0.1,0.2c-0.4,0.3-0.7,0-1-0.3c-0.1-0.1-0.1-0.1-0.1-0.1c-0.1-0.1-0.2-0.3-0.3-0.3
								c-0.1-0.1-0.3,0.1-0.6,0.8c0,0.1-0.1,0.3-0.2,0.5c-0.3,0.6-0.5,1-0.7,1.1c-0.3,0.2-0.5,0.1-0.9-0.4c-0.2-0.3-0.3-0.4-0.4-0.4
								c-0.1,0.1-0.3,0.4-0.5,0.8c-0.1,0.1-0.1,0.2-0.2,0.3c-0.3,0.6-0.8,1.4-1.2,1.7c-0.6,0.5-0.9,0.4-0.8-1.1l0-0.2
								c0.1-1,0.2-1.4,0.3-1.9c0.1-0.5,0.4-1,0.8-1.9c0.1-0.3,0.3-0.7,0.4-1c0.7-1.6,1.4-3.6,1.9-5.5c0.5-1.8,0.8-3.5,0.9-4.6
								c0.1-1.8-0.4-5.7-1-10.4c-0.1-1.1-0.3-2.3-0.4-3.5C63.5,172.6,63.3,170,63.1,167.8L63.1,167.8z"/>
                            <path id="_408607496" class="st4" d="M76.1,165.1c2.9,0,5.3,3,5.3,6.8c0,3.7-2.4,6.8-5.3,6.8c-2.9,0-5.3-3-5.3-6.8
								C70.8,168.1,73.2,165.1,76.1,165.1z"/>
                            <path id="_408607400" class="st3" d="M76.1,164.9c1.5,0,2.9,0.8,3.9,2.1c1,1.3,1.6,3,1.6,4.9c0,1.9-0.6,3.7-1.6,4.9
								c-1,1.3-2.4,2.1-3.9,2.1c-1.5,0-2.9-0.8-3.9-2.1c-1-1.3-1.6-3-1.6-4.9c0-1.9,0.6-3.7,1.6-4.9
								C73.2,165.7,74.6,164.9,76.1,164.9z M79.7,167.2c-0.9-1.2-2.2-1.9-3.6-1.9c-1.4,0-2.7,0.7-3.6,1.9c-0.9,1.2-1.5,2.8-1.5,4.7
								c0,1.8,0.6,3.5,1.5,4.7c0.9,1.2,2.2,1.9,3.6,1.9c1.4,0,2.7-0.7,3.6-1.9c0.9-1.2,1.5-2.8,1.5-4.7
								C81.3,170.1,80.7,168.4,79.7,167.2z"/>
                            <path id="_408607232" class="st4" d="M77.6,184.7c-0.2-2.6,0.1-4.4,0.1-5.7c0-1.3,1.2-1.4,1.7-1.2c0.5,0.1,0.7,0.3,0.6,2.1
								c-0.1,1.8,0,3.1,0.1,4.9c0.1,1.8,0.4,2.6,0.6,4c0.3,1.4,0.2,1.5-0.3,2.1c-0.6,0.6-0.7,0.5-1.3,0.1c-0.5-0.4-1.2-0.5-1.2-2.3
								C77.8,186.9,77.8,186.9,77.6,184.7L77.6,184.7z"/>
                            <path id="_408607136" class="st3" d="M77.4,184.7c-0.1-1.8-0.1-3.2,0-4.4c0-0.5,0.1-1,0.1-1.4c0-0.2,0-0.4,0.1-0.5
								c0.1-0.4,0.3-0.6,0.6-0.8c0.3-0.1,0.6-0.2,0.8-0.2v0c0.2,0,0.3,0,0.5,0.1c0.3,0.1,0.5,0.2,0.6,0.6c0.1,0.3,0.1,0.8,0.1,1.7
								c-0.1,1.6,0,2.8,0,4.3c0,0.2,0,0.4,0,0.6c0.1,1.3,0.2,2.1,0.4,3c0.1,0.3,0.1,0.6,0.2,1c0.1,0.7,0.2,1.1,0.2,1.4
								c-0.1,0.3-0.2,0.5-0.5,0.9c-0.3,0.4-0.5,0.5-0.8,0.5c-0.2,0-0.5-0.1-0.8-0.4c-0.1-0.1-0.1-0.1-0.2-0.2
								c-0.5-0.3-1-0.7-1.1-2.3c0-1.3-0.1-1.7-0.1-2.7C77.5,185.7,77.5,185.3,77.4,184.7L77.4,184.7z M77.8,180.3
								c-0.1,1.1-0.1,2.6,0,4.3v0c0,0.5,0.1,1,0.1,1.3c0.1,1,0.1,1.4,0.1,2.7c0,1.4,0.5,1.7,0.9,2c0.1,0.1,0.2,0.1,0.2,0.2
								c0.2,0.2,0.4,0.3,0.5,0.3c0.1,0,0.3-0.1,0.5-0.4c0.3-0.3,0.4-0.5,0.4-0.7c0-0.2,0-0.6-0.1-1.3c-0.1-0.4-0.1-0.7-0.2-0.9
								c-0.2-0.9-0.4-1.7-0.4-3.1c0-0.2,0-0.4,0-0.6c-0.1-1.5-0.1-2.8,0-4.4c0-0.9,0-1.3-0.1-1.6c-0.1-0.2-0.2-0.3-0.4-0.3
								c-0.1,0-0.2,0-0.3,0v0c-0.2,0-0.4,0-0.6,0.1c-0.2,0.1-0.3,0.3-0.4,0.5c0,0.1,0,0.2,0,0.4C77.9,179.3,77.9,179.8,77.8,180.3
								L77.8,180.3z"/>
                            <path id="_408606968" class="st4" d="M72,184.5c0.2-2.6,0.2-4.5,0.2-5.8c0-1.3-0.7-0.9-1.2-0.7c-0.5,0.1-0.8-0.3-0.7,1.5
								c0.1,1.8,0.1,3.2,0,5.1c-0.1,1.8-0.6,2.5-0.9,3.9c-0.3,1.4-0.2,1.5,0.3,2.1c0.6,0.6,0.7,0.5,1.3,0.1c0.5-0.4,0.8-0.4,0.6-2
								C71.4,187.2,71.9,186.7,72,184.5L72,184.5z"/>
                            <path id="_408606872" class="st3" d="M71.8,184.5c0.1-1.3,0.2-2.4,0.2-3.4c0-0.9,0-1.7,0-2.4c0-0.6-0.1-0.7-0.3-0.7
								c-0.1,0-0.3,0.1-0.4,0.1c-0.1,0-0.1,0-0.2,0.1c-0.1,0-0.2,0-0.3,0c-0.2,0-0.4,0-0.3,1.3c0,0.9,0.1,1.7,0.1,2.5
								c0,0.8,0,1.6-0.1,2.5c0,1.2-0.3,1.9-0.5,2.6c-0.1,0.4-0.3,0.8-0.4,1.3c-0.1,0.7-0.2,1-0.1,1.3c0,0.2,0.2,0.4,0.4,0.7
								c0.2,0.3,0.4,0.4,0.5,0.4c0.1,0,0.3-0.1,0.5-0.3c0,0,0.1-0.1,0.1-0.1c0.4-0.3,0.5-0.4,0.4-1.7c-0.1-0.9,0-1.5,0.1-2.2
								C71.6,186.1,71.8,185.5,71.8,184.5L71.8,184.5L71.8,184.5z M72.4,181.2c0,1-0.1,2.1-0.2,3.4h0c-0.1,1-0.2,1.6-0.3,2.1
								c-0.1,0.7-0.2,1.2-0.1,2.1c0.2,1.5,0,1.7-0.5,2.1c0,0-0.1,0.1-0.1,0.1c-0.3,0.2-0.5,0.4-0.8,0.4c-0.2,0-0.5-0.2-0.8-0.5
								c-0.3-0.4-0.5-0.6-0.5-0.9c-0.1-0.3,0-0.7,0.2-1.4c0.1-0.5,0.2-0.9,0.4-1.4c0.2-0.7,0.5-1.4,0.5-2.5c0-0.9,0.1-1.7,0.1-2.5
								c0-0.8,0-1.6-0.1-2.5c-0.1-1.6,0.2-1.7,0.6-1.7c0.1,0,0.1,0,0.2,0c0.1,0,0.1,0,0.2-0.1c0.2-0.1,0.4-0.1,0.6-0.1
								c0.4,0,0.7,0.2,0.7,1.1C72.4,179.4,72.4,180.2,72.4,181.2L72.4,181.2z"/>
                            <path id="_408606704" class="st4" d="M73.5,184.4c0.2-2.6,0.2-4.4,0.2-5.7c0-1.3-0.7-0.9-1.2-0.7c-0.5,0.1-0.8-0.3-0.7,1.5
								c0.1,1.8,0.1,3.2,0,5c-0.1,1.8-0.2,2.6-0.5,4c-0.3,1.4-0.2,1.5,0.3,2.1c0.6,0.6,0.7,0.5,1.3,0.1c0.5-0.4,0.8-0.4,0.6-2
								C73.3,187.2,73.4,186.6,73.5,184.4L73.5,184.4z"/>
                            <path id="_408606608" class="st3" d="M73.3,184.4c0.2-2.2,0.2-3.9,0.2-5.1l0-0.6c0-0.6-0.1-0.7-0.3-0.7
								c-0.1,0-0.3,0.1-0.4,0.1c-0.1,0-0.1,0-0.2,0.1c-0.1,0-0.2,0-0.3,0c-0.2,0-0.4,0-0.3,1.3c0,0.9,0.1,1.7,0.1,2.5
								c0,0.8,0,1.6,0,2.5c0,0.9-0.1,1.6-0.2,2.2c-0.1,0.6-0.2,1.1-0.3,1.8c-0.1,0.7-0.2,1-0.1,1.3c0,0.2,0.2,0.4,0.4,0.7
								c0.2,0.3,0.4,0.4,0.5,0.4c0.1,0,0.3-0.1,0.5-0.3c0.1,0,0.1-0.1,0.1-0.1c0.4-0.3,0.5-0.4,0.4-1.7c-0.2-1.4-0.1-2.1,0-3.8
								C73.3,184.8,73.3,184.6,73.3,184.4L73.3,184.4L73.3,184.4z M73.9,179.3c0,1.3,0,2.9-0.2,5.2h0c0,0.2,0,0.4,0,0.5
								c-0.1,1.7-0.1,2.3,0,3.8c0.2,1.5,0,1.7-0.5,2.1c0,0-0.1,0.1-0.1,0.1c-0.3,0.2-0.5,0.4-0.8,0.4c-0.2,0-0.5-0.2-0.8-0.5
								c-0.3-0.4-0.5-0.6-0.5-0.9c-0.1-0.3,0-0.7,0.2-1.4c0.1-0.7,0.2-1.2,0.3-1.8c0.1-0.6,0.1-1.2,0.2-2.1c0-0.9,0.1-1.7,0-2.5
								c0-0.8,0-1.6-0.1-2.5c-0.1-1.6,0.2-1.7,0.6-1.7c0.1,0,0.1,0,0.2,0c0.1,0,0.1,0,0.2-0.1c0.2-0.1,0.4-0.1,0.6-0.1
								c0.4,0,0.7,0.2,0.7,1.1C73.9,179.1,73.9,179.2,73.9,179.3L73.9,179.3z"/>
                            <path id="_408606440" class="st4" d="M76,184.7c0.2-2.6-0.3-4.4-0.3-5.7c0-1.3-1.1-1.4-1.6-1.3c-0.5,0.1-0.7,0.3-0.6,2.1
								c0.1,1.8,0,3.1-0.1,4.9c-0.1,1.8-0.1,2.5-0.3,3.9c-0.3,1.4,0.3,1.7,0.9,2.3c0.6,0.6,0.7,0.5,1.3,0.1c0.5-0.4,1.2-0.5,1.2-2.3
								C76.6,187,75.9,186.9,76,184.7L76,184.7z"/>
                            <path id="_408606344" class="st3" d="M75.8,184.7c0.1-1.7,0-3-0.2-4.1c-0.1-0.6-0.1-1.1-0.1-1.6c0-0.2,0-0.3-0.1-0.4
								c-0.1-0.3-0.2-0.4-0.4-0.5c-0.2-0.1-0.4-0.1-0.6-0.1c-0.1,0-0.2,0-0.3,0c-0.2,0.1-0.3,0.1-0.4,0.3c-0.1,0.3-0.1,0.7-0.1,1.6
								c0.1,1.6,0,2.8,0,4.4c0,0.2,0,0.4,0,0.6c0,0.3,0,0.6,0,0.9c0,1.2-0.1,1.9-0.3,3c-0.2,1.1,0.1,1.4,0.6,1.9
								c0.1,0.1,0.2,0.2,0.3,0.3c0.2,0.3,0.4,0.4,0.5,0.4c0.1,0,0.3-0.1,0.5-0.3c0.1-0.1,0.2-0.1,0.2-0.2c0.4-0.3,0.9-0.6,0.9-2
								c0-0.8-0.1-1.2-0.2-1.7C75.9,186.5,75.8,185.9,75.8,184.7L75.8,184.7z M76.1,180.5c0.1,1.1,0.3,2.5,0.2,4.1l0,0
								c-0.1,1.1,0.1,1.7,0.3,2.2c0.1,0.5,0.3,1,0.3,1.8c0,1.6-0.6,2-1.1,2.3c-0.1,0.1-0.2,0.1-0.2,0.2c-0.3,0.2-0.5,0.4-0.8,0.4
								c-0.2,0-0.5-0.2-0.8-0.5c-0.1-0.1-0.2-0.2-0.2-0.3c-0.5-0.5-0.9-1-0.7-2.2c0.2-1.1,0.2-1.8,0.3-3c0-0.3,0-0.5,0-0.9
								c0-0.2,0-0.4,0-0.6c0.1-1.5,0.1-2.7,0-4.3c0-0.9,0-1.4,0.1-1.7c0.1-0.4,0.3-0.5,0.6-0.6c0.1,0,0.3-0.1,0.4-0.1
								c0.2,0,0.5,0.1,0.8,0.2c0.3,0.2,0.5,0.4,0.6,0.8c0,0.2,0.1,0.3,0.1,0.5C76,179.4,76,179.9,76.1,180.5L76.1,180.5z"/>
                            <path id="_408606176" class="st4" d="M75.9,184.7c-0.2-2.6-0.2-4.4-0.2-5.7c0-1.3,0.2-0.7,1.2-0.7c1-0.1,0.8-0.3,0.7,1.5
								c-0.1,1.8-0.1,3.2,0,5c0.1,1.8,0.2,2.6,0.5,4c0.3,1.4,0.2,1.5-0.3,2.1c-0.6,0.6-0.7,0.5-1.3,0.1c-0.5-0.4-0.8-0.4-0.6-2
								C76.1,187.4,76,186.9,75.9,184.7L75.9,184.7z"/>
                            <path id="_408606080" class="st3" d="M75.7,184.7c-0.2-2.2-0.2-3.9-0.2-5.2c0-0.1,0-0.2,0-0.6c0-0.8,0.1-1,0.4-1
								c0.1,0,0.2,0,0.3,0c0.2,0,0.4,0.1,0.7,0.1c0.1,0,0.2,0,0.3,0c0.4,0,0.5,0,0.6,0.2c0.1,0.2,0.1,0.4,0,0.8c0,0.2,0,0.4,0,0.7
								c0,0.9-0.1,1.7-0.1,2.5c0,0.8,0,1.6,0,2.5c0,0.9,0.1,1.5,0.2,2.1c0.1,0.6,0.2,1.1,0.3,1.8c0.1,0.7,0.2,1.1,0.2,1.4
								c-0.1,0.3-0.2,0.5-0.5,0.9c-0.3,0.4-0.5,0.5-0.8,0.5c-0.2,0-0.5-0.1-0.8-0.4c0,0-0.1-0.1-0.1-0.1c-0.5-0.4-0.7-0.5-0.5-2.1
								c0.2-1.4,0.1-2,0-3.8C75.7,185.1,75.7,184.9,75.7,184.7L75.7,184.7L75.7,184.7z M75.9,179.5c0,1.2,0,2.9,0.2,5.1v0
								c0,0.2,0,0.4,0,0.5c0.1,1.8,0.2,2.4,0,3.8c-0.2,1.3,0,1.4,0.4,1.7c0,0,0.1,0.1,0.1,0.1c0.2,0.2,0.4,0.3,0.5,0.3
								c0.1,0,0.3-0.1,0.5-0.4c0.3-0.3,0.4-0.5,0.4-0.7c0-0.2,0-0.6-0.1-1.3c-0.1-0.7-0.2-1.2-0.3-1.8c-0.1-0.6-0.1-1.3-0.2-2.2
								c0-0.9-0.1-1.7,0-2.5c0-0.8,0-1.6,0.1-2.5c0-0.3,0-0.5,0-0.7c0-0.4,0-0.6,0-0.6c0,0-0.1,0-0.3,0c-0.1,0-0.2,0-0.3,0
								c-0.3,0-0.6,0-0.8-0.1c-0.1,0-0.1,0-0.2,0c0,0-0.1,0.1-0.1,0.6L75.9,179.5L75.9,179.5z"/>
                            <g id="g154">
								<path id="_408605912" class="st4" d="M72.4,175.4c1.2,0.4,2,0.8,3.9,0.9c2,0.1,2.6-0.7,2.7,0.6c0.2,1.3,0.9,1.6-0.7,1.7
									c-1.6,0.1-3.2,0.1-4.6-0.2c-1.4-0.3-3-0.3-2.9-1.6C70.9,175.6,71.2,175.2,72.4,175.4z"/>
                                <path id="_4086059121" class="st7" d="M72.4,175.4c1.2,0.4,2,0.8,3.9,0.9c2,0.1,2.6-0.7,2.7,0.6c0.2,1.3,0.9,1.6-0.7,1.7
									c-1.6,0.1-3.2,0.1-4.6-0.2c-1.4-0.3-3-0.3-2.9-1.6C70.9,175.6,71.2,175.2,72.4,175.4z"/>
							</g>
                            <path id="_408605744" class="st4" d="M79.9,184.7c-0.2-2.6-0.2-4.4-0.2-5.7s1.6-1.4,2.1-1.2c0.5,0.1,0.7,0.3,0.6,2.1
								c-0.1,1.8,0,3.1,0.1,4.9c0.1,1.8,0.4,2.6,0.6,4c0.3,1.4,0.2,1.5-0.3,2.1c-0.6,0.6-0.7,0.5-1.3,0.1c-0.5-0.4-1.2-0.5-1.2-2.3
								C80.1,186.9,80,186.9,79.9,184.7L79.9,184.7z"/>
                            <path id="_408605648" class="st3" d="M79.7,184.7c-0.2-2.4-0.2-4.1-0.2-5.4c0-0.2,0,0.5,0-0.3c0-0.2,0-0.3,0.1-0.4
								c0.1-0.4,0.4-0.7,0.8-0.8c0.3-0.2,0.7-0.2,1-0.2c0.2,0,0.4,0,0.5,0.1c0.3,0.1,0.5,0.2,0.6,0.6c0.1,0.3,0.1,0.8,0.1,1.7
								c-0.1,1.6,0,2.8,0,4.3c0,0.2,0,0.4,0,0.6c0.1,1.3,0.2,2.1,0.4,3c0.1,0.3,0.1,0.6,0.2,1c0.1,0.7,0.2,1.1,0.2,1.4
								c-0.1,0.3-0.2,0.5-0.5,0.9c-0.3,0.4-0.5,0.5-0.8,0.5c-0.2,0-0.5-0.1-0.8-0.4c-0.1-0.1-0.1-0.1-0.2-0.2
								c-0.5-0.3-1-0.7-1.1-2.3c0-0.9-0.1-1.4-0.1-1.9C79.8,186.3,79.7,185.7,79.7,184.7L79.7,184.7L79.7,184.7z M79.9,179.3
								c0,1.3,0,3,0.2,5.4v0c0.1,1,0.1,1.6,0.2,2c0.1,0.5,0.1,1,0.1,2c0,1.4,0.5,1.7,0.9,2c0.1,0.1,0.2,0.1,0.2,0.2
								c0.2,0.2,0.4,0.3,0.5,0.3c0.1,0,0.3-0.1,0.5-0.4c0.3-0.3,0.4-0.5,0.4-0.7c0-0.2,0-0.6-0.1-1.3c-0.1-0.4-0.1-0.7-0.2-0.9
								c-0.2-0.9-0.4-1.7-0.4-3.1c0-0.2,0-0.4,0-0.6c-0.1-1.5-0.1-2.8,0-4.4c0-0.9,0-1.3-0.1-1.6c-0.1-0.2-0.2-0.3-0.4-0.3
								c-0.1,0-0.2,0-0.4,0c-0.3,0-0.6,0-0.8,0.2c-0.2,0.1-0.5,0.3-0.5,0.6c0,0.1,0,0.2,0,0.3C79.9,179.5,79.9,178.8,79.9,179.3
								L79.9,179.3z"/>
                            <path id="_408605480" class="st6" d="M71.1,164.1c-1,0.1-2,0.6-2.4,1.4c-0.3,0.8-0.3,1-0.2,2.6c0.1,1.6,0.1,4.2-0.2,7
								c-0.3,2.8,0.3,3.3,0.3,4.4s0.6,0.5,0.7,1.5c0.1,1,0.3,0.8,1.2,1.1c0.9,0.3,1.2-0.3,1.3-1.3c0.1-1,0.8-3.7,0.8-5
								c0.1-1.4-0.5-3.6-0.6-5.7c-0.1-2.1,0.5-2.5,1-2.8c0.5-0.3,1.3-1.2,0.7-1.9C73,164.6,72.1,164.1,71.1,164.1L71.1,164.1z"/>
                            <path id="_408605312" class="st4" d="M76.6,150c3.3,0,6,2.7,6,6c0,3.3-2.7,6-6,6c-3.3,0-6-2.7-6-6
								C70.7,152.7,73.3,150,76.6,150z"/>
                            <path id="_408605216" class="st3" d="M76.6,149.8c1.7,0,3.2,0.7,4.4,1.8c1.1,1.1,1.8,2.7,1.8,4.4c0,1.7-0.7,3.2-1.8,4.4
								c-1.1,1.1-2.7,1.8-4.4,1.8c-1.7,0-3.2-0.7-4.4-1.8c-1.1-1.1-1.8-2.7-1.8-4.4c0-1.7,0.7-3.2,1.8-4.4
								C73.4,150.5,74.9,149.8,76.6,149.8z M80.7,151.9c-1-1-2.5-1.7-4.1-1.7c-1.6,0-3,0.6-4.1,1.7s-1.7,2.5-1.7,4.1
								c0,1.6,0.6,3,1.7,4.1c1,1,2.5,1.7,4.1,1.7c1.6,0,3-0.6,4.1-1.7c1-1,1.7-2.5,1.7-4.1C82.4,154.4,81.8,153,80.7,151.9z"/>
                            <path id="_408605048" class="st4" d="M76.8,165.2L76.8,165.2c-0.9,0-3.2-1.4-2.6-1.9c0.6-0.4,1.6-2.5,1.6-4.3
								c0-0.5,1.9-0.5,2,0c0,1.8,1,3.9,1.6,4.3C80,163.7,77.7,165.2,76.8,165.2z"/>
                            <path id="_408604952" class="st3" d="M76.8,165L76.8,165L76.8,165L76.8,165c0.5,0,1.3-0.4,1.9-0.8c0.2-0.1,0.4-0.3,0.5-0.4
								c0.1-0.1,0.1-0.2,0.1-0.2c0,0,0,0,0,0c-0.4-0.3-0.8-1-1.2-2c-0.3-0.8-0.5-1.7-0.5-2.5c0-0.1-0.2-0.1-0.4-0.2
								c-0.1,0-0.3,0-0.4,0c-0.1,0-0.3,0-0.4,0c-0.2,0-0.4,0.1-0.4,0.2c0,0.9-0.2,1.8-0.5,2.5c-0.4,0.9-0.8,1.7-1.2,2c0,0,0,0,0,0
								c0,0,0,0.1,0.1,0.2c0.1,0.1,0.3,0.3,0.5,0.4C75.5,164.6,76.3,165,76.8,165L76.8,165L76.8,165L76.8,165z M76.8,165.4
								L76.8,165.4L76.8,165.4L76.8,165.4c-0.5,0-1.5-0.4-2.1-0.9c-0.2-0.2-0.4-0.3-0.6-0.5c-0.2-0.2-0.2-0.4-0.2-0.6
								c0-0.1,0.1-0.2,0.2-0.2c0.3-0.2,0.7-0.9,1-1.8c0.3-0.7,0.5-1.6,0.5-2.4c0-0.3,0.3-0.5,0.7-0.5c0.1,0,0.3,0,0.5,0
								c0.2,0,0.3,0,0.5,0c0.4,0.1,0.7,0.2,0.7,0.5c0,0.8,0.2,1.7,0.5,2.4c0.3,0.9,0.7,1.6,1,1.8c0.1,0.1,0.1,0.1,0.2,0.2
								c0,0.2,0,0.4-0.2,0.6c-0.1,0.2-0.3,0.3-0.6,0.5C78.3,164.9,77.3,165.4,76.8,165.4L76.8,165.4z"/>
                            <path id="_408604784" class="st4" d="M90.1,162.2c0,3.3-0.1,7.2-0.9,13.6c-0.8,6.3-1.5,11.8-1.4,14c0.1,2.2,1.4,7,2.8,10.1
								c1.4,3.2,1.3,2.7,1.5,5c0.3,2.3-0.9,0.5-1.6-0.7c-0.7-1.2-0.8-1.6-1.4-0.7c-0.6,0.9-0.8,0.2-1.4-1.2c-0.7-1.4-1-0.9-1.3-0.4
								c-0.3,0.4-0.9,0.8-1.7-1.9c-0.8-2.6-1.5-6.1-1.8-9.3c-0.3-3.2-3.5-19.2-2.6-22c0.9-2.8,1.6-4.3,3-6.1c1.4-1.7,2.3-3,2.3-5.5
								c0-2.6-0.3-5.4-0.3-6.1c0.1-0.7,0.3-1.8,1.3-1.6c0.9,0.2,2.2,0.5,2.7,5C89.9,158.9,90.1,162.2,90.1,162.2L90.1,162.2z"/>
                            <path id="_408604688" class="st3" d="M90.3,162.2c0,1.7,0,3.5-0.1,5.7c-0.1,2.2-0.3,4.8-0.7,7.9c-0.2,1.2-0.3,2.4-0.4,3.5
								c-0.6,4.8-1.1,8.7-1,10.4c0,1.1,0.4,2.8,0.9,4.6c0.5,1.9,1.2,3.9,1.9,5.5c0.1,0.3,0.3,0.7,0.4,1c0.4,0.9,0.6,1.5,0.8,1.9
								c0.2,0.5,0.2,1,0.3,1.9l0,0.2c0.2,1.5-0.2,1.6-0.8,1.1c-0.4-0.3-0.8-1.1-1.2-1.7c-0.1-0.1-0.1-0.2-0.2-0.3
								c-0.2-0.4-0.4-0.7-0.5-0.8c-0.1,0-0.2,0.1-0.4,0.4c-0.3,0.5-0.6,0.6-0.9,0.4c-0.2-0.2-0.4-0.5-0.7-1.1
								c-0.1-0.2-0.2-0.4-0.2-0.5c-0.3-0.7-0.5-0.8-0.6-0.8c-0.1,0-0.2,0.2-0.3,0.3c0,0,0,0-0.1,0.1c-0.2,0.3-0.5,0.5-1,0.3
								c-0.3-0.2-0.7-0.8-1.1-2.2c-0.4-1.4-0.8-3.1-1.2-4.9c-0.3-1.5-0.5-3-0.6-4.5c-0.1-1-0.4-3.2-0.9-5.8c-1-6-2.3-14.3-1.7-16.2
								c0.5-1.4,0.9-2.5,1.3-3.5c0.5-1,1-1.8,1.7-2.6c0.7-0.8,1.2-1.6,1.6-2.4c0.4-0.8,0.6-1.8,0.6-3c0-1.4-0.1-2.8-0.2-3.9
								c-0.1-1-0.1-1.8-0.1-2.1c0-0.4,0.1-0.8,0.3-1.2c0.2-0.4,0.6-0.7,1.2-0.6c0.5,0.1,1.1,0.2,1.6,1c0.5,0.7,1,1.9,1.2,4.2
								C90.1,158.9,90.3,162.1,90.3,162.2L90.3,162.2C90.3,162.2,90.3,162.2,90.3,162.2L90.3,162.2L90.3,162.2z M89.7,167.8
								c0.1-2.2,0.1-4,0.1-5.6h0c0-0.2-0.2-3.4-0.7-7.7c-0.3-2.2-0.7-3.4-1.2-4c-0.5-0.6-1-0.7-1.4-0.8c-0.4-0.1-0.6,0.1-0.8,0.4
								c-0.2,0.3-0.3,0.7-0.3,1.1c0,0.3,0,1.1,0.1,2.1c0.1,1.2,0.2,2.6,0.2,4c0,1.3-0.2,2.3-0.7,3.2c-0.4,0.9-1,1.6-1.7,2.5
								c-0.7,0.8-1.2,1.6-1.6,2.6c-0.5,0.9-0.9,2-1.3,3.4c-0.6,1.9,0.7,10.1,1.7,16.1c0.4,2.7,0.8,4.9,0.9,5.9
								c0.1,1.5,0.3,3,0.6,4.4c0.3,1.7,0.7,3.4,1.2,4.8c0.4,1.3,0.7,1.8,0.9,2c0.2,0.1,0.3,0,0.4-0.2c0,0,0,0,0.1-0.1
								c0.1-0.2,0.3-0.3,0.4-0.4c0.3-0.2,0.7,0,1.1,1c0.1,0.2,0.2,0.4,0.2,0.5c0.2,0.5,0.4,0.9,0.5,1c0.1,0,0.1,0,0.3-0.3
								c0.4-0.5,0.6-0.7,0.9-0.5c0.2,0.1,0.4,0.4,0.6,0.9c0.1,0.1,0.1,0.2,0.2,0.3c0.3,0.6,0.8,1.3,1.1,1.6c0.1,0.1,0.2,0,0.1-0.8
								l0-0.2c-0.1-0.9-0.2-1.4-0.3-1.9c-0.1-0.4-0.4-0.9-0.8-1.9c-0.1-0.2-0.2-0.5-0.4-1c-0.7-1.6-1.4-3.7-1.9-5.6
								c-0.5-1.8-0.9-3.6-0.9-4.7c-0.1-1.8,0.4-5.7,1-10.5c0.1-1.1,0.3-2.3,0.4-3.5C89.4,172.6,89.6,170,89.7,167.8L89.7,167.8z"/>
                            <path id="_408604472" class="st3" d="M86.5,190.1c0-0.1-0.1-0.2-0.2-0.2c-0.1,0-0.2,0.1-0.2,0.2c0,1.1,0.5,3.2,1.1,5.4
								c0.8,2.8,1.8,5.8,2.5,7.8c0,0.1,0.2,0.2,0.3,0.1c0.1,0,0.2-0.2,0.1-0.3c-0.7-1.9-1.7-5-2.5-7.8
								C87,193.2,86.5,191.1,86.5,190.1z"/>
                            <path id="_408604544" class="st3" d="M84.9,192.8c0-0.1-0.1-0.2-0.2-0.2c-0.1,0-0.2,0.1-0.2,0.2c0.4,3.3,2.6,8.7,2.6,8.7
								c0,0.1,0.2,0.1,0.3,0.1c0.1,0,0.1-0.2,0.1-0.3C87.4,201.3,85.3,196,84.9,192.8L84.9,192.8z"/>
                            <path id="_408604376" class="st8" d="M76.8,152.6c1.5,0,2.7,1.7,2.7,3.8c0,2.1-1.2,3.8-2.7,3.8c-1.5,0-2.7-1.7-2.7-3.8
								C74,154.4,75.3,152.6,76.8,152.6z"/>
                            <path id="_408604280" class="st3" d="M76.8,152.4c0.8,0,1.6,0.5,2.1,1.2c0.5,0.7,0.8,1.7,0.8,2.8c0,1.1-0.3,2.1-0.8,2.8
								c-0.5,0.7-1.3,1.2-2.1,1.2c-0.8,0-1.6-0.5-2.1-1.2c-0.5-0.7-0.8-1.7-0.8-2.8c0-1.1,0.3-2.1,0.8-2.8
								C75.2,152.9,75.9,152.4,76.8,152.4z M78.6,153.9c-0.5-0.6-1.1-1-1.8-1c-0.7,0-1.3,0.4-1.8,1c-0.5,0.7-0.8,1.6-0.8,2.6
								c0,1,0.3,1.9,0.8,2.6c0.5,0.6,1.1,1,1.8,1c0.7,0,1.3-0.4,1.8-1c0.5-0.7,0.8-1.6,0.8-2.6C79.3,155.5,79,154.6,78.6,153.9
								L78.6,153.9z"/>
                            <path id="_408604112" class="st4" d="M77.6,151.8c2-0.1,3.8,3.9,3,4.6c-0.8,0.6-0.7-1.9-2.3-2.2
								C76.7,153.8,76.1,151.9,77.6,151.8L77.6,151.8z"/>
                            <path id="_408604016" class="st3" d="M77.6,151.6c0.8,0,1.6,0.5,2.2,1.3c0.3,0.4,0.6,0.9,0.8,1.4c0.2,0.5,0.3,1,0.3,1.4
								c0,0.4-0.1,0.7-0.3,0.8c-0.3,0.3-0.6,0.2-0.8-0.1c-0.1-0.2-0.2-0.4-0.3-0.6h0c-0.3-0.6-0.6-1.3-1.3-1.5h0
								c-0.7-0.2-1.2-0.6-1.5-1.1c-0.1-0.2-0.2-0.4-0.2-0.6c0-0.2,0-0.4,0.2-0.6C76.9,151.8,77.2,151.6,77.6,151.6L77.6,151.6
								L77.6,151.6z M79.5,153.1c-0.5-0.7-1.2-1.2-1.9-1.2l0,0c-0.3,0-0.5,0.1-0.6,0.3c-0.1,0.1-0.1,0.2-0.1,0.3
								c0,0.1,0.1,0.3,0.1,0.5c0.2,0.4,0.6,0.8,1.2,0.9v0c0.9,0.2,1.3,1.1,1.6,1.7l0,0c0.1,0.2,0.2,0.4,0.3,0.5
								c0.1,0.1,0.1,0.1,0.2,0c0.1-0.1,0.2-0.3,0.1-0.5c0-0.3-0.1-0.8-0.3-1.2C80.1,154,79.9,153.5,79.5,153.1L79.5,153.1z"/>
                            <path id="_408603848" class="st4" d="M75.9,151.8c-2-0.1-3.8,3.9-3,4.6c0.8,0.6,0.7-1.9,2.3-2.2
								C76.8,153.8,77.4,151.9,75.9,151.8L75.9,151.8z"/>
                            <path id="_408603752" class="st3" d="M75.9,152c-0.7,0-1.4,0.5-1.9,1.2c-0.3,0.4-0.6,0.9-0.8,1.3c-0.2,0.4-0.3,0.9-0.3,1.2
								c0,0.3,0,0.4,0.1,0.5c0.1,0.1,0.2,0.1,0.2,0c0.1-0.1,0.2-0.3,0.3-0.5c0.3-0.6,0.7-1.5,1.6-1.7c0.6-0.1,1-0.5,1.2-0.9
								c0.1-0.2,0.1-0.3,0.1-0.5c0-0.1,0-0.2-0.1-0.3C76.4,152.1,76.2,152,75.9,152L75.9,152L75.9,152z M73.7,152.9
								c0.6-0.8,1.4-1.3,2.2-1.3h0c0.4,0,0.7,0.2,0.9,0.4c0.1,0.2,0.2,0.4,0.2,0.6c0,0.2-0.1,0.4-0.2,0.6c-0.3,0.5-0.8,0.9-1.5,1.1
								c-0.7,0.2-1.1,0.9-1.3,1.5c-0.1,0.2-0.2,0.5-0.3,0.6c-0.2,0.3-0.5,0.4-0.8,0.1c-0.2-0.2-0.3-0.5-0.3-0.8
								c0-0.4,0.1-0.9,0.3-1.4C73.1,153.8,73.4,153.3,73.7,152.9L73.7,152.9z"/>
                            <path id="_408603584" class="st4" d="M75.1,159.6c-0.6-0.2-1.9-1.7-1.8-2.4s1-2.5,1-1.9c-0.1,0.6-0.2,1.3-0.1,2.5
								C74.3,158.9,74.9,159.2,75.1,159.6z"/>
                            <path id="_408603488" class="st3" d="M75,159.8c-0.4-0.1-0.9-0.6-1.3-1.2c-0.4-0.5-0.7-1.1-0.6-1.5c0-0.5,0.4-1.4,0.7-1.9
								c0.1-0.1,0.1-0.2,0.2-0.3c0.2-0.2,0.3-0.2,0.4,0c0,0.1,0,0.1,0,0.2c0,0,0,0.1,0,0.2c-0.1,0.5-0.2,1.2,0,2.2
								c0.1,0.8,0.4,1.2,0.7,1.4c0.1,0.1,0.2,0.3,0.3,0.4l-0.2,0.1l0.2-0.1c0,0.1,0,0.2-0.1,0.3C75.1,159.8,75.1,159.8,75,159.8
								L75,159.8z M74,158.4c0.1,0.1,0.1,0.2,0.2,0.2c-0.1-0.2-0.2-0.5-0.2-0.9c-0.1-0.8-0.1-1.4,0-1.9c-0.2,0.4-0.5,1-0.5,1.3
								C73.4,157.5,73.7,157.9,74,158.4L74,158.4z"/>
                            <path id="_408603320" class="st4" d="M78.5,159.6c0.6-0.2,1.9-1.7,1.8-2.4s-1-2.5-1-1.9c0.1,0.6,0.2,1.3,0.1,2.5
								C79.2,158.9,78.6,159.2,78.5,159.6z"/>
                            <path id="_408603224" class="st3" d="M79.4,158.6c0.1-0.1,0.1-0.1,0.2-0.2c0.3-0.4,0.6-0.9,0.6-1.2c0-0.3-0.2-0.9-0.5-1.3
								c0.1,0.5,0.1,1.1,0,1.9C79.6,158.1,79.5,158.4,79.4,158.6L79.4,158.6z M79.9,158.6c-0.4,0.5-0.9,1-1.3,1.2c0,0-0.1,0-0.2,0
								c-0.1,0-0.1-0.2-0.1-0.3l0.2,0.1l-0.2-0.1c0.1-0.1,0.2-0.3,0.3-0.4c0.2-0.3,0.5-0.6,0.7-1.4c0.1-1,0-1.7,0-2.2
								c0-0.1,0-0.2,0-0.2c0-0.1,0-0.2,0-0.2c0.1-0.2,0.2-0.2,0.4,0c0.1,0.1,0.1,0.1,0.2,0.3c0.3,0.5,0.7,1.4,0.7,1.9
								C80.5,157.5,80.2,158.1,79.9,158.6L79.9,158.6z"/>
                            <path id="_408603008" class="st3" d="M67.1,190.1c0-0.1-0.1-0.2-0.2-0.2c-0.1,0-0.2,0.1-0.2,0.2c0,1.1-0.5,3.1-1.1,5.3
								c-0.8,2.8-1.8,5.8-2.5,7.8c0,0.1,0,0.2,0.1,0.3c0.1,0,0.2,0,0.3-0.1c0.7-2,1.8-5,2.5-7.8C66.7,193.2,67.1,191.2,67.1,190.1
								L67.1,190.1z"/>
                            <path id="_408603080" class="st3" d="M68.8,192.8c0-0.1-0.1-0.2-0.2-0.2c-0.1,0-0.2,0.1-0.2,0.2c-0.4,3.3-2.6,8.6-2.6,8.6
								c0,0.1,0,0.2,0.1,0.3c0.1,0,0.2,0,0.3-0.1C66.2,201.5,68.4,196.1,68.8,192.8L68.8,192.8z"/>
                            <path id="_408602912" class="st5" d="M76.7,164.4c1,0,2.2,0,2.4-0.8c0.2-0.8,0.2-0.9,1.2-0.7c1,0.2,2.9-0.1,3.8,1.4
								c1,1.5,0.6,1.2,0.4,2.3c-0.2,1-5,9.4-5.9,9c-1-0.4-1.7,0.1-2.4-1c-0.7-1-1.5-3-1.8-4.9c-0.3-1.9-0.1-2.9-0.8-3.7
								c-0.8-0.8-1.7-1.4-2.7-1.5c-1-0.1-1.8,0.2-0.9-0.6c1-0.8,1.6-1.1,2.7-1c1,0.1,1.1,0.4,1.8,0.8
								C75.2,164.2,75.8,164.4,76.7,164.4L76.7,164.4z"/>
                            <path id="_408602672" class="st3" d="M76.7,164.2c0.9,0,2,0,2.2-0.6l0,0l0-0.1l0,0c0.2-0.8,0.3-1,1.4-0.8
								c0.2,0,0.5,0.1,0.8,0.1c1,0.1,2.3,0.1,3.1,1.4c0.8,1.2,0.7,1.4,0.6,1.9c0,0.1-0.1,0.3-0.1,0.5c0,0.1-0.1,0.3-0.2,0.5
								c-0.4,1-1.6,3.2-2.9,5.1c-1.3,2-2.5,3.7-3.1,3.6c0,0,0,0-0.1,0l0,0c-0.3-0.1-0.6-0.2-0.9-0.2c-0.6-0.1-1.1-0.1-1.6-0.8
								c-0.4-0.6-0.8-1.4-1.1-2.3c-0.3-0.8-0.6-1.8-0.7-2.7c-0.1-0.7-0.2-1.2-0.2-1.7c-0.1-0.9-0.1-1.4-0.6-1.9
								c-0.4-0.4-0.8-0.7-1.2-1c-0.4-0.2-0.9-0.4-1.4-0.5c-0.3,0-0.6,0-0.8,0c-0.3,0-0.5,0-0.6-0.1c-0.1-0.2,0-0.4,0.4-0.8
								c0.5-0.4,0.9-0.7,1.4-0.9c0.4-0.2,0.9-0.2,1.4-0.1c0.8,0.1,1,0.3,1.4,0.5c0.1,0.1,0.3,0.2,0.5,0.3c0.4,0.2,0.7,0.3,1,0.4
								C75.9,164.1,76.3,164.2,76.7,164.2L76.7,164.2z M79.3,163.7c-0.2,0.9-1.6,0.9-2.6,0.9c-0.5,0-0.9-0.1-1.3-0.2
								c-0.4-0.1-0.7-0.3-1.1-0.5c-0.2-0.1-0.4-0.2-0.5-0.3c-0.3-0.2-0.6-0.4-1.2-0.5c-0.5-0.1-0.9,0-1.3,0.1
								c-0.4,0.1-0.8,0.4-1.2,0.8c-0.2,0.2-0.4,0.2-0.4,0.2c0,0,0.1,0,0.3,0c0.2,0,0.5,0,0.8,0c0.5,0.1,1,0.2,1.5,0.5
								c0.5,0.3,0.9,0.6,1.3,1.1c0.5,0.6,0.6,1.2,0.7,2.1c0,0.5,0.1,1,0.2,1.6c0.2,0.9,0.4,1.8,0.7,2.6c0.3,0.9,0.7,1.7,1.1,2.2
								c0.4,0.6,0.8,0.6,1.3,0.7c0.3,0,0.7,0.1,1,0.2c0.4,0.1,1.5-1.5,2.7-3.4c1.2-1.9,2.4-4.1,2.8-5.1c0.1-0.2,0.1-0.3,0.1-0.4
								c0-0.2,0.1-0.4,0.2-0.6c0.1-0.4,0.2-0.5-0.5-1.5c-0.7-1.1-1.9-1.1-2.8-1.2c-0.3,0-0.6,0-0.9-0.1
								C79.5,163,79.5,163.1,79.3,163.7L79.3,163.7L79.3,163.7L79.3,163.7L79.3,163.7z M78.7,175.4L78.7,175.4L78.7,175.4
								L78.7,175.4z"/>
                            <path id="_408602744" class="st3" d="M76.5,165.3c0.1,0.1,0.1,0.2,0.2,0.4c0.4,0.6,0.8,1.2,0.8,2.3c0,0.2,0,0.5,0.1,0.7
								c0.1,0.6,0.1,1.1,0,1.5c-0.2,0.4-0.6,0.6-1.4,0.2c-1.6-0.7-1.9-1.6-2.1-2.3v0c0-0.1,0-0.1-0.1-0.2h0
								c-0.1-0.2-0.1-0.4-0.1-0.6c0-0.4-0.1-0.7-0.5-1.2c-0.3-0.3-0.5-0.6-0.5-0.9c-0.1-0.2-0.1-0.4,0-0.6c0.1-0.2,0.2-0.3,0.4-0.4
								c0.1-0.1,0.3-0.1,0.6-0.1c0.6,0,1.1,0.1,1.5,0.3C75.7,164.5,76.1,164.8,76.5,165.3L76.5,165.3L76.5,165.3z M76.4,165.9
								c-0.1-0.1-0.2-0.2-0.2-0.4c-0.4-0.4-0.7-0.7-1.1-0.8c-0.4-0.2-0.8-0.3-1.3-0.3c-0.2,0-0.3,0-0.4,0.1c-0.1,0-0.1,0.1-0.2,0.2
								c0,0.1,0,0.2,0,0.3c0.1,0.2,0.2,0.5,0.5,0.8c0.5,0.6,0.5,1,0.6,1.4c0,0.2,0,0.4,0.1,0.5v0c0,0.1,0,0.1,0.1,0.2h0
								c0.2,0.6,0.4,1.4,1.9,2c0.6,0.3,0.8,0.2,0.9,0c0.1-0.3,0.1-0.8,0-1.3c0-0.2,0-0.5-0.1-0.7C77.1,166.9,76.8,166.4,76.4,165.9
								L76.4,165.9z"/>
                            <path id="_408602576" class="st5" d="M74.6,164.6c1.1,0.1,1.4-0.1,0.9-0.8c-0.5-0.7-0.5-1-1.7-0.9c-1.2,0.1-1.9,0.1-1.1,1
								C73.4,164.7,73.4,164.7,74.6,164.6L74.6,164.6z"/>
                            <path id="_408602456" class="st3" d="M74.6,164.4c0.5,0.1,0.8,0,0.9-0.1c0.1-0.1,0-0.2-0.2-0.5c-0.1-0.1-0.1-0.2-0.2-0.3
								c-0.3-0.4-0.4-0.6-1.3-0.6c-0.6,0-1,0.1-1.2,0.2c-0.1,0.1-0.1,0.2,0.2,0.5c0.6,0.8,0.7,0.8,1.6,0.7
								C74.4,164.4,74.5,164.4,74.6,164.4L74.6,164.4L74.6,164.4L74.6,164.4z M75.7,164.6c-0.2,0.2-0.6,0.2-1.2,0.2
								c-0.1,0-0.1,0-0.2,0c-1.1,0.1-1.1,0.1-1.9-0.8c-0.5-0.6-0.5-0.9-0.1-1.1c0.3-0.2,0.8-0.2,1.4-0.2c1.1-0.1,1.3,0.2,1.7,0.8
								c0.1,0.1,0.1,0.2,0.2,0.3C75.9,164.1,76,164.4,75.7,164.6L75.7,164.6z"/>
                            <path id="_408602312" class="st9"
                                  d="M76.9,165.8h10.6c0,7.2-3.1,24.5-5.3,24.5C80.1,190.3,76.9,173,76.9,165.8z"/>
                            <path id="_408602072" class="st3" d="M76.9,165.6h10.6h0.2v0.2c0,3.9-0.9,10.7-2.1,16.2c-1,4.7-2.3,8.4-3.4,8.4
								c-1.1,0-2.4-3.7-3.4-8.4c-1.2-5.5-2.1-12.3-2.1-16.2v-0.2H76.9z M87.3,166H77.1c0,3.9,0.9,10.6,2.1,15.9c1,4.6,2.1,8.1,3,8.1
								c0.9,0,2-3.6,3-8.1C86.4,176.6,87.3,169.9,87.3,166L87.3,166z"/>
                            <path id="_408602144" class="st3" d="M78.5,167.2H86h0.2v0.2c0,2.6-0.7,8.6-1.6,13.2c-0.7,3.6-1.5,6.3-2.4,6.3
								c-0.8,0-1.7-2.8-2.4-6.3c-0.9-4.6-1.6-10.5-1.6-13.2v-0.2H78.5L78.5,167.2z M85.8,167.6h-7.1c0,2.7,0.7,8.4,1.6,12.9
								c0.7,3.4,1.4,6,2,6c0.6,0,1.3-2.6,2-6C85.1,176,85.7,170.3,85.8,167.6z"/>
                            <path id="_408601976" class="st10" d="M81.4,167.4h1.5v2.8h2.9c0,0.5-0.1,1-0.1,1.5h-2.8v14.3c-0.2,0.5-0.5,0.8-0.7,0.8
								c-0.3,0-0.5-0.3-0.8-0.9v-14.1h-2.7c-0.1-0.5-0.1-1-0.1-1.5h2.8L81.4,167.4L81.4,167.4z"/>
                            <path id="_408601880" class="st3" d="M81.4,167.2h1.5h0.2v0.2v2.6h2.7H86l0,0.2c0,0.2,0,0.4-0.1,0.7c0,0.3,0,0.5-0.1,0.8
								l0,0.2h-0.2h-2.6v14.1v0l0,0c-0.1,0.3-0.3,0.5-0.4,0.6c-0.2,0.2-0.3,0.3-0.5,0.3c-0.2,0-0.4-0.1-0.5-0.3
								c-0.1-0.2-0.3-0.4-0.4-0.7l0,0v0v-13.9h-2.5h-0.2l0-0.2c0-0.2-0.1-0.5-0.1-0.8c0-0.3,0-0.5-0.1-0.7l0-0.2h0.2h2.6v-2.6v-0.2
								L81.4,167.2L81.4,167.2z M82.7,167.6h-1.1v2.6v0.2h-0.2h-2.6c0,0.2,0,0.3,0,0.5c0,0.2,0,0.4,0.1,0.6h2.5h0.2v0.2v14
								c0.1,0.3,0.2,0.5,0.4,0.6c0.1,0.1,0.2,0.2,0.2,0.2c0.1,0,0.1,0,0.2-0.1c0.1-0.1,0.2-0.3,0.3-0.5v-14.2v-0.2h0.2h2.6
								c0-0.2,0-0.4,0.1-0.6c0-0.1,0-0.3,0-0.5h-2.7h-0.2v-0.2L82.7,167.6L82.7,167.6z"/>
                            <path id="_408601712" class="st11" d="M68.4,187.9c0.3,0,0.7-0.2,0.7-0.5l-0.1-5.3c0-0.3-0.2-0.6-0.5-0.6h0
								c-0.3,0-0.5,0.2-0.5,0.6l-0.4,5.3C67.7,187.7,68.1,187.9,68.4,187.9L68.4,187.9z"/>
                            <path id="_408601616" class="st3" d="M68.4,187.7C68.4,187.7,68.4,187.7,68.4,187.7c0.1,0,0.2,0,0.4-0.1
								c0.1-0.1,0.2-0.1,0.2-0.2h0h0l0,0h0c0,0,0,0,0,0v0l-0.1-5.3c0-0.1,0-0.2-0.1-0.3c0-0.1-0.1-0.1-0.2-0.1l0,0h0
								c-0.1,0-0.1,0-0.2,0.1c-0.1,0.1-0.1,0.2-0.1,0.3l-0.4,5.3l0,0c0,0,0,0,0,0v0c0,0.1,0.1,0.2,0.2,0.2
								C68.2,187.7,68.3,187.7,68.4,187.7L68.4,187.7C68.4,187.7,68.4,187.7,68.4,187.7L68.4,187.7z M68.4,188.1L68.4,188.1
								C68.4,188.1,68.4,188.1,68.4,188.1L68.4,188.1c-0.2,0-0.4-0.1-0.6-0.2c-0.2-0.1-0.3-0.3-0.3-0.5l0,0c0,0,0,0,0,0v0l0.4-5.3
								c0-0.2,0.1-0.4,0.2-0.5c0.1-0.1,0.3-0.2,0.5-0.2l0,0h0h0c0.2,0,0.4,0.1,0.5,0.2c0.1,0.1,0.2,0.3,0.2,0.5l0.1,5.3l0,0l0,0
								l-0.2,0l0.2,0c0,0.2-0.2,0.4-0.4,0.5C68.8,188.1,68.6,188.1,68.4,188.1L68.4,188.1z"/>
                            <path id="_408601448" class="st11"
                                  d="M68.1,180.9l0.9,0c0.1-2.9,0.8-30.7,0.2-30.7C68.5,150.2,68.1,178,68.1,180.9z"/>
                            <path id="_408601352" class="st3" d="M68.3,180.7l0.5,0c0-0.3,0-0.9,0-1.6c0-1.8,0.1-4.7,0.2-7.9c0.2-9,0.4-20.8,0.1-20.8
								c-0.3,0-0.5,11.9-0.7,20.8c-0.1,3.3-0.1,6.1-0.1,7.9C68.3,179.8,68.3,180.4,68.3,180.7L68.3,180.7z M69,181.1l-0.9,0l-0.2,0
								l0-0.2c0-0.3,0-0.9,0-1.8c0-1.8,0.1-4.7,0.1-7.9c0.2-9.1,0.5-21.2,1.1-21.2c0.6,0,0.4,12.1,0.2,21.2
								c-0.1,3.3-0.1,6.1-0.2,7.9c0,0.8,0,1.5,0,1.8l0,0.2L69,181.1z"/>
                            <path id="_408601184" class="st11" d="M68.6,180.4c1.1,0,1.9,0.8,1.9,1.7l0,0.1l-3.9-0.1l0-0.1
								C66.6,181.1,67.5,180.4,68.6,180.4L68.6,180.4z"/>
                            <path id="_408601088" class="st3" d="M68.6,180.2c0.6,0,1.1,0.2,1.5,0.6c0.4,0.3,0.6,0.8,0.6,1.3v0l0,0.1l0,0.2l-0.2,0
								l-3.9-0.1l-0.2,0l0-0.2l0-0.1v0c0-0.5,0.3-1,0.7-1.3C67.4,180.4,68,180.2,68.6,180.2L68.6,180.2z M69.8,181
								c-0.3-0.3-0.8-0.5-1.2-0.5c-0.5,0-0.9,0.1-1.3,0.4c-0.3,0.2-0.5,0.6-0.5,0.9l3.5,0.1C70.3,181.6,70.1,181.3,69.8,181
								L69.8,181z"/>
                            <path id="_408600920" class="st12" d="M69.4,184.5c0.6-0.5,1.4-1,1-1.7c-0.4-0.7-0.9-0.7-1.7-0.6c-0.7,0.1-1.5,0.5-1.3,1
								c0.2,0.5,1,0.3,0.7,1s-0.4,1.2,0.2,1.3C69,185.6,69,185,69.4,184.5L69.4,184.5z"/>
                            <path id="_408600752" class="st3" d="M69.3,184.4c0.1-0.1,0.2-0.2,0.3-0.2h0c0.5-0.4,0.9-0.8,0.7-1.2
								c-0.2-0.3-0.4-0.5-0.6-0.5c-0.2-0.1-0.5-0.1-0.9,0h0c-0.2,0-0.5,0.1-0.7,0.2c-0.2,0.1-0.3,0.2-0.4,0.3
								c-0.1,0.1-0.1,0.2-0.1,0.2h0c0,0,0,0,0,0.1c0.1,0.1,0.2,0.2,0.3,0.3c0.3,0.2,0.6,0.3,0.3,0.8c-0.1,0.2-0.2,0.4-0.2,0.6
								c0,0.1,0,0.2,0,0.3c0,0.1,0.1,0.1,0.1,0.1c0,0,0.1,0,0.1,0c0.3,0,0.3-0.1,0.5-0.3C69,184.8,69.1,184.6,69.3,184.4L69.3,184.4
								L69.3,184.4z M69.8,184.5L69.8,184.5c-0.1,0.1-0.2,0.2-0.3,0.2l0,0c-0.1,0.1-0.2,0.3-0.3,0.5c-0.2,0.3-0.3,0.6-0.9,0.5
								c-0.1,0-0.2,0-0.3-0.1c-0.2-0.1-0.3-0.2-0.3-0.4c0-0.1-0.1-0.3,0-0.5c0-0.2,0.1-0.5,0.2-0.7c0.1-0.2,0-0.3-0.2-0.3
								c-0.2-0.1-0.4-0.2-0.5-0.5c0-0.1,0-0.1-0.1-0.2v0c0-0.2,0-0.4,0.2-0.5c0.1-0.1,0.3-0.3,0.5-0.3c0.2-0.1,0.5-0.2,0.8-0.2l0,0
								c0.4,0,0.7-0.1,1,0c0.3,0.1,0.6,0.3,0.8,0.7C71,183.5,70.4,184,69.8,184.5L69.8,184.5z"/>
                            <path id="_406193664" class="st13" d="M74.9,214.6c-0.1,0.5-0.1,0.9-1.7,1.8s-2.1,1.4-2.2,0.1s0.2-1.4,1-2
								c0.8-0.6,1.3-0.9,2.1-0.7C74.8,214.1,74.6,213.7,74.9,214.6L74.9,214.6z"/>
                            <path id="_406192320" class="st3" d="M75.1,214.6L75.1,214.6c-0.1,0.6-0.2,1-1.8,2c-0.2,0.1-0.4,0.2-0.5,0.3
								c-0.6,0.3-1,0.6-1.3,0.6c-0.4,0-0.6-0.2-0.7-1c-0.1-1.3,0.2-1.5,0.9-2c0.1,0,0.1-0.1,0.2-0.1c0.4-0.3,0.7-0.5,1.1-0.7
								c0.4-0.1,0.7-0.2,1.2,0c0.2,0.1,0.4,0.1,0.5,0.1c0.1,0,0.2,0,0.3,0.1c0.1,0.1,0.1,0.2,0.2,0.5
								C75,214.4,75.1,214.5,75.1,214.6L75.1,214.6L75.1,214.6L75.1,214.6z M73.1,216.3c1.5-0.8,1.6-1.2,1.6-1.6
								c0-0.1,0-0.2-0.1-0.2c-0.1-0.2-0.1-0.3-0.1-0.3c0,0,0,0-0.1,0c-0.1,0-0.3,0-0.5-0.1c-0.4-0.1-0.6-0.1-0.9,0
								c-0.3,0.1-0.6,0.3-1,0.6c-0.1,0.1-0.1,0.1-0.2,0.1c-0.6,0.4-0.9,0.6-0.8,1.7c0,0.5,0.1,0.6,0.3,0.6c0.2,0,0.6-0.2,1.1-0.5
								C72.7,216.5,72.9,216.3,73.1,216.3L73.1,216.3z"/>
                            <path id="_406199496" class="st14" d="M73,214.1c-0.7,0.7-1.4,1.6-0.7,1.7c0.7,0.1,1.1,0.3,1.6-0.4c0.5-0.7,0.9-1.2,0.1-1.3
								C73.1,214,73.5,213.8,73,214.1L73,214.1z"/>
                            <path id="_406197264" class="st3" d="M73.1,214.2c-0.3,0.3-0.7,0.7-0.8,1c-0.1,0.2-0.1,0.3,0,0.3c0.1,0,0.2,0,0.2,0
								c0.5,0.1,0.8,0.1,1.1-0.4c0.1-0.1,0.1-0.2,0.2-0.3c0.2-0.3,0.3-0.5,0.3-0.6c0-0.1-0.1-0.1-0.3-0.1c-0.4,0-0.5-0.1-0.6-0.2
								c0,0,0,0,0,0C73.3,214.1,73.3,214.1,73.1,214.2L73.1,214.2L73.1,214.2z M71.9,215.1c0.2-0.3,0.6-0.8,0.9-1.1l0,0l0,0l0,0
								c0.2-0.1,0.3-0.2,0.4-0.2c0.1,0,0.1,0,0.2,0c0.1,0,0.2,0.1,0.5,0.1c0.5,0.1,0.7,0.3,0.6,0.6c0,0.2-0.2,0.5-0.4,0.8
								c-0.1,0.1-0.1,0.2-0.2,0.2c-0.5,0.7-0.9,0.7-1.5,0.6c-0.1,0-0.1,0-0.2,0C71.7,215.9,71.7,215.5,71.9,215.1L71.9,215.1z"/>
                            <path id="_405488232" class="st13" d="M78.8,214.5c0.1,0.5,0.1,0.9,1.7,1.8c1.6,0.9,1.6,1,2.5,0.5c0.9-0.5-0.5-1.8-1.3-2.4
								c-0.8-0.6-1.3-0.9-2.1-0.7C78.9,214,79.1,213.5,78.8,214.5L78.8,214.5z"/>
                            <path id="_408694552" class="st3" d="M78.7,214.5L78.7,214.5L78.7,214.5l0-0.1c0-0.1,0-0.2,0.1-0.2c0.1-0.3,0.1-0.4,0.2-0.5
								c0.1-0.1,0.2-0.1,0.3-0.1c0.1,0,0.2,0,0.5-0.1c0.5-0.1,0.8-0.1,1.2,0c0.3,0.1,0.7,0.4,1.1,0.7c0.5,0.3,1.1,0.9,1.5,1.5
								c0.1,0.2,0.2,0.3,0.2,0.5c0,0.2,0,0.4-0.1,0.5c-0.1,0.1-0.1,0.2-0.3,0.2h0c-0.9,0.5-1,0.5-2.2-0.2c-0.1-0.1-0.3-0.2-0.5-0.3
								C78.8,215.5,78.7,215.1,78.7,214.5L78.7,214.5z M79,214.5c0.1,0.4,0.2,0.8,1.6,1.6c0.2,0.1,0.3,0.2,0.5,0.3
								c1,0.6,1.1,0.6,1.8,0.2l0,0c0.1,0,0.1-0.1,0.1-0.1c0-0.1,0.1-0.1,0.1-0.2c0-0.1-0.1-0.2-0.1-0.4c-0.3-0.5-0.9-1-1.3-1.4
								c-0.4-0.3-0.7-0.5-1-0.6c-0.3-0.1-0.6-0.1-0.9,0c-0.3,0.1-0.4,0.1-0.5,0.1c0,0,0,0-0.1,0c0,0,0,0.1-0.1,0.3
								C79.1,214.3,79.1,214.4,79,214.5L79,214.5z"/>
                            <path id="_408695848" class="st14" d="M80.8,214c0.7,0.7,1.4,1.6,0.7,1.7c-0.7,0.1-1.1,0.3-1.6-0.4c-0.5-0.7-0.9-1.2-0.1-1.3
								C80.6,213.9,80.2,213.6,80.8,214L80.8,214z"/>
                            <path id="_408695152" class="st3" d="M80.9,213.8c0.3,0.4,0.7,0.8,0.9,1.1c0.3,0.5,0.3,0.8-0.3,0.9c-0.1,0-0.2,0-0.2,0
								c-0.7,0.1-1.1,0.2-1.5-0.6c-0.1-0.1-0.1-0.2-0.2-0.2c-0.2-0.3-0.4-0.6-0.4-0.8c0-0.3,0.1-0.5,0.6-0.6c0.3,0,0.4-0.1,0.5-0.1
								c0.1,0,0.1,0,0.2,0C80.5,213.6,80.6,213.6,80.9,213.8L80.9,213.8L80.9,213.8L80.9,213.8L80.9,213.8z M81.5,215.1
								c-0.2-0.3-0.5-0.7-0.8-1l0,0c-0.1-0.1-0.2-0.1-0.2-0.1c0,0,0,0,0,0c-0.1,0-0.2,0.1-0.6,0.2c-0.2,0-0.3,0.1-0.3,0.1
								c0,0.1,0.2,0.3,0.3,0.6c0.1,0.1,0.1,0.2,0.2,0.3c0.3,0.5,0.6,0.5,1.1,0.4c0.1,0,0.2,0,0.2,0
								C81.6,215.5,81.6,215.3,81.5,215.1L81.5,215.1z"/>
                            <path id="_408696448" class="st3" d="M71.7,191.9c0.2,0,0.3,0.1,0.4,0.2c0.1,0.1,0.2,0.2,0.2,0.4c0,0.2-0.1,0.3-0.2,0.4
								c-0.1,0.1-0.2,0.2-0.4,0.2s-0.3-0.1-0.4-0.2c-0.1-0.1-0.2-0.2-0.2-0.4c0-0.2,0.1-0.3,0.2-0.4
								C71.4,191.9,71.6,191.9,71.7,191.9z M71.8,192.3c0,0-0.1,0-0.1,0c0,0-0.1,0-0.1,0c0,0,0,0.1,0,0.1c0,0,0,0.1,0,0.1
								c0,0,0.1,0,0.1,0s0.1,0,0.1,0c0,0,0-0.1,0-0.1C71.9,192.4,71.9,192.3,71.8,192.3z"/>
                            <path id="_408696304" class="st3" d="M72.3,194.6c0.1,0,0.3,0.1,0.3,0.1l0,0c0.1,0.1,0.1,0.2,0.1,0.3c0,0.1-0.1,0.3-0.1,0.3
								v0c-0.1,0.1-0.2,0.1-0.3,0.1c-0.1,0-0.3-0.1-0.3-0.1c-0.1-0.1-0.1-0.2-0.1-0.3c0-0.1,0.1-0.3,0.1-0.3h0
								C72,194.7,72.2,194.6,72.3,194.6L72.3,194.6z M72.4,195L72.4,195C72.3,195,72.3,195,72.4,195c-0.1,0-0.1,0-0.1,0l0,0
								c0,0,0,0,0,0.1c0,0,0,0,0,0.1c0,0,0,0,0.1,0c0,0,0,0,0.1,0l0,0C72.4,195.1,72.4,195.1,72.4,195C72.4,195.1,72.4,195,72.4,195
								z"/>
                            <path id="_408696184" class="st3" d="M80.4,195.1c0.1,0,0.3,0.1,0.3,0.1c0.1,0.1,0.1,0.2,0.1,0.3c0,0.1-0.1,0.3-0.1,0.3v0
								c-0.1,0.1-0.2,0.1-0.3,0.1c-0.1,0-0.3-0.1-0.3-0.1c-0.1-0.1-0.1-0.2-0.1-0.3c0-0.1,0.1-0.3,0.1-0.3l0,0
								C80.1,195.2,80.2,195.1,80.4,195.1L80.4,195.1z M80.4,195.5C80.4,195.5,80.4,195.5,80.4,195.5c-0.1,0-0.1,0-0.1,0h0
								c0,0,0,0,0,0.1c0,0,0,0.1,0,0.1c0,0,0,0,0.1,0c0,0,0.1,0,0.1,0l0,0C80.5,195.7,80.5,195.6,80.4,195.5
								C80.5,195.6,80.5,195.6,80.4,195.5L80.4,195.5z"/>
						</g>
                        <g id="g210">
							<path id="_206846368" class="st0" d="M78,155.4c0.5,0,0.9,0.1,0.9,0.2c0,0.1-0.4,0-0.8,0s-0.8,0.1-0.9,0
								C77.1,155.5,77.6,155.4,78,155.4z"/>
                            <path id="_405652416" class="st3" d="M76.5,155.6c0,0-0.1,0-0.1,0c0,0,0,0.1,0,0.1c0,0,0.1,0.1,0.1,0.1
								c0,0.1,0.1,0.2,0.1,0.4c0,0.2-0.1,0.5-0.2,0.8c-0.1,0.2-0.2,0.4-0.1,0.5c0,0,0.1,0.1,0.1,0c0,0,0.1-0.1,0-0.1
								c0,0,0-0.2,0.1-0.3c0.1-0.2,0.2-0.6,0.2-0.8c0-0.3,0-0.4-0.1-0.5C76.6,155.7,76.6,155.6,76.5,155.6z"/>
                            <path id="_212050776" class="st3" d="M76.5,157.5c0,0-0.1,0-0.1,0c0,0,0,0.1,0,0.1c0.1,0,0.2,0.1,0.3,0.1
								c0.1,0,0.2,0,0.3-0.1c0,0,0-0.1,0-0.1c0,0-0.1,0-0.1,0c0,0-0.1,0.1-0.2,0.1C76.7,157.6,76.6,157.5,76.5,157.5z"/>
                            <path id="_212046200" class="st0" d="M75.5,155.9c0.4,0,0.8,0,0.8,0.1s-0.1,0.4-0.5,0.4c-0.4,0-1-0.3-1-0.4
								S75,155.9,75.5,155.9z"/>
                            <path id="_406300832" class="st0" d="M78.1,155.9c-0.4,0-0.8,0-0.8,0.1s0.1,0.4,0.5,0.4c0.4,0,1-0.3,1-0.4
								S78.5,155.9,78.1,155.9z"/>
                            <path id="_406296728" class="st0" d="M75.4,155.4c-0.5,0-0.9,0.1-0.9,0.2c0,0.1,0.4,0,0.8,0c0.5,0,0.8,0.1,0.9,0
								C76.3,155.5,75.9,155.4,75.4,155.4z"/>
                            <path id="_406296776" class="st0" d="M77,158.4c-0.2,0-0.2,0-0.3,0c-0.1,0-0.1,0-0.3,0c-0.2,0-0.7,0-0.7,0.1s0.5,0.3,0.9,0.3
								c0,0,0.1,0,0.1,0c0,0,0,0,0.1,0c0.4,0,0.9-0.3,0.9-0.3C77.7,158.5,77.2,158.4,77,158.4L77,158.4z"/>
						</g>
					</g>
				</g>
			</g>
		</g>
	</g>
</g>
</svg>
