<?xml version="1.0" encoding="utf-8"?>
<!-- Generator: Adobe Illustrator 25.0.0, SVG Export Plug-In . SVG Version: 6.00 Build 0)  -->
<svg version="1.1"
	 id="svg2" xmlns:cc="http://creativecommons.org/ns#" xmlns:dc="http://purl.org/dc/elements/1.1/" xmlns:rdf="http://www.w3.org/1999/02/22-rdf-syntax-ns#" xmlns:svg="http://www.w3.org/2000/svg"
	 xmlns="http://www.w3.org/2000/svg" xmlns:xlink="http://www.w3.org/1999/xlink" x="0px" y="0px" width="95px" height="135px"
	 viewBox="0 0 95 135" style="enable-background:new 0 0 95 135;" xml:space="preserve">
<style type="text/css">
	.st0{fill:none;}
	.st1{fill:none;}
	.st2{fill:#1D1D1B;}
	.st3{fill:#C6C4C9;}
	.st4{fill:#FDC137;}
	.st5{fill:#E82B1F;}
	.st6{fill:#F1B738;}
	.st7{fill:#B8C0C2;}
	.st8{fill:#BBBFC2;}
	.st9{fill:#DBA737;}
	.st10{fill:#CAB08F;}
	.st11{fill:#766841;}
	.st12{fill:#E32E26;}
	.st13{fill:#ECB938;}
	.st14{fill:#E72C2E;}
	.st15{fill:#4E503A;}
	.st16{fill:#CAB296;}
	.st17{fill:#19172A;}
	.st18{fill:#C99A54;}
</style>
<g id="Layer_x0020_1">
	<g id="g18">
		<path id="_408610960" class="st0" d="M71.7,36.7c-4.1-1.2-12-3.9-24.4-3.9S28,35.3,23.9,36.4l-0.7-1.2l1.7-2.3l-4.3-9.6l-3-2.3
			l-2.2-0.4l-4.4-10L9.4,9.7L9.1,8.6L27.8,4L34.1,9l0,0.9l-0.9,0.7l2.8,9.4l6.3-0.6l-2.5-3.3L38.6,16L36.2,5.4L35,4.5l-0.4-1.2
			C42.9,2,51.2,1.9,59.9,3l-0.3,1.2l-1.3,0.9l-2.2,10.5l-1.3,0.3l-2.7,3.5l6.2,0.6l3-9.5L60,9.9l-0.2-1l6.6-4.9l19.3,4.7l-0.8,1.2
			l-1.7,0.8l-3.7,10l-2.3,0.2l-2.9,1.8l-4.2,9.9l1.9,2.5L71.7,36.7L71.7,36.7z"/>
		<path id="_408610864" d="M71.6,36.9c-0.2-0.1-0.5-0.1-0.7-0.2c-4.2-1.3-11.9-3.6-23.6-3.6c-11,0-17.5,1.9-21.8,3.1
			c-0.6,0.2-1.1,0.3-1.6,0.5l-0.2,0.1l-0.1-0.2l-0.7-1.2l-0.1-0.1l0.1-0.1l1.6-2.2l-4.3-9.5l-2.9-2.2l-2.2-0.4l-0.1,0l0-0.1
			l-4.4-9.9L9.3,9.9l-0.1,0l0-0.1L8.8,8.6L8.8,8.4L9,8.4l18.8-4.6l0.1,0L28,3.8l6.3,5.1l0.1,0.1l0,0.1l0,0.9l0,0.1l-0.1,0.1
			l-0.8,0.6l2.7,9.1l5.7-0.6l-2.2-2.9l-1.1-0.2l-0.2,0l0-0.2L36,5.5l-1.2-0.9l-0.1,0l0-0.1l-0.4-1.2l-0.1-0.2l0.3,0
			c4.1-0.6,8.3-1,12.5-1C51.3,2,55.6,2.2,60,2.7l0.3,0L60.2,3l-0.3,1.2l0,0.1l-0.1,0l-1.2,0.9l-2.2,10.4l0,0.1l-0.2,0l-1.3,0.3
			l-2.4,3.1l5.6,0.6l2.9-9.2l-1.1-0.5L59.8,10l0-0.1l-0.2-1l0-0.1l0.1-0.1l6.6-4.9l0.1-0.1l0.1,0l19.3,4.7l0.3,0.1l-0.2,0.2L85.3,10
			l0,0.1l-0.1,0l-1.6,0.7l-3.7,9.9l-0.1,0.1l-0.2,0L77.4,21l-2.8,1.7l-4.1,9.7l1.9,2.4l0.1,0.1l0,0.1L72,36.7L71.9,37
			C71.9,37,71.6,36.9,71.6,36.9z M71.1,36.3l0.4,0.1l0.3-1.4L70,32.6l-0.1-0.1l0-0.1l4.2-9.9l0-0.1l0.1,0l2.9-1.8l0.1,0l0.1,0
			l2.2-0.2l3.7-9.9l0-0.1l0.1,0l1.6-0.7l0.6-0.9L66.6,4.2l-6.4,4.7l0.1,0.8l1.1,0.5l0.2,0.1l-0.1,0.2l-3,9.5l-0.1,0.2l-0.2,0
			L52,19.6l-0.4,0l0.2-0.3l2.7-3.5l0.1-0.1l0.1,0l1.2-0.3l2.2-10.3l0-0.1l0.1-0.1l1.2-0.9l0.2-0.9c-4.3-0.5-8.4-0.7-12.5-0.7
			c-4.1,0-8.1,0.4-12.2,1l0.3,0.9l1.2,0.9l0.1,0.1l0,0.1l2.4,10.4l1.1,0.1l0.1,0l0.1,0.1l2.5,3.3l0.2,0.3l-0.4,0l-6.3,0.6l-0.2,0
			l-0.1-0.2L33,10.7l0-0.1l0.1-0.1l0.8-0.6l0-0.7l-6.1-4.9L9.4,8.7l0.3,0.8l1.4,0.8l0.1,0l0,0.1l4.4,9.9l2.1,0.4l0.1,0l0.1,0l3,2.3
			l0,0l0,0l4.3,9.6l0,0.1L25,33l-1.6,2.2l0.5,1c0.5-0.1,0.9-0.3,1.4-0.4c4.3-1.2,10.9-3.2,21.9-3.2C59.1,32.6,66.8,35,71.1,36.3
			L71.1,36.3z"/>
		<path id="_408610792" d="M23,35c1-0.4,5.4-1.9,11.7-3c3.7-0.6,8-1.1,12.6-1.1c12.5,0,25.1,3.9,25.1,3.9l-0.2,0.4
			c0,0-12.5-3.8-24.9-3.8c-4.6,0-8.9,0.5-12.5,1.1c-6.2,1-10.5,2.5-11.5,2.9L23,35z"/>
		<path id="_408610720" d="M24.8,32.6c1-0.4,5-1.6,10.6-2.4c3.5-0.5,7.6-0.9,11.9-0.9h0c11.4-0.1,23.1,2.9,23.2,2.9l-0.1,0.4
			c0,0-11.7-3-23-2.9c-4.3,0-8.4,0.4-11.8,0.9C29.9,31.4,26,32.5,25,33L24.8,32.6z"/>
		<path id="_408610648" d="M23.5,29.6c1-0.4,5.1-1.6,11.1-2.5c3.6-0.5,8-0.9,12.7-0.9c12.5,0,24.2,2.8,24.2,2.8l-0.1,0.4
			c0,0-11.6-2.8-24.1-2.8c-4.7,0-9,0.4-12.6,0.9c-5.9,0.8-10,2-10.9,2.5L23.5,29.6L23.5,29.6z"/>
		<path id="_408610576" d="M22.1,26.3c1-0.4,5.7-1.8,12-2.8c3.8-0.6,8.3-1,13-1c12.5,0,25.8,3.1,25.9,3.1L72.9,26
			c0,0-13.3-3.1-25.8-3.1c-4.7,0-9.1,0.4-12.9,1c-6.3,1-10.9,2.3-11.9,2.7C22.3,26.7,22.1,26.3,22.1,26.3z"/>
		<path id="_408610504" d="M20.6,23.1c0.7-0.3,3.2-1,6.9-1.8c2.5-0.5,5.4-1,8.6-1.5l0.1,0.4c-3.2,0.4-6.1,0.9-8.5,1.4
			c-3.6,0.8-6.1,1.5-6.8,1.8L20.6,23.1z M42.3,19.2c0.8,0,1.6-0.1,2.4-0.1c0.8,0,1.6,0,2.4,0c0.5,0,0.8,0,1.1,0c1.3,0,2.6,0,4,0.1
			l0,0.4c-1.3-0.1-2.6-0.1-3.9-0.1c-0.4,0-0.9,0-1.1,0c-0.8,0-1.6,0-2.4,0c-0.8,0-1.6,0.1-2.4,0.1C42.4,19.6,42.3,19.2,42.3,19.2z
			 M58.3,19.7c8.7,1,16.1,2.6,16.1,2.6l-0.1,0.4c0,0-7.4-1.6-16.1-2.6C58.2,20.2,58.3,19.7,58.3,19.7z"/>
		<polygon id="_408610432" points="33.3,23.9 32.8,24 31.9,20.8 32.4,20.7 		"/>
		<polygon id="_408610360" points="47.3,22.7 46.8,22.7 46.7,19.3 47.2,19.3 		"/>
		<polygon id="_408610288" points="47.3,29.7 46.8,29.7 46.7,26.3 47.2,26.3 		"/>
		<polygon id="_408610216" points="47.3,15.2 46.8,15.2 46.7,11.7 47.2,11.7 		"/>
		<polygon id="_408610144" points="47.2,8 46.7,8 46.7,4.6 47.2,4.6 		"/>
		<polygon id="_408610072" points="27.5,28.5 27,28.6 26,25.5 26.4,25.3 		"/>
		<polygon id="_408610000" points="40.5,26.5 40,26.6 39.5,23.2 40,23.2 		"/>
		<polygon id="_408609928" points="35.3,30.3 34.8,30.4 34,27.5 34.4,27.3 		"/>
		<polygon id="_408609856" points="23.1,18.9 22.6,19 21.4,15.4 21.9,15.2 		"/>
		<polygon id="_408609784" points="16.7,16.3 16.2,16.5 15,13.4 15.4,13.3 		"/>
		<polygon id="_408609712" points="26.9,13.8 26.4,13.9 25.4,10.6 25.9,10.5 		"/>
		<polygon id="_408609496" points="20.5,11.7 20,11.8 19,8.7 19.4,8.6 		"/>
		<polygon id="_408609568" points="29.8,16.7 29.9,16.7 30,16.7 35.9,19.6 35.7,20 29.8,17.2 15.7,20.8 15.6,20.3 		"/>
		<polyline id="_408609400" class="st1" points="34.9,16.6 28.9,13.5 14.1,17.2 		"/>
		<polygon id="_408609304" points="28.9,13.7 14.2,17.4 14,17 28.9,13.3 29,13.2 29.1,13.3 35.1,16.5 34.8,16.8 		"/>
		<polygon id="_408609232" points="27.9,9.8 28,9.8 28.1,9.8 34.2,13.4 33.9,13.8 28,10.3 12.4,14.1 12.3,13.7 		"/>
		<polygon id="_408609160" points="27.1,6.8 11,10.8 10.9,10.4 27.1,6.4 27.2,6.3 27.3,6.4 33.4,10.5 33.1,10.9 		"/>
		<polygon id="_408609088" points="27.7,5 27.8,5 27.9,5.1 34.1,9.7 33.8,10.1 27.7,5.5 9.7,9.9 9.6,9.5 		"/>
		<polygon id="_408609016" points="28.1,5.3 28.1,5.4 28.1,5.4 27.3,6.7 30.1,17.1 30.2,17.1 30.1,17.2 28.3,21.4 27.8,21.2
			29.6,17.1 26.8,6.7 26.8,6.6 26.8,6.5 27.6,5.3 27.6,4.1 28.1,4.1 		"/>
		<polygon id="_408608944" points="61.8,23.8 61.3,23.7 62.2,20.5 62.7,20.6 		"/>
		<polygon id="_408277880" points="67.6,28.3 67.1,28.2 68.2,25 68.6,25.2 		"/>
		<polygon id="_408277808" points="54.6,26.5 54.1,26.5 54.6,23.1 55.1,23.2 		"/>
		<polygon id="_408277736" points="59.8,30.3 59.3,30.2 60.2,27.2 60.6,27.3 		"/>
		<polygon id="_408277664" points="32.4,15 32,15.1 31.2,12.1 31.7,12 		"/>
		<polygon id="_408277592" points="71.7,18.7 71.3,18.6 72.4,15.2 72.9,15.4 		"/>
		<polygon id="_408277520" points="78.1,16.5 77.6,16.3 78.6,13.3 79.1,13.4 		"/>
		<polygon id="_408277448" points="67.9,14.1 67.4,14 68.4,10.5 68.9,10.6 		"/>
		<polygon id="_408277376" points="74.3,11.8 73.8,11.7 74.8,8.6 75.3,8.7 		"/>
		<polygon id="_408277304" points="64.5,17.2 58.6,20 58.3,19.6 64.3,16.7 64.4,16.7 64.5,16.7 79.5,20.2 79.4,20.6 		"/>
		<polygon id="_408277232" points="65.4,13.3 65.4,13.3 65.5,13.3 80.7,17.1 80.6,17.6 65.5,13.8 59.5,16.8 59.2,16.5 		"/>
		<polygon id="_408277160" points="66.5,10.3 60.3,13.8 60.1,13.4 66.3,9.8 66.4,9.8 66.5,9.8 82,13.7 81.9,14.1 		"/>
		<polygon id="_408277088" points="67,6.4 67.1,6.3 67.2,6.4 83.4,10.4 83.3,10.8 67.2,6.8 61.2,10.9 60.9,10.5 		"/>
		<polygon id="_408277016" points="66.6,5.5 60.4,10.1 60,9.7 66.4,5.1 66.5,5 66.6,5 84.9,9.6 84.8,10 		"/>
		<polygon id="_408276944" points="66.7,5.3 67.5,6.5 67.5,6.6 67.5,6.7 64.6,17.1 66.4,20.9 65.9,21 64.1,17.2 64.1,17.1
			64.1,17.1 67,6.7 66.2,5.4 66.2,5.4 66.2,5.3 66.2,4.1 66.7,4.1 		"/>
		<polygon id="_408276872" points="62.2,15.5 61.7,15.4 62.6,12 63,12.1 		"/>
		<path id="_408276800" d="M38.8,15.7c2.5-0.5,5.4-0.8,8.5-0.8c2.8-0.1,5.8,0.1,8.7,0.5l-0.1,0.4c-2.9-0.4-5.9-0.6-8.6-0.5
			c-3,0.1-5.9,0.4-8.4,0.8L38.8,15.7z"/>
		<path id="_408276728" d="M37.9,12.3c2.7-0.5,5.8-0.7,9-0.7c3.1,0,6.5,0.2,9.9,0.6l-0.1,0.4C53.3,12.2,50,12,46.9,12
			c-3.2,0-6.2,0.3-8.9,0.7C38,12.7,37.9,12.3,37.9,12.3z"/>
		<path id="_408276656" d="M37,8.6c3-0.5,6.3-0.7,9.8-0.7c3.4,0,7,0.2,10.8,0.6l-0.1,0.4c-3.7-0.4-7.3-0.6-10.7-0.6
			c-3.5,0-6.8,0.3-9.7,0.7C37.1,9.1,37,8.6,37,8.6z"/>
		<path id="_408276584" d="M36.2,5.1c3.3-0.5,7-0.8,10.9-0.8c3.6,0,7.5,0.1,11.4,0.5l-0.1,0.4c-3.9-0.4-7.7-0.6-11.3-0.5
			c-3.9,0.1-7.6,0.3-10.8,0.8L36.2,5.1z"/>
		<path id="_408276512" d="M35.1,4.3c3.8-0.6,7.6-0.9,11.6-0.9c4,0,8.2,0.2,12.7,0.6l-0.1,0.4C55,3.9,50.8,3.7,46.8,3.7
			c-4,0-7.8,0.3-11.5,0.9C35.2,4.7,35.1,4.3,35.1,4.3z"/>
		<polygon id="_408276416" points="54.3,12 53.8,11.9 54.3,8.5 54.8,8.6 		"/>
		<polygon id="_408276368" points="40.7,12.1 40.2,12.1 39.8,8.7 40.3,8.7 		"/>
	</g>
	<g id="g69">
		<path id="_408276200" class="st1" d="M2.2,37h90.6v56.4c0,21.7-20.4,39.4-45.3,39.4l0,0c-24.9,0-45.3-17.7-45.3-39.4
			C2.2,93.4,2.2,37,2.2,37z"/>
		<path id="_408276104" class="st2" d="M2.2,36.8h90.6H93V37v56.4c0,10.9-5.1,20.8-13.4,28C71.4,128.5,60,133,47.5,133
			s-23.9-4.5-32.1-11.6C7.1,114.2,2,104.3,2,93.4V37v-0.2L2.2,36.8L2.2,36.8z M92.6,37.2H2.4v56.2c0,10.8,5.1,20.6,13.2,27.7
			c8.2,7.1,19.4,11.5,31.8,11.5c12.4,0,23.7-4.4,31.8-11.5c8.2-7.1,13.2-16.9,13.2-27.7L92.6,37.2L92.6,37.2z"/>
		<g id="g73">
			<g id="g75">
				<polygon id="_408275936" class="st3" points="31.2,65.4 14.9,65.4 14.9,47 12.5,45.4 12.5,42.1 17.2,42.1 17.2,44.1 20.7,44.1
					20.7,42.1 25.4,42.1 25.4,44.1 28.9,44.1 28.9,42.1 33.5,42.1 33.5,45.4 31.2,47 				"/>
				<path id="_408275840" d="M31.4,47.1v18.3v0.2h-0.2H14.9h-0.2v-0.2V47.1l-2.2-1.6l-0.1-0.1v-0.1v-3.2v-0.2h0.2h4.6h0.2v0.2v1.7
					h3.1v-1.7v-0.2h0.2h4.6h0.2v0.2v1.7h3.1v-1.7v-0.2h0.2h4.6h0.2v0.2v3.2v0.1l-0.1,0.1L31.4,47.1L31.4,47.1z M31,65.2V47v-0.1
					l0.1-0.1l2.2-1.6v-3h-4.2v1.7v0.2h-0.2h-3.5h-0.2v-0.2v-1.7h-4.2v1.7v0.2h-0.2h-3.5H17v-0.2v-1.7h-4.2v3l2.2,1.6l0.1,0.1V47
					v18.2C15.1,65.2,31,65.2,31,65.2z"/>
				<g id="g79">
					<path id="_408275672" d="M23,49.9L23,49.9c0.4,0,0.7,0.3,0.7,0.6v3.4h-1.4v-3.4C22.3,50.1,22.7,49.9,23,49.9z"/>
					<path id="_408275504" d="M26.2,49.9L26.2,49.9c0.4,0,0.7,0.3,0.7,0.6v3.4h-1.4v-3.4C25.5,50.1,25.8,49.9,26.2,49.9z"/>
					<path id="_408275336" d="M19.8,49.9L19.8,49.9c0.4,0,0.7,0.3,0.7,0.6v3.4h-1.4v-3.4C19.2,50.1,19.5,49.9,19.8,49.9z"/>
					<path id="_408275168" d="M24.6,55.9L24.6,55.9c0.4,0,0.7,0.3,0.7,0.6v3.4h-1.4v-3.4C23.9,56.2,24.2,55.9,24.6,55.9z"/>
					<path id="_408275000" d="M21.4,55.9L21.4,55.9c0.4,0,0.7,0.3,0.7,0.6v3.4h-1.4v-3.4C20.8,56.2,21.1,55.9,21.4,55.9z"/>
				</g>
				<path id="_408274880" d="M14.8,46.8h16.3v0.4H14.8V46.8z M33.5,45.6l-21,0v-0.4l21,0C33.5,45.2,33.5,45.6,33.5,45.6z"/>
				<polygon id="_408274712" class="st3" points="55.7,65.4 39.4,65.4 39.4,47 37,45.4 37,42.1 41.7,42.1 41.7,44.1 45.2,44.1
					45.2,42.1 49.8,42.1 49.8,44.1 53.4,44.1 53.4,42.1 58,42.1 58,45.4 55.7,47 				"/>
				<path id="_408274616" d="M55.9,47.1v18.3v0.2h-0.2H39.4h-0.2v-0.2V47.1l-2.2-1.6l-0.1-0.1v-0.1v-3.2v-0.2H37h4.6h0.2v0.2v1.7H45
					v-1.7v-0.2h0.2h4.6h0.2v0.2v1.7h3.1v-1.7v-0.2h0.2H58h0.2v0.2v3.2v0.1l-0.1,0.1L55.9,47.1L55.9,47.1z M55.5,65.2V47v-0.1
					l0.1-0.1l2.2-1.6v-3h-4.2v1.7v0.2h-0.2h-3.5h-0.2v-0.2v-1.7h-4.2v1.7v0.2h-0.2h-3.5h-0.2v-0.2v-1.7h-4.2v3l2.2,1.6l0.1,0.1V47
					v18.2C39.6,65.2,55.5,65.2,55.5,65.2z"/>
				<polygon id="_408274448" class="st3" points="80.2,65.4 63.8,65.4 63.8,47 61.5,45.4 61.5,42.1 66.2,42.1 66.2,44.1 69.7,44.1
					69.7,42.1 74.3,42.1 74.3,44.1 77.8,44.1 77.8,42.1 82.5,42.1 82.5,45.4 80.2,47 				"/>
				<path id="_408274352" d="M80.4,47.1v18.3v0.2h-0.2H63.8h-0.2v-0.2V47.1l-2.2-1.6l-0.1-0.1v-0.1v-3.2v-0.2h0.2h4.6h0.2v0.2v1.7
					h3.1v-1.7v-0.2h0.2h4.6h0.2v0.2v1.7h3.1v-1.7v-0.2h0.2h4.6h0.2v0.2v3.2v0.1l-0.1,0.1L80.4,47.1L80.4,47.1z M79.9,65.2V47v-0.1
					l0.1-0.1l2.2-1.6v-3h-4.2v1.7v0.2h-0.2h-3.5h-0.2v-0.2v-1.7h-4.2v1.7v0.2h-0.2h-3.5h-0.2v-0.2v-1.7h-4.2v3l2.2,1.6l0.1,0.1V47
					v18.2C64.1,65.2,79.9,65.2,79.9,65.2z"/>
				<path id="_408274136" d="M39.3,46.8h16.3v0.4H39.3V46.8z M58,45.6l-21,0v-0.4l21,0C58,45.2,58,45.6,58,45.6z"/>
				<path id="_408274208" d="M63.8,46.8h16.3v0.4H63.8V46.8z M82.5,45.6l-21,0v-0.4l21,0C82.5,45.2,82.5,45.6,82.5,45.6z"/>
				<g id="g93">
					<path id="_408274040" d="M47.5,49.9L47.5,49.9c0.4,0,0.7,0.3,0.7,0.6v3.4h-1.4v-3.4C46.8,50.1,47.1,49.9,47.5,49.9z"/>
					<path id="_408273872" d="M50.7,49.9L50.7,49.9c0.4,0,0.7,0.3,0.7,0.6v3.4H50v-3.4C50,50.1,50.3,49.9,50.7,49.9z"/>
					<path id="_408273704" d="M44.3,49.9L44.3,49.9c0.4,0,0.7,0.3,0.7,0.6v3.4h-1.4v-3.4C43.6,50.1,44,49.9,44.3,49.9z"/>
					<path id="_408273536" d="M49.1,55.9L49.1,55.9c0.4,0,0.7,0.3,0.7,0.6v3.4h-1.4v-3.4C48.4,56.2,48.7,55.9,49.1,55.9z"/>
					<path id="_408273296" d="M45.9,55.9L45.9,55.9c0.4,0,0.7,0.3,0.7,0.6v3.4h-1.4v-3.4C45.2,56.2,45.5,55.9,45.9,55.9z"/>
				</g>
				<g id="g100">
					<path id="_408273152" d="M72,49.9L72,49.9c0.4,0,0.7,0.3,0.7,0.6v3.4h-1.4v-3.4C71.3,50.1,71.6,49.9,72,49.9z"/>
					<path id="_408272984" d="M75.2,49.9L75.2,49.9c0.4,0,0.7,0.3,0.7,0.6v3.4h-1.4v-3.4C74.5,50.1,74.8,49.9,75.2,49.9z"/>
					<path id="_408272816" d="M68.8,49.9L68.8,49.9c0.4,0,0.7,0.3,0.7,0.6v3.4h-1.4v-3.4C68.1,50.1,68.4,49.9,68.8,49.9z"/>
					<path id="_408272648" d="M73.6,55.9L73.6,55.9c0.4,0,0.7,0.3,0.7,0.6v3.4h-1.4v-3.4C72.9,56.2,73.2,55.9,73.6,55.9z"/>
					<path id="_408272408" d="M70.4,55.9L70.4,55.9c0.4,0,0.7,0.3,0.7,0.6v3.4h-1.4v-3.4C69.7,56.2,70,55.9,70.4,55.9z"/>
				</g>
				<path id="_408272264" class="st3" d="M32,114.3H12.2v-1.2l2.7-2.1V68l-2.3-1.7v-3.8h4.6v1.9h3.5v-1.9h4.6v1.9h3.5v-1.9h4.6v1.9
					l3.5,0v-1.9h4.6v1.9h3.5v-1.9h4.6v1.9h3.5v-1.9H58v1.9l3.5,0v-1.9h4.6v1.9h3.5v-1.9h4.6v1.9h3.5v-1.9h4.6v3.8L80.2,68l0,43
					l2.7,2.1v1.2H62.9V90.4c0-7.4-7-13.5-15.5-13.5h0C39,76.9,32,83,32,90.4C32,90.4,32,114.3,32,114.3z"/>
				<path id="_408272168" d="M32,114.5H12.2H12v-0.2v-1.2V113l0.1-0.1l2.6-2.1V68.1l-2.2-1.6l-0.1-0.1v-0.1v-3.8v-0.2h0.2h4.6h0.2
					v0.2v1.7h3.1v-1.7v-0.2h0.2h4.6h0.2v0.2v1.7h3.1v-1.7v-0.2h0.2h4.6h0.2v0.2v1.7l3.1,0v-1.7v-0.2H37h4.6h0.2v0.2v1.7H45v-1.7
					v-0.2h0.2h4.6h0.2v0.2v1.7h3.1v-1.7v-0.2h0.2H58h0.2v0.2v1.7l3.1,0v-1.7v-0.2h0.2h4.6h0.2v0.2v1.7h3.1v-1.7v-0.2h0.2h4.6h0.2
					v0.2v1.7h3.1v-1.7v-0.2h0.2h4.6h0.2v0.2v3.8v0.1l-0.1,0.1l-2.2,1.6l0,42.8l2.6,2.1L83,113v0.1v1.2v0.2h-0.2H62.9h-0.2v-0.2V90.4
					c0-3.6-1.7-7-4.5-9.4c-2.8-2.4-6.6-3.9-10.8-3.9h0c-4.2,0-8,1.5-10.8,3.9c-2.8,2.4-4.5,5.7-4.5,9.4v23.9v0.2H32L32,114.5z
					 M12.4,114.1h19.3V90.4c0-3.8,1.8-7.2,4.6-9.6c2.8-2.5,6.8-4,11.1-4h0c4.3,0,8.2,1.5,11.1,4c2.8,2.5,4.6,5.9,4.6,9.6v23.7h19.4
					v-0.9l-2.6-2.1l-0.1-0.1l0-0.1l0-43v-0.1l0.1-0.1l2.2-1.6v-3.5h-4.2v1.7v0.2h-0.2h-3.5h-0.2v-0.2v-1.7h-4.2v1.7v0.2h-0.2h-3.5
					h-0.2v-0.2v-1.7h-4.2v1.7v0.2h-0.2l-3.5,0l-0.2,0v-0.2v-1.7h-4.2v1.7v0.2h-0.2h-3.5h-0.2v-0.2v-1.7h-4.2v1.7v0.2h-0.2h-3.5h-0.2
					v-0.2v-1.7h-4.2v1.7v0.2H37l-3.5,0l-0.2,0v-0.2v-1.7h-4.2v1.7v0.2h-0.2h-3.5h-0.2v-0.2v-1.7h-4.2v1.7v0.2h-0.2h-3.5H17v-0.2
					v-1.7h-4.2v3.5l2.2,1.6l0.1,0.1V68v43v0.1l-0.1,0.1l-2.6,2.1L12.4,114.1L12.4,114.1z"/>
				<path id="_408272096" d="M59.7,69.5c0.6,0,1.1,0.2,1.5,0.5l0,0l0,0c0.4,0.3,0.6,0.8,0.6,1.3c0,0.3-0.1,0.7-0.3,0.9
					c-0.2,0.2-0.4,0.5-0.7,0.6v1.7v0.2h-0.2h-1.8h-0.2v-0.2v-1.7c-0.3-0.2-0.5-0.4-0.7-0.6c-0.2-0.3-0.3-0.6-0.3-0.9
					c0-0.5,0.2-1,0.6-1.3l0,0C58.6,69.7,59.2,69.5,59.7,69.5L59.7,69.5z M60.9,70.3c-0.3-0.3-0.7-0.4-1.2-0.4
					c-0.5,0-0.9,0.2-1.2,0.4v0c-0.3,0.3-0.5,0.6-0.5,1c0,0.3,0.1,0.5,0.2,0.7c0.2,0.2,0.4,0.4,0.6,0.5l0.1,0.1v0.1v1.6h1.3v-1.6
					v-0.1l0.1-0.1c0.3-0.1,0.5-0.3,0.6-0.5c0.1-0.2,0.2-0.5,0.2-0.7C61.4,70.9,61.2,70.5,60.9,70.3C60.9,70.3,60.9,70.3,60.9,70.3z
					 M35.3,69.5c0.6,0,1.1,0.2,1.5,0.5l0,0l0,0c0.4,0.3,0.6,0.8,0.6,1.3c0,0.3-0.1,0.7-0.3,0.9c-0.2,0.2-0.4,0.5-0.7,0.6v1.7v0.2
					h-0.2h-1.8h-0.2v-0.2v-1.7c-0.3-0.2-0.5-0.4-0.7-0.6c-0.2-0.3-0.3-0.6-0.3-0.9c0-0.5,0.2-1,0.6-1.3l0,0
					C34.2,69.7,34.7,69.5,35.3,69.5L35.3,69.5z M36.4,70.3c-0.3-0.3-0.7-0.4-1.2-0.4c-0.5,0-0.9,0.2-1.2,0.4v0
					c-0.3,0.3-0.5,0.6-0.5,1c0,0.3,0.1,0.5,0.2,0.7c0.2,0.2,0.4,0.4,0.6,0.5l0.1,0.1v0.1v1.6h1.3v-1.6v-0.1l0.1-0.1
					c0.3-0.1,0.5-0.3,0.6-0.5c0.1-0.2,0.2-0.5,0.2-0.7C36.9,70.9,36.7,70.5,36.4,70.3C36.4,70.3,36.4,70.3,36.4,70.3z"/>
				<path id="_408272000" d="M64.3,68v17.3v1.1l-0.4-1c-1.2-3-3.5-5.5-6.4-7.3c-2.8-1.7-6.3-2.8-10-2.8c-3.7,0-7.1,1-9.9,2.7
					c-2.9,1.8-5.2,4.3-6.4,7.2l-0.4,1v-1.1V68h0.4v16.1c1.3-2.6,3.5-4.9,6.2-6.5c2.9-1.8,6.4-2.8,10.2-2.8c3.8,0,7.4,1.1,10.3,2.8
					c2.7,1.7,4.8,3.9,6.1,6.6V68C63.9,68,64.3,68,64.3,68z"/>
				<path id="_408271856" d="M66.7,78.9l0,3.2l13.4,0v0.4l-16,0v-0.4l2.2,0l0-3.2l-2.2,0v-0.4l4.7,0l0-3.3l-4.7,0v-0.4l2.2,0l0-3.2
					l-2.2,0v-0.4l4.7,0l0-3.2h0.4l0,3.2l5.4,0l0-3.2h0.4l0,3.2l5,0v0.4l-1.8,0l0,3.2l1.9,0v0.4l-5,0l0,3.3l5,0v0.4L66.7,78.9
					L66.7,78.9z M69.3,75.3l0,3.3l5.4,0l0-3.3L69.3,75.3L69.3,75.3z M66.7,74.9l5.2,0l0-3.2l-5.2,0L66.7,74.9L66.7,74.9z M72.3,74.9
					l5.5,0l0-3.2l-5.5,0L72.3,74.9L72.3,74.9z M80.1,86.2l-16,0v-0.4l16,0C80.1,85.8,80.1,86.2,80.1,86.2z M80.1,89.8l-16,0v-0.4
					l16,0C80.1,89.4,80.1,89.8,80.1,89.8z M80.1,93.4l-16,0V93l16,0C80.1,93,80.1,93.4,80.1,93.4z M80.1,96.9l-16,0v-0.4l16,0
					C80.1,96.5,80.1,96.9,80.1,96.9z M80.1,100.4l-16,0V100l16,0C80.1,100,80.1,100.4,80.1,100.4z M80.1,104l-16,0v-0.4l16,0
					C80.1,103.6,80.1,104,80.1,104z M80.1,107.8l-16,0v-0.4l16,0C80.1,107.4,80.1,107.8,80.1,107.8z"/>
				<path id="_408271736" d="M28.3,78.9l0,3.2l-13.4,0v0.4l16,0v-0.4l-2.2,0l0-3.2l2.2,0v-0.4l-4.7,0l0-3.3l4.7,0v-0.4l-2.2,0l0-3.2
					l2.2,0v-0.4l-4.7,0l0-3.2h-0.4l0,3.2l-5.4,0l0-3.2h-0.4l0,3.2l-5,0v0.4l1.8,0l0,3.2l-1.9,0v0.4l5,0l0,3.3l-5,0v0.4L28.3,78.9z
					 M25.8,75.3l0,3.3l-5.4,0l0-3.3L25.8,75.3z M28.3,74.9l-5.2,0l0-3.2l5.2,0L28.3,74.9z M22.7,74.9l-5.5,0l0-3.2l5.5,0
					C22.7,71.7,22.7,74.9,22.7,74.9z M14.9,86.2l16,0v-0.4l-16,0V86.2z M14.9,89.8l16,0v-0.4l-16,0V89.8z M14.9,93.4l16,0V93l-16,0
					V93.4z M14.9,96.9l16,0v-0.4l-16,0V96.9z M14.9,100.4l16,0V100l-16,0V100.4z M14.9,104l16,0v-0.4l-16,0V104z M14.9,107.8l16,0
					v-0.4l-16,0V107.8z"/>
				<path id="_408271520" d="M14.9,67.8h65.2v0.4H14.9C14.9,68.2,14.9,67.8,14.9,67.8z M82.5,66.5l-69.9,0v-0.4l69.9,0V66.5z"/>
				<path id="_408271592" d="M14.8,110.8h14.4v0.4H14.8V110.8z M64.8,110.8h15.4v0.4H64.8V110.8z M82.2,112.9l-17.7,0v-0.4l17.7,0
					V112.9z M28.7,112.9l-15.9,0v-0.4l15.9,0V112.9z"/>
				<path id="_408271424" class="st4" d="M77.9,77.3L77.9,77.3c-0.1,0-0.2,0-0.3,0c-8.1,0.1-14.8,6.1-14.8,13.3v23.6h14.9h0.1V77.3z
					"/>
				<path id="_408271328" d="M77.9,77.1L77.9,77.1h0.2v0.2v37v0.2h-0.2h-0.1H62.9h-0.2v-0.2V90.6c0-3.7,1.7-7,4.4-9.5
					c2.7-2.4,6.5-4,10.6-4l0,0h0v0L77.9,77.1L77.9,77.1z M77.7,77.5L77.7,77.5L77.7,77.5L77.7,77.5L77.7,77.5
					c-4,0.1-7.7,1.6-10.3,3.9c-2.6,2.4-4.3,5.6-4.3,9.2v23.5h14.6L77.7,77.5L77.7,77.5z"/>
				<path id="_408271160" class="st3" d="M75.5,102.8H62.9v1.5h12.6l0.8-0.7C76.4,103.6,75.5,102.8,75.5,102.8z M75.5,92.4H62.9v1.5
					h12.6l0.8-0.7L75.5,92.4z"/>
				<path id="_408271064" d="M75.5,103H63.1v1.1h12.3l0.6-0.5C76.1,103.6,75.5,103,75.5,103z M62.9,102.7h12.6h0.1l0.1,0.1l0.8,0.7
					l0.2,0.1l-0.2,0.1l-0.8,0.7l-0.1,0.1h-0.1H62.9h-0.2v-0.2v-1.5v-0.2C62.7,102.7,62.9,102.7,62.9,102.7z M75.5,92.6H63.1v1.1
					h12.3l0.6-0.5C76.1,93.1,75.5,92.6,75.5,92.6z M62.9,92.2h12.6h0.1l0.1,0.1l0.8,0.7l0.2,0.1l-0.2,0.1L75.7,94L75.6,94h-0.1H62.9
					h-0.2v-0.2v-1.5v-0.2H62.9z"/>
				<path id="_408270896" class="st4" d="M17,77.3L17,77.3c0.1,0,0.2,0,0.3,0C25.4,77.5,32,83.4,32,90.6v23.6H17.1H17V77.3z"/>
				<path id="_408270800" d="M17,77.1L17,77.1l0.3,0c4.1,0.1,7.9,1.6,10.6,4c2.7,2.4,4.4,5.8,4.4,9.5v23.6v0.2H32H17.1H17h-0.2v-0.2
					v-37v-0.2C16.8,77.1,17,77.1,17,77.1z M17.2,77.5L17.2,77.5l0,36.6h14.6V90.6c0-3.6-1.6-6.8-4.3-9.2
					C24.9,79.1,21.2,77.6,17.2,77.5z"/>
				<path id="_408270608" class="st3" d="M19.4,102.8H32v1.5H19.4l-0.8-0.7C18.5,103.6,19.4,102.8,19.4,102.8z M19.4,92.4H32v1.5
					H19.4l-0.8-0.7L19.4,92.4z"/>
				<path id="_408270464" d="M19.4,102.7H32h0.2v0.2v1.5v0.2H32H19.4h-0.1l-0.1-0.1l-0.8-0.7l-0.2-0.1l0.2-0.1l0.8-0.7L19.4,102.7
					C19.3,102.7,19.4,102.7,19.4,102.7z M31.8,103H19.5l-0.6,0.5l0.6,0.5h12.3V103z M19.4,92.2H32h0.2v0.2v1.5V94H32H19.4h-0.1
					L19.2,94l-0.8-0.7l-0.2-0.1l0.2-0.1l0.8-0.7L19.4,92.2L19.4,92.2z M31.8,92.6H19.5l-0.6,0.5l0.6,0.5h12.3
					C31.8,93.7,31.8,92.6,31.8,92.6z"/>
			</g>
			<g id="g123">
				<g id="g125">
					<path id="_408270320" class="st5" d="M43.1,104.6c0.8-0.5,2.8-0.6,3.8-0.6c0.9,0,2.7,0.1,3.5,0.3c0.8,0.1,1.4,0.3,1.3,1.3
						c-0.1,1-0.1,2.4-0.1,4.2c0,1.8,0,2.5,0.1,3.2c0.1,0.7,0.4,1.3-0.5,0.9c-0.9-0.4-1.3-0.7-2.6-1.3c-1.2-0.6-2.4-0.5-2.7-1.1
						c-0.4-0.5-0.4-0.9-0.9-1.1c-0.5-0.2-0.8-0.2-1.1,0c-0.3,0.2-0.6,0.8-0.6-0.1c0-0.9,0.2-1.3,0.2-2.2c0-0.9-0.1-0.9-0.3-1.7
						C42.9,105.7,42.9,105.3,43.1,104.6L43.1,104.6z"/>
					<path id="_408270224" d="M43.1,104.5c0.3-0.2,0.9-0.4,1.5-0.5c0.9-0.1,1.8-0.1,2.4-0.1c0.5,0,1.3,0.1,2,0.1
						c0.6,0,1.2,0.1,1.5,0.2c0.4,0.1,0.8,0.2,1,0.4c0.3,0.2,0.4,0.5,0.4,1.1c0,0.1,0,0.2,0,0.3c-0.1,0.9-0.1,2.2-0.1,3.8
						c0,0.6,0,1.1,0,1.5c0,0.8,0,1.2,0.1,1.7c0,0.1,0,0.2,0.1,0.3c0.1,0.3,0.1,0.5,0,0.6c-0.1,0.2-0.3,0.2-0.8,0
						c-0.4-0.2-0.7-0.3-1-0.5c-0.4-0.2-0.8-0.4-1.5-0.8c-0.5-0.2-1-0.4-1.5-0.5c-0.6-0.2-1.1-0.3-1.3-0.6c-0.1-0.2-0.2-0.3-0.3-0.5
						c-0.1-0.3-0.2-0.5-0.5-0.6c-0.2-0.1-0.4-0.1-0.6-0.1c-0.1,0-0.3,0-0.4,0.1c-0.1,0-0.2,0.1-0.2,0.2c-0.1,0.1-0.2,0.2-0.3,0.2
						c-0.1,0-0.2-0.1-0.2-0.5c0-0.4,0-0.7,0.1-1c0-0.3,0.1-0.7,0.1-1.1c0-0.7-0.1-0.8-0.2-1.3c0-0.1-0.1-0.2-0.1-0.3
						c-0.1-0.4-0.2-0.7-0.2-1C42.8,105.2,42.9,105,43.1,104.5L43.1,104.5L43.1,104.5L43.1,104.5z M44.6,104.3
						c-0.5,0.1-1,0.2-1.3,0.4c-0.1,0.3-0.2,0.6-0.2,0.8c0,0.3,0.1,0.5,0.2,0.9c0,0.2,0.1,0.3,0.1,0.3c0.2,0.5,0.2,0.6,0.2,1.4
						c0,0.5,0,0.8-0.1,1.1c0,0.3-0.1,0.6-0.1,1c0,0.3,0,0.3,0,0.3c0,0,0.1-0.1,0.2-0.1c0.1-0.1,0.2-0.2,0.3-0.2
						c0.2-0.1,0.3-0.1,0.5-0.1c0.2,0,0.4,0.1,0.7,0.1c0.4,0.1,0.5,0.4,0.6,0.7c0.1,0.1,0.1,0.3,0.3,0.5c0.2,0.3,0.6,0.4,1.2,0.5
						c0.4,0.1,1,0.3,1.5,0.5c0.7,0.3,1.1,0.5,1.6,0.8c0.3,0.2,0.6,0.3,1,0.5c0.3,0.1,0.4,0.2,0.4,0.1c0-0.1,0-0.3,0-0.5
						c0-0.1,0-0.2-0.1-0.4c-0.1-0.5-0.1-1-0.1-1.8c0-0.4,0-0.9,0-1.5c0-1.6,0-2.9,0.1-3.9c0-0.1,0-0.2,0-0.3c0-0.4-0.1-0.7-0.3-0.9
						c-0.2-0.2-0.5-0.3-0.9-0.3c-0.3-0.1-0.9-0.1-1.5-0.2c-0.7-0.1-1.5-0.1-2-0.1C46.4,104.1,45.4,104.2,44.6,104.3z"/>
					<path id="_408270056" class="st6" d="M45.6,106.2c-0.5,0-1.2-0.9-1.1,0.2c0.1,1.1,0,2.2-0.1,2.9c-0.1,0.7,0,1.6,0.2,2.4
						c0.2,0.8,0.3,1.2,0.5,2.3c0.1,0.3,0.1,1.5,0.6,1.5c0.5,0,0.6-0.2,0.6-0.4c0-0.6,0-1.6,0.1-2.2c0.1-1.1,0.3-1.8,0.2-2.9
						c-0.1-1.1,0.1-1.1,0-1.9C46.5,107.4,46.3,106.6,45.6,106.2z"/>
					<path id="_408269960" d="M45.6,106.3c-0.2,0-0.3-0.1-0.5-0.2c-0.1-0.1-0.3-0.1-0.4-0.1c-0.1,0-0.1,0.1-0.1,0.5
						c0,0.5,0,1.1,0,1.6c0,0.5,0,1-0.1,1.3c0,0.4,0,0.8,0,1.2c0,0.4,0.1,0.8,0.2,1.2c0.1,0.3,0.1,0.5,0.2,0.7
						c0.1,0.5,0.2,0.9,0.3,1.7c0,0.1,0,0.1,0,0.2c0,0.4,0.1,1.1,0.5,1.2c0.2,0,0.3,0,0.4-0.1c0.1-0.1,0.1-0.1,0.1-0.2
						c0-0.3,0-0.8,0-1.3c0-0.3,0-0.7,0-0.9c0-0.4,0.1-0.8,0.1-1.1c0.1-0.6,0.1-1.1,0.1-1.8c0-0.6,0-0.9,0-1.1c0-0.2,0-0.4,0-0.7
						c0-0.4-0.1-0.8-0.2-1.1C46.1,106.7,45.9,106.5,45.6,106.3L45.6,106.3z M45.2,105.9c0.1,0.1,0.3,0.2,0.4,0.2l0,0l0,0
						c0.4,0.2,0.7,0.5,0.8,0.9c0.1,0.4,0.2,0.8,0.2,1.2c0,0.3,0,0.5,0,0.8c0,0.3,0,0.5,0,1.1c0,0.7,0,1.2-0.1,1.8
						c0,0.3-0.1,0.7-0.1,1.1c0,0.2,0,0.6,0,0.9c0,0.4,0,0.9,0,1.3c0,0.1,0,0.3-0.1,0.4c-0.1,0.1-0.3,0.2-0.6,0.2
						c-0.6,0-0.7-0.9-0.7-1.3c0-0.1,0-0.2,0-0.2c-0.1-0.8-0.2-1.2-0.3-1.7c0-0.2-0.1-0.4-0.2-0.7c-0.1-0.4-0.1-0.8-0.2-1.2
						c0-0.4,0-0.9,0-1.3c0-0.4,0.1-0.8,0.1-1.3c0-0.5,0-1,0-1.6c0-0.5,0.1-0.7,0.3-0.7C44.8,105.8,45,105.8,45.2,105.9L45.2,105.9z"
						/>
					<path id="_408269792" class="st6" d="M49.5,106.2c0.5,0,1.2-0.9,1.1,0.2c-0.1,1.1-0.2,2.2-0.1,2.9c0.1,0.7,0.1,1.5-0.1,2.3
						c-0.2,0.8-0.3,1.3-0.4,2.5c-0.1,0.9-0.1,1.3-0.6,1.4c-0.4,0.1-0.5-0.2-0.5-0.4c0-0.6,0-1.6-0.1-2.1c-0.1-1.1-0.3-1.9-0.2-2.9
						c0.1-1.1-0.1-1.1,0-1.9C48.6,107.4,48.8,106.6,49.5,106.2z"/>
					<path id="_408608888" d="M49.5,106.1c0.1,0,0.3-0.1,0.4-0.2c0.2-0.1,0.3-0.2,0.5-0.2c0.2,0,0.4,0.2,0.3,0.7
						c0,0.3,0,0.6-0.1,0.9c0,0.8-0.1,1.5-0.1,2c0,0.4,0,0.8,0,1.1c0,0.4-0.1,0.8-0.2,1.2l0,0.1c-0.2,0.8-0.3,1.2-0.4,2.3l0,0l0,0.1
						c-0.1,0.9-0.1,1.3-0.7,1.4c-0.3,0-0.4,0-0.5-0.1c-0.1-0.1-0.1-0.2-0.1-0.4c0-0.3,0-0.7,0-1c0-0.4,0-0.8-0.1-1.1
						c0-0.4-0.1-0.7-0.1-1.1c-0.1-0.6-0.1-1.2-0.1-1.9c0-0.6,0-0.9,0-1.1c0-0.2,0-0.4,0-0.8c0-0.4,0.1-0.8,0.2-1.2
						C48.8,106.6,49.1,106.3,49.5,106.1L49.5,106.1L49.5,106.1L49.5,106.1z M50.1,106.1c-0.2,0.1-0.3,0.2-0.5,0.2
						c-0.3,0.2-0.5,0.5-0.7,0.8c-0.1,0.3-0.2,0.7-0.2,1.1c0,0.3,0,0.5,0,0.7c0,0.3,0,0.6,0,1.1c0,0.7,0,1.2,0.1,1.9
						c0,0.3,0.1,0.7,0.1,1.1c0,0.3,0,0.7,0.1,1.1c0,0.4,0,0.7,0,1c0,0.1,0,0.2,0.1,0.3c0,0,0.1,0.1,0.3,0c0.4-0.1,0.5-0.4,0.5-1.2
						l0-0.1v0c0.1-1.1,0.2-1.6,0.4-2.4l0-0.1c0.1-0.4,0.1-0.8,0.2-1.2c0-0.4,0-0.8,0-1.1c0-0.5,0-1.3,0.1-2c0-0.3,0-0.6,0.1-0.9
						c0-0.3,0-0.4-0.1-0.5C50.3,106,50.2,106,50.1,106.1L50.1,106.1z"/>
					<path id="_408608720" class="st7" d="M45.9,108.1c0.4,0.3,0.8,0.8,0.8-0.3c-0.1-1.1-0.2-1.3-0.1-1.9c0.1-0.6,0.1-0.7-0.1-1.1
						c-0.1-0.4,0.1-0.5-0.6-0.6c-0.7-0.1-1,0-1.4,0.3c-0.4,0.3-0.4,0.3-0.3,1c0.1,0.7,0,1,0.7,1.3c0.6,0.3,0.5,0.2,0.5,0.6
						C45.6,107.8,45.6,107.9,45.9,108.1L45.9,108.1z"/>
					<path id="_408608624" d="M46,108.1c0,0,0.1,0.1,0.1,0.1c0.2,0.1,0.3,0.3,0.4,0.3c0.1,0,0.1-0.1,0.1-0.5c0-0.4,0-0.6-0.1-0.8
						c0-0.4-0.1-0.7,0-1.1c0.1-0.3,0.1-0.5,0.1-0.6c0-0.1,0-0.2-0.1-0.4c0-0.1,0-0.2-0.1-0.3c0-0.1,0-0.2-0.4-0.3
						c-0.3,0-0.6,0-0.8,0c-0.2,0-0.3,0.1-0.5,0.3l0,0l0,0c-0.3,0.2-0.3,0.2-0.2,0.8c0,0.1,0,0.2,0.1,0.3c0.1,0.4,0.1,0.6,0.5,0.8
						c0.6,0.2,0.6,0.2,0.6,0.5c0,0,0,0.1,0,0.2c0,0.1,0,0.1,0,0.2C45.7,107.8,45.7,107.9,46,108.1z M45.9,108.3c0,0-0.1-0.1-0.1-0.1
						c-0.3-0.3-0.3-0.4-0.4-0.7c0-0.1,0-0.1,0-0.2c0-0.1,0-0.2,0-0.2c0-0.1,0-0.1-0.4-0.3c-0.6-0.2-0.6-0.5-0.7-1
						c0-0.1,0-0.2-0.1-0.3c-0.1-0.7-0.1-0.7,0.3-1l0,0l0,0c0.2-0.2,0.4-0.3,0.6-0.3c0.2-0.1,0.5-0.1,0.9,0c0.6,0.1,0.6,0.2,0.7,0.4
						c0,0.1,0,0.1,0,0.2c0.1,0.2,0.1,0.3,0.1,0.5c0,0.2,0,0.3-0.1,0.7c-0.1,0.4,0,0.6,0,1.1c0,0.2,0,0.5,0.1,0.8
						c0,0.6-0.1,0.8-0.3,0.8C46.3,108.7,46.1,108.5,45.9,108.3z"/>
					<path id="_408608456" class="st7" d="M49.2,108.1c-0.4,0.3-0.6,0.5-0.6-0.3c0-0.8,0.1-1.2,0-1.9c-0.1-0.6-0.1-0.7,0.1-1.1
						c0.1-0.4-0.1-0.5,0.6-0.6c1.4-0.2,1.2,0.2,1.3,1.2c0.1,0.7,0.3,1.4-0.3,1.4s-0.6,0.1-0.7,0.5C49.5,107.7,49.5,107.8,49.2,108.1
						z"/>
					<path id="_408608288" class="st7" d="M50.1,105c0.4,0.1,0.8,0.2,0.9,0c0.2-0.3,0.1-0.4,0.3-0.4c0.3-0.1,0.3-0.2,0.3-0.6
						c0-0.4,0.4-0.8-0.6-0.9c-1-0.1-1.6,0-2.1-0.1c-0.5-0.1-0.6-0.4-1,0c-0.4,0.4-0.6,0.8-0.4,1.2c0.2,0.4,0.5,0.6,0.8,0.8
						c0.3,0.2,0.6,0.3,0.9,0.1C49.7,104.8,49.9,104.9,50.1,105L50.1,105z"/>
					<path id="_408608192" d="M50.1,104.9c0.1,0,0.2,0,0.3,0.1c0.3,0.1,0.5,0.1,0.5,0c0-0.1,0.1-0.1,0.1-0.2
						c0.1-0.2,0.1-0.2,0.3-0.3c0.1,0,0.2-0.1,0.2-0.1c0-0.1,0-0.2,0-0.4c0-0.1,0-0.2,0-0.3c0-0.1,0-0.1,0-0.2c0-0.1-0.1-0.2-0.5-0.3
						c-0.3,0-0.6,0-0.8,0c-0.5,0-0.9,0-1.3-0.1c-0.1,0-0.2-0.1-0.3-0.1c-0.2-0.1-0.3-0.1-0.6,0.1c-0.2,0.2-0.3,0.4-0.4,0.6
						c-0.1,0.2-0.1,0.3,0,0.5c0.1,0.3,0.4,0.5,0.6,0.7c0.1,0,0.1,0.1,0.1,0.1c0.1,0.1,0.3,0.2,0.4,0.2c0.1,0,0.3,0,0.4-0.1
						C49.7,104.7,49.9,104.8,50.1,104.9C50.1,104.9,50.1,104.9,50.1,104.9z M50.3,105.2c-0.1,0-0.2,0-0.3-0.1l0,0l0,0c0,0,0,0-0.1,0
						c-0.1,0-0.3-0.1-0.6,0c-0.2,0.1-0.4,0.1-0.6,0.1c-0.2,0-0.4-0.1-0.5-0.2c-0.1,0-0.1-0.1-0.1-0.1c-0.3-0.2-0.5-0.4-0.7-0.8
						c-0.1-0.2-0.1-0.4,0-0.6c0.1-0.2,0.3-0.5,0.5-0.7c0.3-0.3,0.5-0.3,0.8-0.1c0.1,0,0.2,0.1,0.3,0.1c0.3,0.1,0.7,0.1,1.2,0.1
						c0.2,0,0.5,0,0.8,0c0.7,0,0.8,0.2,0.8,0.5c0,0.1,0,0.1,0,0.2c0,0.1,0,0.2,0,0.3c0,0.2,0,0.4-0.1,0.5c-0.1,0.1-0.2,0.2-0.4,0.2
						c-0.1,0-0.1,0.1-0.2,0.1c0,0.1,0,0.1-0.1,0.2C51,105.3,50.7,105.2,50.3,105.2L50.3,105.2z"/>
					<path id="_408608024" class="st7" d="M43.5,104.7c0.4,0.3,0.4,0.4,0.9,0.3c0.5-0.1,0.8-0.1,0.8-0.3c0-0.2,0.2-0.2,0.4,0
						c0.2,0.2,0.5,0.5,0.9,0.2c0.2-0.2,0.3-0.3,0.4-0.1c0,0.2,0,0.4,0.2,0.4c0.3,0,1.3,0.1,1.3-0.2c0-0.3,0.2-0.4,0.4-0.7
						c0.1-0.2,0.1-0.4-0.2-0.4c-0.2-0.1-0.4,0-0.4-0.3c0-0.3-0.6-0.6-1.7-0.8c-1-0.1-2.1-0.3-2.7,0.1c-0.6,0.4-0.8,0.6-0.7,1.1
						C43.2,104.4,43.2,104.4,43.5,104.7z"/>
					<path id="_408607928" d="M43.6,104.6c0.2,0.2,0.3,0.3,0.4,0.3c0.1,0,0.2,0,0.4,0c0.1,0,0.2,0,0.2,0c0.3-0.1,0.5-0.1,0.5-0.1
						c0-0.1,0-0.1,0-0.1c0,0,0.1-0.1,0.1-0.1c0,0,0.1,0,0.2,0c0.1,0,0.2,0.1,0.2,0.2c0.1,0.1,0.2,0.2,0.4,0.3c0.1,0,0.2,0,0.3-0.1
						c0.1-0.1,0.2-0.2,0.3-0.2c0.2-0.1,0.3,0,0.3,0.2v0c0,0,0,0.1,0,0.1c0,0.1,0,0.2,0.1,0.2h0l0,0c0.2,0,0.5,0,0.8,0
						c0.2,0,0.3,0,0.3-0.1c0-0.2,0.1-0.4,0.2-0.5c0.1-0.1,0.1-0.1,0.2-0.2c0.1-0.1,0.1-0.2,0-0.2c0,0-0.1-0.1-0.2-0.1
						c0,0-0.1,0-0.1,0c-0.2,0-0.3,0-0.3-0.4c0-0.1-0.1-0.3-0.4-0.4c-0.3-0.1-0.7-0.2-1.2-0.3l-0.1,0c-1-0.1-2-0.3-2.5,0.1
						c-0.3,0.2-0.5,0.4-0.6,0.5c-0.1,0.1-0.1,0.3,0,0.4l0,0C43.3,104.3,43.3,104.4,43.6,104.6L43.6,104.6L43.6,104.6z M43.9,105.1
						c-0.1-0.1-0.3-0.2-0.5-0.3l0,0c-0.3-0.3-0.3-0.4-0.5-0.8l0,0c-0.1-0.2-0.1-0.4,0.1-0.6c0.1-0.2,0.3-0.3,0.6-0.6
						c0.6-0.4,1.7-0.3,2.7-0.1l0.1,0c0.5,0.1,0.9,0.2,1.2,0.3c0.3,0.2,0.5,0.4,0.5,0.6c0,0.2,0.1,0.2,0.1,0.2c0.1,0,0.1,0,0.2,0
						c0.1,0,0.2,0.1,0.3,0.2c0,0.1,0,0.2-0.1,0.4c-0.1,0.1-0.1,0.2-0.2,0.2c-0.1,0.1-0.2,0.2-0.2,0.4c0,0.2-0.2,0.3-0.5,0.3
						c-0.3,0-0.7,0-0.9,0l0,0v0c-0.3,0-0.3-0.2-0.3-0.4c0,0,0-0.1,0-0.1c0,0-0.1,0.1-0.2,0.2c-0.2,0.2-0.4,0.2-0.6,0.2
						c-0.2-0.1-0.3-0.2-0.4-0.3c-0.1-0.1-0.1-0.1-0.2-0.1l0,0c0,0,0,0,0,0c0,0.2-0.3,0.3-0.7,0.3c-0.1,0-0.2,0-0.2,0
						C44.2,105.2,44,105.2,43.9,105.1L43.9,105.1z"/>
					<path id="_408607760" class="st7" d="M39.3,88.1c0,1.8,0.1,3.8,0.5,7.2c0.5,3.3,0.9,6.2,0.9,7.4c-0.1,1.2-0.9,3.7-1.7,5.4
						c-0.8,1.7-0.8,1.4-0.9,2.7c-0.2,1.2,0.6,0.3,1-0.4c0.4-0.6,0.5-0.8,0.8-0.4c0.4,0.5,0.5,0.1,0.9-0.6c0.4-0.7,0.6-0.5,0.8-0.2
						c0.2,0.2,0.6,0.4,1-1c0.5-1.4,0.9-3.2,1.1-4.9c0.2-1.7,2.1-10.2,1.6-11.7c-0.6-1.5-1-2.3-1.8-3.2c-0.8-0.9-1.4-1.6-1.4-2.9
						c0-1.4,0.2-2.9,0.2-3.2c-0.1-0.4-0.2-1-0.8-0.9c-0.6,0.1-1.4,0.3-1.7,2.7C39.4,86.4,39.3,88.1,39.3,88.1z"/>
					<path id="_408607664" d="M39.4,88.1c0,0.9,0,1.8,0.1,3c0.1,1.2,0.2,2.5,0.4,4.2c0.1,0.6,0.2,1.3,0.3,1.9
						c0.4,2.5,0.7,4.6,0.6,5.6c0,0.6-0.2,1.5-0.6,2.5c-0.3,1-0.7,2.1-1.2,3c-0.1,0.2-0.2,0.4-0.3,0.5c-0.2,0.5-0.4,0.8-0.5,1
						c-0.1,0.3-0.1,0.5-0.2,1l0,0.1c-0.1,0.4,0,0.5,0.1,0.4c0.2-0.2,0.5-0.5,0.7-0.9c0-0.1,0.1-0.1,0.1-0.2c0.2-0.2,0.3-0.4,0.4-0.5
						c0.2-0.1,0.3,0,0.6,0.2c0.1,0.1,0.2,0.2,0.2,0.2c0.1-0.1,0.2-0.2,0.3-0.5c0-0.1,0.1-0.1,0.1-0.2c0.3-0.5,0.5-0.6,0.7-0.5
						c0.1,0,0.2,0.1,0.3,0.2c0,0,0,0,0,0c0.1,0.1,0.2,0.1,0.3,0.1l0,0c0.2-0.1,0.3-0.4,0.6-1.1c0.3-0.8,0.5-1.6,0.7-2.6
						c0.2-0.8,0.3-1.6,0.4-2.4c0-0.5,0.3-1.7,0.5-3.1c0.6-3.2,1.4-7.5,1-8.5c-0.3-0.7-0.5-1.3-0.8-1.8c-0.3-0.5-0.6-0.9-1-1.4
						c-0.4-0.5-0.8-0.9-1-1.3c-0.3-0.5-0.4-1-0.4-1.7c0-0.7,0.1-1.5,0.1-2.1c0-0.5,0.1-0.9,0-1.1c0-0.2-0.1-0.4-0.2-0.6
						c-0.1-0.1-0.2-0.2-0.5-0.2c-0.3,0-0.6,0.1-0.9,0.4c-0.3,0.3-0.6,1-0.7,2.1C39.5,86.3,39.4,88,39.4,88.1L39.4,88.1L39.4,88.1z
						 M39.3,91.1c-0.1-1.2-0.1-2.1-0.1-3l0,0c0,0,0,0,0,0h0c0,0,0.1-1.7,0.4-4.1c0.2-1.2,0.4-1.9,0.8-2.3c0.3-0.4,0.7-0.5,1-0.5
						c0.3-0.1,0.6,0.1,0.7,0.3c0.1,0.2,0.2,0.4,0.2,0.6c0,0.2,0,0.6,0,1.1c0,0.6-0.1,1.4-0.1,2.1c0,0.7,0.1,1.2,0.4,1.6
						c0.2,0.4,0.6,0.8,1,1.3c0.4,0.5,0.7,0.9,1,1.4c0.3,0.5,0.5,1.1,0.8,1.8c0.4,1.1-0.4,5.4-1,8.6c-0.3,1.4-0.5,2.6-0.5,3.1
						c-0.1,0.8-0.2,1.6-0.4,2.4c-0.2,0.9-0.5,1.8-0.7,2.6c-0.2,0.7-0.5,1.1-0.7,1.2l-0.1-0.1l0.1,0.1c-0.3,0.1-0.4,0-0.6-0.1
						c0,0,0,0,0,0c-0.1-0.1-0.1-0.1-0.2-0.2c-0.1,0-0.2,0-0.4,0.4c0,0.1-0.1,0.2-0.1,0.2c-0.2,0.3-0.3,0.5-0.4,0.6
						c-0.2,0.1-0.3,0-0.5-0.2c-0.1-0.2-0.2-0.2-0.2-0.2c-0.1,0-0.2,0.2-0.3,0.4c0,0.1-0.1,0.1-0.1,0.2c-0.2,0.3-0.5,0.7-0.7,0.9
						c-0.3,0.3-0.6,0.2-0.5-0.6l0-0.1c0.1-0.5,0.1-0.8,0.2-1c0.1-0.2,0.2-0.5,0.5-1c0.1-0.2,0.2-0.4,0.3-0.5
						c0.4-0.8,0.8-1.9,1.2-2.9c0.3-1,0.5-1.9,0.5-2.4c0-0.9-0.3-3-0.6-5.5c-0.1-0.6-0.2-1.2-0.3-1.9C39.5,93.6,39.3,92.3,39.3,91.1
						L39.3,91.1z"/>
					<path id="_408607496" class="st8" d="M47.2,89.7c1.8,0,3.2,1.6,3.2,3.6c0,2-1.5,3.6-3.2,3.6c-1.8,0-3.2-1.6-3.2-3.6
						C43.9,91.3,45.4,89.7,47.2,89.7z"/>
					<path id="_408607400" d="M47.2,89.5c0.9,0,1.8,0.4,2.4,1.1c0.6,0.7,1,1.6,1,2.6c0,1-0.4,1.9-1,2.6C49,96.5,48.1,97,47.2,97
						c-0.9,0-1.8-0.4-2.4-1.1c-0.6-0.7-1-1.6-1-2.6c0-1,0.4-1.9,1-2.6C45.4,90,46.3,89.5,47.2,89.5z M49.4,90.8
						c-0.6-0.6-1.3-1-2.2-1c-0.9,0-1.6,0.4-2.2,1c-0.6,0.6-0.9,1.5-0.9,2.5c0,1,0.4,1.8,0.9,2.5c0.6,0.6,1.3,1,2.2,1
						c0.9,0,1.6-0.4,2.2-1c0.6-0.6,0.9-1.5,0.9-2.5C50.3,92.3,50,91.4,49.4,90.8z"/>
					<path id="_408607232" class="st8" d="M48.1,100c-0.1-1.4,0-2.4,0-3c0-0.7,0.7-0.7,1-0.6c0.3,0.1,0.4,0.2,0.4,1.1
						c-0.1,1,0,1.7,0,2.6c0,1,0.2,1.4,0.4,2.1c0.2,0.7,0.1,0.8-0.2,1.1c-0.3,0.3-0.5,0.3-0.8,0.1c-0.3-0.2-0.7-0.3-0.7-1.2
						C48.2,101.2,48.2,101.2,48.1,100z"/>
					<path id="_408607136" d="M48,100c-0.1-1,0-1.7,0-2.3c0-0.3,0-0.5,0-0.7c0-0.1,0-0.2,0-0.3c0.1-0.2,0.2-0.3,0.4-0.4
						c0.2-0.1,0.3-0.1,0.5-0.1v0c0.1,0,0.2,0,0.3,0c0.2,0,0.3,0.1,0.4,0.3c0.1,0.2,0.1,0.4,0.1,0.9c-0.1,0.8,0,1.5,0,2.3
						c0,0.1,0,0.2,0,0.3c0,0.7,0.1,1.1,0.3,1.6c0,0.2,0.1,0.3,0.1,0.5c0.1,0.4,0.1,0.6,0.1,0.7c0,0.2-0.1,0.3-0.3,0.5
						c-0.2,0.2-0.3,0.3-0.5,0.3c-0.2,0-0.3-0.1-0.5-0.2c0,0-0.1-0.1-0.1-0.1c-0.3-0.2-0.6-0.4-0.6-1.2c0-0.7,0-0.9-0.1-1.4
						C48,100.6,48,100.3,48,100L48,100z M48.2,97.7c0,0.6-0.1,1.4,0,2.3v0c0,0.3,0,0.5,0.1,0.7c0,0.5,0.1,0.7,0.1,1.4
						c0,0.8,0.3,0.9,0.5,1.1c0,0,0.1,0.1,0.1,0.1c0.1,0.1,0.2,0.2,0.3,0.2c0.1,0,0.2-0.1,0.3-0.2c0.2-0.2,0.2-0.2,0.3-0.4
						c0-0.1,0-0.3-0.1-0.7c0-0.2-0.1-0.3-0.1-0.5c-0.1-0.5-0.2-0.9-0.3-1.6c0-0.1,0-0.2,0-0.3c0-0.8-0.1-1.5,0-2.3
						c0-0.5,0-0.7,0-0.9c0-0.1-0.1-0.1-0.2-0.2c-0.1,0-0.1,0-0.2,0v0c-0.1,0-0.3,0-0.4,0.1c-0.1,0.1-0.2,0.1-0.3,0.3
						c0,0.1,0,0.1,0,0.2C48.3,97.2,48.3,97.5,48.2,97.7z"/>
					<path id="_408606968" class="st8" d="M44.7,100c0.1-1.4,0.1-2.4,0.1-3.1c0-0.7-0.4-0.5-0.7-0.4c-0.3,0.1-0.5-0.1-0.4,0.8
						c0.1,1,0,1.7,0,2.7c0,1-0.4,1.3-0.6,2.1c-0.2,0.7-0.1,0.8,0.2,1.1c0.3,0.3,0.5,0.3,0.8,0.1c0.3-0.2,0.5-0.2,0.4-1.1
						C44.3,101.4,44.6,101.1,44.7,100z"/>
					<path id="_408606872" d="M44.6,100c0.1-0.7,0.1-1.3,0.1-1.8c0-0.5,0-0.9,0-1.3c0-0.3-0.1-0.4-0.2-0.4c-0.1,0-0.2,0-0.3,0.1
						c0,0-0.1,0-0.1,0c-0.1,0-0.1,0-0.2,0c-0.1,0-0.2,0-0.2,0.7c0,0.5,0,0.9,0,1.3c0,0.4,0,0.9,0,1.4c0,0.6-0.2,1-0.3,1.4
						c-0.1,0.2-0.2,0.4-0.2,0.7c-0.1,0.4-0.1,0.5-0.1,0.7c0,0.1,0.1,0.2,0.3,0.4c0.1,0.1,0.2,0.2,0.3,0.2c0.1,0,0.2-0.1,0.3-0.2
						c0,0,0.1,0,0.1-0.1c0.2-0.1,0.3-0.2,0.2-0.9c-0.1-0.5,0-0.8,0.1-1.2C44.5,100.8,44.5,100.5,44.6,100
						C44.6,100,44.6,100,44.6,100z M44.9,98.2c0,0.5,0,1.1-0.1,1.8h0c0,0.5-0.1,0.8-0.2,1.1c-0.1,0.4-0.1,0.6-0.1,1.1
						c0.1,0.8,0,0.9-0.3,1.1c0,0-0.1,0-0.1,0.1c-0.2,0.1-0.3,0.2-0.5,0.2c-0.1,0-0.3-0.1-0.5-0.3c-0.2-0.2-0.3-0.3-0.3-0.5
						c0-0.2,0-0.4,0.1-0.7c0.1-0.3,0.2-0.5,0.2-0.7c0.1-0.4,0.3-0.7,0.3-1.3c0-0.5,0-0.9,0-1.3c0-0.4,0-0.9,0-1.3
						c-0.1-0.9,0.1-0.9,0.4-0.9c0,0,0.1,0,0.1,0c0,0,0.1,0,0.1,0c0.1,0,0.2-0.1,0.3-0.1c0.2,0,0.4,0.1,0.4,0.6
						C44.9,97.3,44.9,97.7,44.9,98.2z"/>
					<path id="_408606704" class="st8" d="M45.6,99.9c0.1-1.4,0.1-2.3,0.1-3c0-0.7-0.4-0.5-0.7-0.4s-0.5-0.1-0.4,0.8
						c0.1,1,0.1,1.7,0,2.7c0,1-0.1,1.4-0.3,2.1c-0.2,0.7-0.1,0.8,0.2,1.1c0.3,0.3,0.5,0.3,0.8,0.1c0.3-0.2,0.5-0.2,0.4-1.1
						C45.5,101.4,45.5,101.1,45.6,99.9z"/>
					<path id="_408606608" d="M45.5,99.9c0.1-1.2,0.1-2.1,0.1-2.7l0-0.3c0-0.3-0.1-0.4-0.2-0.4c-0.1,0-0.2,0-0.3,0.1
						c0,0-0.1,0-0.1,0c-0.1,0-0.1,0-0.2,0c-0.1,0-0.2,0-0.2,0.7c0,0.5,0,0.9,0.1,1.3c0,0.4,0,0.9,0,1.3c0,0.5-0.1,0.8-0.1,1.1
						c0,0.3-0.1,0.6-0.2,1c-0.1,0.4-0.1,0.5-0.1,0.7c0,0.1,0.1,0.2,0.3,0.4c0.1,0.1,0.2,0.2,0.3,0.2c0.1,0,0.2-0.1,0.3-0.2
						c0,0,0.1,0,0.1-0.1c0.2-0.1,0.3-0.2,0.2-0.9c-0.1-0.8-0.1-1.1,0-2C45.5,100.1,45.5,100,45.5,99.9
						C45.5,99.9,45.5,99.9,45.5,99.9z M45.8,97.2c0,0.7,0,1.6-0.1,2.7h0c0,0.1,0,0.2,0,0.3c-0.1,0.9-0.1,1.2,0,2
						c0.1,0.8,0,0.9-0.3,1.1c0,0-0.1,0-0.1,0.1c-0.2,0.1-0.3,0.2-0.5,0.2c-0.1,0-0.3-0.1-0.5-0.3c-0.2-0.2-0.3-0.3-0.3-0.5
						c0-0.2,0-0.4,0.1-0.7c0.1-0.4,0.1-0.6,0.2-1c0-0.3,0.1-0.7,0.1-1.1c0-0.5,0-0.9,0-1.3c0-0.4,0-0.8-0.1-1.3
						c-0.1-0.9,0.1-0.9,0.4-0.9c0,0,0.1,0,0.1,0c0,0,0.1,0,0.1,0c0.1,0,0.2-0.1,0.3-0.1c0.2,0,0.4,0.1,0.4,0.6
						C45.8,97.1,45.8,97.1,45.8,97.2L45.8,97.2z"/>
					<path id="_408606440" class="st8" d="M47.1,100c0.1-1.4-0.2-2.3-0.2-3c0-0.7-0.7-0.7-1-0.7c-0.3,0.1-0.4,0.2-0.4,1.1
						c0.1,1,0,1.7,0,2.6c0,1,0,1.3-0.2,2.1c-0.2,0.7,0.2,0.9,0.5,1.2c0.3,0.3,0.5,0.3,0.8,0.1c0.3-0.2,0.7-0.3,0.7-1.2
						C47.5,101.3,47.1,101.2,47.1,100z"/>
					<path id="_408606344" d="M47,100c0.1-0.9,0-1.6-0.1-2.2c0-0.3-0.1-0.6-0.1-0.8c0-0.1,0-0.2,0-0.2c0-0.1-0.1-0.2-0.2-0.3
						c-0.1-0.1-0.2-0.1-0.4-0.1c-0.1,0-0.1,0-0.2,0c-0.1,0-0.2,0.1-0.2,0.2c-0.1,0.1-0.1,0.4,0,0.9c0.1,0.9,0,1.5,0,2.3
						c0,0.1,0,0.2,0,0.3c0,0.2,0,0.3,0,0.5c0,0.7,0,1-0.2,1.6c-0.1,0.6,0.1,0.8,0.3,1c0.1,0,0.1,0.1,0.2,0.1
						c0.1,0.1,0.2,0.2,0.3,0.2c0.1,0,0.2-0.1,0.3-0.2c0.1,0,0.1-0.1,0.1-0.1c0.3-0.2,0.5-0.3,0.5-1.1c0-0.4-0.1-0.7-0.1-0.9
						C47.1,101,47,100.7,47,100L47,100z M47.2,97.8c0.1,0.6,0.2,1.3,0.1,2.2l0,0c0,0.6,0.1,0.9,0.2,1.2c0.1,0.3,0.2,0.5,0.2,1
						c0,0.9-0.3,1-0.6,1.2c0,0-0.1,0.1-0.1,0.1c-0.2,0.1-0.3,0.2-0.5,0.2c-0.1,0-0.3-0.1-0.5-0.3c0,0-0.1-0.1-0.2-0.1
						c-0.3-0.3-0.6-0.5-0.4-1.2c0.1-0.6,0.2-0.9,0.2-1.6c0-0.1,0-0.3,0-0.5c0-0.1,0-0.2,0-0.3c0-0.8,0.1-1.5,0-2.3
						c0-0.5,0-0.8,0.1-0.9c0.1-0.2,0.2-0.3,0.4-0.3c0.1,0,0.2,0,0.2,0c0.2,0,0.3,0,0.5,0.1c0.2,0.1,0.3,0.2,0.4,0.4
						c0,0.1,0,0.2,0,0.3C47.1,97.3,47.1,97.5,47.2,97.8L47.2,97.8z"/>
					<path id="_408606176" class="st8" d="M47.1,100c-0.1-1.4-0.1-2.3-0.1-3c0-0.7,0.1-0.4,0.7-0.4c0.6,0,0.5-0.2,0.4,0.8
						c-0.1,1-0.1,1.7,0,2.7c0,1,0.1,1.4,0.3,2.1c0.2,0.7,0.1,0.8-0.2,1.1c-0.3,0.3-0.5,0.3-0.8,0.1c-0.3-0.2-0.5-0.2-0.4-1.1
						C47.2,101.5,47.1,101.2,47.1,100z"/>
					<path id="_408606080" d="M46.9,100c-0.1-1.2-0.1-2.1-0.1-2.7c0-0.1,0-0.1,0-0.3c0-0.4,0.1-0.5,0.3-0.5c0,0,0.1,0,0.2,0
						c0.1,0,0.2,0,0.4,0c0.1,0,0.1,0,0.2,0c0.2,0,0.3,0,0.4,0.1c0,0.1,0,0.2,0,0.4c0,0.1,0,0.2,0,0.4c0,0.5,0,0.9-0.1,1.3
						c0,0.4,0,0.9,0,1.3c0,0.5,0.1,0.8,0.1,1.1c0,0.3,0.1,0.6,0.2,1c0.1,0.4,0.1,0.6,0.1,0.7c0,0.2-0.1,0.3-0.3,0.5
						c-0.2,0.2-0.3,0.3-0.5,0.3c-0.2,0-0.3-0.1-0.5-0.2c0,0-0.1,0-0.1-0.1c-0.3-0.2-0.4-0.3-0.3-1.1c0.1-0.7,0.1-1.1,0-2
						C46.9,100.2,46.9,100.1,46.9,100L46.9,100L46.9,100z M47.1,97.3c0,0.7,0,1.5,0.1,2.7v0c0,0.1,0,0.2,0,0.3c0.1,0.9,0.1,1.3,0,2
						c-0.1,0.7,0,0.8,0.2,0.9c0,0,0.1,0,0.1,0.1c0.1,0.1,0.2,0.2,0.3,0.2c0.1,0,0.2-0.1,0.3-0.2c0.2-0.2,0.2-0.2,0.3-0.4
						c0-0.1,0-0.3-0.1-0.7c-0.1-0.4-0.1-0.6-0.2-1c0-0.3-0.1-0.7-0.1-1.1c0-0.5,0-0.9,0-1.3c0-0.4,0-0.9,0.1-1.3c0-0.2,0-0.3,0-0.4
						c0-0.2,0-0.3,0-0.3c0,0-0.1,0-0.2,0c-0.1,0-0.1,0-0.2,0c-0.2,0-0.3,0-0.5,0c0,0-0.1,0-0.1,0c0,0,0,0.1,0,0.3L47.1,97.3
						L47.1,97.3z"/>
					<g id="g154">
						<path id="_408605912" class="st8" d="M44.9,95.1c0.8,0.2,1.2,0.4,2.4,0.5c1.2,0,1.6-0.4,1.7,0.3c0.1,0.7,0.5,0.8-0.4,0.9
							c-1,0.1-2,0.1-2.8-0.1c-0.9-0.2-1.8-0.2-1.8-0.8S44.2,95,44.9,95.1z"/>
						<path id="_4086059121" class="st1" d="M44.9,95.1c0.8,0.2,1.2,0.4,2.4,0.5c1.2,0,1.6-0.4,1.7,0.3c0.1,0.7,0.5,0.8-0.4,0.9
							c-1,0.1-2,0.1-2.8-0.1c-0.9-0.2-1.8-0.2-1.8-0.8S44.2,95,44.9,95.1z"/>
					</g>
					<path id="_408605744" class="st8" d="M49.5,100c-0.1-1.4-0.1-2.4-0.1-3s1-0.7,1.3-0.6c0.3,0.1,0.4,0.2,0.4,1.1
						c-0.1,1,0,1.7,0,2.6c0,1,0.2,1.4,0.4,2.1c0.2,0.7,0.1,0.8-0.2,1.1c-0.3,0.3-0.5,0.3-0.8,0.1c-0.3-0.2-0.7-0.3-0.7-1.2
						C49.6,101.2,49.6,101.2,49.5,100z"/>
					<path id="_408605648" d="M49.3,100c-0.1-1.3-0.1-2.2-0.1-2.9c0-0.1,0,0.2,0-0.2c0-0.1,0-0.2,0-0.2c0.1-0.2,0.3-0.4,0.5-0.4
						c0.2-0.1,0.4-0.1,0.6-0.1c0.1,0,0.2,0,0.3,0c0.2,0,0.3,0.1,0.4,0.3c0.1,0.2,0.1,0.4,0.1,0.9c-0.1,0.8,0,1.5,0,2.3
						c0,0.1,0,0.2,0,0.3c0,0.7,0.1,1.1,0.3,1.6c0,0.2,0.1,0.3,0.1,0.5c0.1,0.4,0.1,0.6,0.1,0.7c0,0.2-0.1,0.3-0.3,0.5
						c-0.2,0.2-0.3,0.3-0.5,0.3c-0.2,0-0.3-0.1-0.5-0.2c0,0-0.1-0.1-0.1-0.1c-0.3-0.2-0.6-0.4-0.6-1.2c0-0.5,0-0.7-0.1-1
						C49.4,100.9,49.4,100.6,49.3,100L49.3,100L49.3,100z M49.5,97.2c0,0.7,0,1.6,0.1,2.9v0c0,0.5,0.1,0.8,0.1,1.1
						c0,0.3,0.1,0.5,0.1,1c0,0.8,0.3,0.9,0.5,1.1c0,0,0.1,0.1,0.1,0.1c0.1,0.1,0.2,0.2,0.3,0.2c0.1,0,0.2-0.1,0.3-0.2
						c0.2-0.2,0.2-0.2,0.3-0.4c0-0.1,0-0.3-0.1-0.7c0-0.2-0.1-0.3-0.1-0.5c-0.1-0.5-0.2-0.9-0.3-1.6c0-0.1,0-0.2,0-0.3
						c0-0.8-0.1-1.5,0-2.3c0-0.5,0-0.7,0-0.9c0-0.1-0.1-0.1-0.2-0.2c-0.1,0-0.1,0-0.2,0c-0.2,0-0.3,0-0.5,0.1
						c-0.2,0.1-0.3,0.2-0.3,0.3c0,0,0,0.1,0,0.2C49.5,97.3,49.5,96.9,49.5,97.2z"/>
					<path id="_408605480" class="st8" d="M44.1,89.1c-0.6,0.1-1.2,0.3-1.5,0.7c-0.2,0.4-0.2,0.5-0.1,1.4c0,0.9,0,2.2-0.1,3.7
						c-0.2,1.5,0.2,1.7,0.2,2.3c0,0.6,0.4,0.3,0.4,0.8c0,0.5,0.2,0.4,0.7,0.6c0.5,0.2,0.7-0.1,0.8-0.7c0.1-0.5,0.5-2,0.5-2.7
						c0-0.7-0.3-1.9-0.4-3c-0.1-1.1,0.3-1.3,0.6-1.5c0.3-0.2,0.8-0.7,0.4-1C45.3,89.4,44.7,89.1,44.1,89.1z"/>
					<path id="_408605312" class="st9" d="M47.5,81.7c2,0,3.6,1.4,3.6,3.2c0,1.7-1.6,3.2-3.6,3.2c-2,0-3.6-1.4-3.6-3.2
						C43.9,83.1,45.5,81.7,47.5,81.7z"/>
					<path id="_408605216" d="M47.5,81.5c1,0,2,0.4,2.7,1c0.7,0.6,1.1,1.4,1.1,2.3c0,0.9-0.4,1.7-1.1,2.3c-0.7,0.6-1.6,1-2.7,1
						c-1,0-2-0.4-2.7-1c-0.7-0.6-1.1-1.4-1.1-2.3c0-0.9,0.4-1.7,1.1-2.3C45.5,81.9,46.5,81.5,47.5,81.5z M50,82.7
						c-0.6-0.6-1.5-0.9-2.5-0.9c-1,0-1.9,0.3-2.5,0.9c-0.6,0.6-1,1.3-1,2.2c0,0.8,0.4,1.6,1,2.2c0.6,0.6,1.5,0.9,2.5,0.9
						c1,0,1.9-0.3,2.5-0.9c0.6-0.6,1-1.3,1-2.2C51,84,50.6,83.2,50,82.7z"/>
					<path id="_408605048" class="st10" d="M47.6,89.7L47.6,89.7c-0.5,0-1.9-0.8-1.6-1c0.4-0.2,1-1.3,1-2.3c0-0.3,1.2-0.3,1.2,0
						c0,1,0.6,2.1,1,2.3C49.5,88.9,48.1,89.7,47.6,89.7z"/>
					<path id="_408604952" d="M47.6,89.6L47.6,89.6L47.6,89.6L47.6,89.6c0.3,0,0.8-0.2,1.2-0.4c0.1-0.1,0.2-0.2,0.3-0.2
						c0.1-0.1,0.1-0.1,0.1-0.1c0,0,0,0,0,0c-0.2-0.1-0.5-0.5-0.7-1c-0.2-0.4-0.3-0.9-0.3-1.3c0,0-0.1-0.1-0.2-0.1
						c-0.1,0-0.2,0-0.2,0c-0.1,0-0.2,0-0.2,0c-0.1,0-0.2,0-0.2,0.1c0,0.5-0.1,0.9-0.3,1.3c-0.2,0.5-0.5,0.9-0.7,1c0,0,0,0,0,0
						c0,0,0,0.1,0.1,0.1c0.1,0.1,0.2,0.2,0.3,0.2C46.8,89.4,47.3,89.6,47.6,89.6L47.6,89.6C47.6,89.6,47.6,89.6,47.6,89.6z
						 M47.6,89.8L47.6,89.8L47.6,89.8L47.6,89.8c-0.3,0-0.9-0.2-1.3-0.5C46.2,89.2,46,89.1,46,89c-0.1-0.1-0.1-0.2-0.1-0.3
						c0-0.1,0-0.1,0.1-0.1c0.2-0.1,0.4-0.5,0.6-0.9c0.2-0.4,0.3-0.9,0.3-1.3c0-0.2,0.2-0.2,0.4-0.3c0.1,0,0.2,0,0.3,0
						c0.1,0,0.2,0,0.3,0c0.2,0,0.4,0.1,0.4,0.3c0,0.4,0.1,0.9,0.3,1.3c0.2,0.5,0.5,0.8,0.6,0.9c0.1,0,0.1,0.1,0.1,0.1
						c0,0.1,0,0.2-0.1,0.3c-0.1,0.1-0.2,0.2-0.3,0.3C48.5,89.6,47.9,89.8,47.6,89.8z"/>
					<path id="_408604784" class="st7" d="M55.7,88.1c0,1.8-0.1,3.8-0.5,7.2c-0.5,3.3-0.9,6.2-0.9,7.4c0.1,1.2,0.9,3.7,1.7,5.4
						c0.8,1.7,0.8,1.4,0.9,2.7c0.2,1.2-0.6,0.3-1-0.4c-0.4-0.6-0.5-0.8-0.8-0.4c-0.4,0.5-0.5,0.1-0.9-0.6c-0.4-0.7-0.6-0.5-0.8-0.2
						c-0.2,0.2-0.6,0.4-1-1c-0.5-1.4-0.9-3.2-1.1-4.9c-0.2-1.7-2.1-10.2-1.6-11.7c0.6-1.5,1-2.3,1.8-3.2c0.8-0.9,1.4-1.6,1.4-2.9
						c0-1.4-0.2-2.9-0.2-3.2c0.1-0.4,0.2-1,0.8-0.9c0.6,0.1,1.4,0.3,1.7,2.7C55.6,86.4,55.7,88.1,55.7,88.1z"/>
					<path id="_408604688" d="M55.8,88.1c0,0.9,0,1.8-0.1,3c-0.1,1.2-0.2,2.5-0.4,4.2c-0.1,0.7-0.2,1.3-0.3,1.9
						c-0.4,2.5-0.7,4.6-0.6,5.5c0,0.6,0.2,1.5,0.5,2.4c0.3,1,0.7,2.1,1.2,2.9c0.1,0.2,0.2,0.4,0.3,0.5c0.3,0.5,0.4,0.8,0.5,1
						c0.1,0.3,0.1,0.5,0.2,1l0,0.1c0.1,0.8-0.1,0.9-0.5,0.6c-0.2-0.2-0.5-0.6-0.7-0.9c0-0.1-0.1-0.1-0.1-0.2
						c-0.1-0.2-0.2-0.4-0.3-0.4c0,0-0.1,0-0.2,0.2c-0.2,0.3-0.4,0.3-0.5,0.2c-0.1-0.1-0.2-0.3-0.4-0.6c0-0.1-0.1-0.2-0.1-0.2
						c-0.2-0.4-0.3-0.4-0.4-0.4c0,0-0.1,0.1-0.2,0.2c0,0,0,0,0,0c-0.1,0.1-0.3,0.3-0.6,0.1c-0.2-0.1-0.4-0.4-0.7-1.2
						c-0.3-0.8-0.5-1.7-0.7-2.6c-0.2-0.8-0.3-1.6-0.4-2.4c0-0.5-0.3-1.7-0.5-3.1c-0.6-3.2-1.4-7.6-1-8.6c0.3-0.8,0.5-1.3,0.8-1.8
						c0.3-0.5,0.6-0.9,1-1.4c0.4-0.4,0.8-0.8,1-1.3c0.2-0.4,0.4-0.9,0.4-1.6c0-0.7-0.1-1.5-0.1-2.1c0-0.5-0.1-1,0-1.1
						c0-0.2,0.1-0.4,0.2-0.6c0.1-0.2,0.4-0.4,0.7-0.3c0.3,0,0.7,0.1,1,0.5c0.3,0.4,0.6,1,0.8,2.3C55.7,86.4,55.8,88.1,55.8,88.1
						L55.8,88.1C55.8,88.1,55.8,88.1,55.8,88.1L55.8,88.1L55.8,88.1z M55.5,91.1c0.1-1.2,0.1-2.1,0.1-3h0c0-0.1-0.1-1.8-0.4-4.1
						c-0.2-1.2-0.4-1.8-0.7-2.1c-0.3-0.3-0.6-0.4-0.9-0.4c-0.2,0-0.4,0.1-0.5,0.2C53,81.8,53,82,52.9,82.2c0,0.2,0,0.6,0,1.1
						c0,0.6,0.1,1.4,0.1,2.1c0,0.7-0.1,1.2-0.4,1.7c-0.3,0.5-0.6,0.9-1,1.3c-0.4,0.4-0.7,0.9-1,1.4c-0.3,0.5-0.5,1.1-0.8,1.8
						c-0.4,1,0.4,5.4,1,8.5c0.3,1.4,0.5,2.6,0.5,3.1c0.1,0.8,0.2,1.6,0.4,2.4c0.2,0.9,0.5,1.8,0.7,2.6c0.2,0.7,0.4,1,0.6,1.1
						c0.1,0.1,0.2,0,0.3-0.1c0,0,0,0,0,0c0.1-0.1,0.2-0.2,0.3-0.2c0.2-0.1,0.4,0,0.7,0.5c0.1,0.1,0.1,0.2,0.1,0.2
						c0.1,0.3,0.3,0.5,0.3,0.5c0,0,0.1,0,0.2-0.2c0.2-0.3,0.4-0.4,0.6-0.2c0.1,0.1,0.2,0.2,0.4,0.5c0,0.1,0.1,0.1,0.1,0.2
						c0.2,0.3,0.5,0.7,0.7,0.9c0.1,0.1,0.1,0,0.1-0.4l0-0.1c-0.1-0.5-0.1-0.7-0.2-1c-0.1-0.2-0.2-0.5-0.5-1
						c-0.1-0.1-0.1-0.3-0.3-0.5c-0.4-0.9-0.9-1.9-1.2-3c-0.3-1-0.5-1.9-0.6-2.5c0-1,0.3-3,0.6-5.6c0.1-0.6,0.2-1.2,0.3-1.9
						C55.3,93.6,55.4,92.3,55.5,91.1L55.5,91.1z"/>
					<path id="_408604472" d="M53.5,102.9c0-0.1-0.1-0.1-0.1-0.1c-0.1,0-0.1,0-0.1,0.1c0,0.6,0.3,1.7,0.7,2.9
						c0.5,1.5,1.1,3.1,1.5,4.1c0,0.1,0.1,0.1,0.2,0.1c0.1,0,0.1-0.1,0.1-0.1c-0.5-1-1.1-2.7-1.5-4.1
						C53.8,104.5,53.5,103.5,53.5,102.9z"/>
					<path id="_408604544" d="M52.5,104.3c0-0.1-0.1-0.1-0.1-0.1c-0.1,0-0.1,0.1-0.1,0.1c0.3,1.8,1.6,4.6,1.6,4.6
						c0,0.1,0.1,0.1,0.2,0.1c0.1,0,0.1-0.1,0.1-0.1C54.1,108.9,52.8,106.1,52.5,104.3z"/>
					<path id="_408604376" class="st10" d="M47.6,83c0.9,0,1.7,0.9,1.7,2c0,1.1-0.7,2-1.7,2c-0.9,0-1.7-0.9-1.7-2
						C45.9,84,46.7,83,47.6,83z"/>
					<path id="_408604280" d="M47.6,82.9c0.5,0,1,0.2,1.3,0.6c0.3,0.4,0.5,0.9,0.5,1.5c0,0.6-0.2,1.1-0.5,1.5
						c-0.3,0.4-0.8,0.6-1.3,0.6s-1-0.2-1.3-0.6c-0.3-0.4-0.5-0.9-0.5-1.5c0-0.6,0.2-1.1,0.5-1.5C46.6,83.2,47.1,82.9,47.6,82.9z
						 M48.7,83.7c-0.3-0.3-0.7-0.6-1.1-0.6c-0.4,0-0.8,0.2-1.1,0.6C46.2,84,46,84.5,46,85.1s0.2,1,0.5,1.4c0.3,0.3,0.7,0.6,1.1,0.6
						c0.4,0,0.8-0.2,1.1-0.6c0.3-0.4,0.5-0.8,0.5-1.4S49,84,48.7,83.7z"/>
					<path id="_408604112" class="st11" d="M48.1,82.6c1.2,0,2.3,2.1,1.8,2.4c-0.5,0.3-0.5-1-1.4-1.2C47.6,83.6,47.2,82.6,48.1,82.6
						z"/>
					<path id="_408604016" d="M48.1,82.5c0.5,0,1,0.3,1.3,0.7c0.2,0.2,0.4,0.5,0.5,0.8c0.1,0.3,0.2,0.5,0.2,0.7c0,0.2,0,0.4-0.2,0.4
						c-0.2,0.1-0.3,0.1-0.5,0c-0.1-0.1-0.1-0.2-0.2-0.3h0c-0.2-0.3-0.4-0.7-0.8-0.8h0c-0.4-0.1-0.8-0.3-0.9-0.6
						c-0.1-0.1-0.1-0.2-0.1-0.3c0-0.1,0-0.2,0.1-0.3C47.7,82.6,47.8,82.5,48.1,82.5L48.1,82.5L48.1,82.5z M49.3,83.3
						c-0.3-0.4-0.7-0.6-1.1-0.6l0,0c-0.2,0-0.3,0.1-0.4,0.1c0,0.1-0.1,0.1-0.1,0.2c0,0.1,0,0.2,0.1,0.2c0.1,0.2,0.4,0.4,0.8,0.5v0
						c0.6,0.1,0.8,0.6,1,0.9l0,0c0.1,0.1,0.1,0.2,0.2,0.3c0,0,0.1,0.1,0.1,0c0.1,0,0.1-0.1,0.1-0.3c0-0.2-0.1-0.4-0.2-0.6
						C49.6,83.8,49.5,83.5,49.3,83.3z"/>
					<path id="_408603848" class="st11" d="M47.1,82.6c-1.2,0-2.3,2.1-1.8,2.4c0.5,0.3,0.5-1,1.4-1.2C47.6,83.6,48,82.6,47.1,82.6z"
						/>
					<path id="_408603752" d="M47.1,82.7c-0.4,0-0.8,0.3-1.1,0.6c-0.2,0.2-0.4,0.5-0.5,0.7c-0.1,0.2-0.2,0.5-0.2,0.6
						c0,0.1,0,0.2,0.1,0.3c0.1,0,0.1,0,0.1,0c0.1-0.1,0.1-0.2,0.2-0.3c0.2-0.3,0.4-0.8,1-0.9c0.4-0.1,0.6-0.3,0.8-0.5
						c0.1-0.1,0.1-0.2,0.1-0.2c0-0.1,0-0.1-0.1-0.2C47.4,82.7,47.2,82.7,47.1,82.7C47.1,82.7,47.1,82.7,47.1,82.7z M45.7,83.2
						c0.4-0.4,0.8-0.7,1.3-0.7h0c0.3,0,0.4,0.1,0.5,0.2c0.1,0.1,0.1,0.2,0.1,0.3c0,0.1,0,0.2-0.1,0.3c-0.2,0.3-0.5,0.5-0.9,0.6
						c-0.4,0.1-0.7,0.5-0.8,0.8c-0.1,0.1-0.1,0.2-0.2,0.3c-0.1,0.1-0.3,0.2-0.5,0C45.1,85,45,84.8,45,84.6c0-0.2,0.1-0.5,0.2-0.7
						C45.3,83.7,45.5,83.4,45.7,83.2z"/>
					<path id="_408603584" class="st11" d="M46.6,86.7c-0.4-0.1-1.1-0.9-1.1-1.3c0-0.4,0.6-1.3,0.6-1c-0.1,0.3-0.1,0.7,0,1.3
						C46.1,86.4,46.5,86.5,46.6,86.7z"/>
					<path id="_408603488" d="M46.5,86.8c-0.2-0.1-0.6-0.3-0.8-0.6c-0.2-0.3-0.4-0.6-0.4-0.8c0-0.3,0.3-0.7,0.4-1
						c0-0.1,0.1-0.1,0.1-0.1c0.1-0.1,0.2-0.1,0.2,0c0,0,0,0.1,0,0.1c0,0,0,0,0,0.1c-0.1,0.3-0.1,0.6,0,1.2c0.1,0.4,0.3,0.6,0.4,0.8
						c0.1,0.1,0.1,0.1,0.2,0.2L46.5,86.8l0.2-0.1C46.7,86.7,46.7,86.8,46.5,86.8C46.6,86.8,46.5,86.8,46.5,86.8L46.5,86.8z
						 M45.9,86.1c0,0,0.1,0.1,0.1,0.1c-0.1-0.1-0.1-0.3-0.1-0.5c-0.1-0.4-0.1-0.8,0-1c-0.1,0.2-0.3,0.5-0.3,0.7
						C45.5,85.6,45.7,85.8,45.9,86.1z"/>
					<path id="_408603320" class="st11" d="M48.6,86.7c0.4-0.1,1.1-0.9,1.1-1.3c0-0.4-0.6-1.3-0.6-1c0.1,0.3,0.1,0.7,0,1.3
						C49.1,86.4,48.7,86.5,48.6,86.7z"/>
					<path id="_408603224" d="M49.2,86.2c0,0,0.1-0.1,0.1-0.1c0.2-0.2,0.4-0.5,0.3-0.6c0-0.2-0.2-0.5-0.3-0.7c0,0.3,0.1,0.6,0,1
						C49.3,85.9,49.2,86.1,49.2,86.2z M49.5,86.2c-0.3,0.3-0.6,0.6-0.8,0.6c0,0-0.1,0-0.1,0c-0.1,0-0.1-0.1-0.1-0.1l0.1,0l-0.1,0
						c0-0.1,0.1-0.1,0.2-0.2c0.1-0.1,0.3-0.3,0.4-0.8c0.1-0.6,0-0.9,0-1.2c0-0.1,0-0.1,0-0.1c0-0.1,0-0.1,0-0.1
						c0.1-0.1,0.1-0.1,0.2,0c0,0,0.1,0.1,0.1,0.1c0.2,0.2,0.4,0.7,0.4,1C49.9,85.6,49.7,85.9,49.5,86.2L49.5,86.2z"/>
					<path id="_408603008" d="M41.7,102.9c0-0.1,0-0.1-0.1-0.1c-0.1,0-0.1,0-0.1,0.1c0,0.6-0.3,1.6-0.7,2.8
						c-0.5,1.5-1.1,3.1-1.5,4.1c0,0.1,0,0.1,0.1,0.1c0.1,0,0.1,0,0.2-0.1c0.5-1,1.1-2.7,1.5-4.1C41.4,104.6,41.7,103.5,41.7,102.9z"
						/>
					<path id="_408603080" d="M42.7,104.4c0-0.1,0-0.1-0.1-0.1c-0.1,0-0.1,0-0.1,0.1c-0.3,1.7-1.6,4.6-1.6,4.6c0,0.1,0,0.1,0.1,0.1
						c0.1,0,0.1,0,0.2-0.1C41.1,109,42.5,106.1,42.7,104.4z"/>
					<path id="_408602912" class="st12" d="M47.6,89.3c0.6,0,1.3,0,1.5-0.4c0.1-0.4,0.1-0.5,0.7-0.4c0.6,0.1,1.7-0.1,2.3,0.7
						c0.6,0.8,0.4,0.7,0.2,1.2c-0.1,0.5-3,5-3.6,4.8c-0.6-0.2-1,0-1.5-0.5c-0.4-0.5-0.9-1.6-1.1-2.6c-0.2-1,0-1.5-0.5-2
						c-0.5-0.4-1-0.7-1.7-0.8c-0.6-0.1-1.1,0.1-0.5-0.3c0.6-0.4,1-0.6,1.6-0.5c0.6,0.1,0.7,0.2,1.1,0.4C46.6,89.2,47,89.3,47.6,89.3
						z"/>
					<path id="_408602672" d="M47.6,89.2c0.5,0,1.2,0,1.3-0.3l0,0l0,0l0,0c0.1-0.4,0.2-0.5,0.9-0.4c0.1,0,0.3,0,0.5,0
						c0.6,0,1.4,0.1,1.9,0.7c0.5,0.7,0.5,0.7,0.4,1c0,0.1-0.1,0.2-0.1,0.3c0,0.1,0,0.1-0.1,0.2c-0.3,0.5-1,1.7-1.7,2.7
						c-0.8,1.1-1.6,2-1.9,1.9c0,0,0,0,0,0l0,0c-0.2-0.1-0.4-0.1-0.6-0.1c-0.3,0-0.7-0.1-1-0.4c-0.2-0.3-0.5-0.7-0.7-1.2
						c-0.2-0.4-0.4-0.9-0.5-1.4c-0.1-0.3-0.1-0.6-0.1-0.9c0-0.5-0.1-0.8-0.3-1c-0.2-0.2-0.5-0.4-0.7-0.5c-0.3-0.1-0.5-0.2-0.8-0.2
						c-0.2,0-0.3,0-0.5,0c-0.2,0-0.3,0-0.4-0.1c-0.1-0.1,0-0.2,0.3-0.4c0.3-0.2,0.6-0.4,0.8-0.5c0.3-0.1,0.6-0.1,0.9-0.1
						c0.5,0.1,0.6,0.1,0.9,0.3c0.1,0.1,0.2,0.1,0.3,0.2c0.2,0.1,0.4,0.2,0.6,0.2C47.1,89.1,47.3,89.2,47.6,89.2z M49.1,88.9
						c-0.1,0.5-0.9,0.5-1.6,0.5c-0.3,0-0.5,0-0.8-0.1c-0.2-0.1-0.4-0.1-0.7-0.3c-0.1-0.1-0.2-0.1-0.3-0.2c-0.2-0.1-0.3-0.2-0.8-0.2
						c-0.3,0-0.5,0-0.8,0.1c-0.2,0.1-0.5,0.2-0.8,0.4c-0.2,0.1-0.3,0.1-0.2,0.1c0,0,0.1,0,0.2,0c0.1,0,0.3,0,0.5,0
						c0.3,0,0.6,0.1,0.9,0.3c0.3,0.1,0.6,0.3,0.8,0.6c0.3,0.3,0.4,0.6,0.4,1.1c0,0.2,0.1,0.5,0.1,0.9c0.1,0.5,0.3,1,0.4,1.4
						c0.2,0.5,0.4,0.9,0.7,1.2c0.2,0.3,0.5,0.3,0.8,0.3c0.2,0,0.4,0,0.6,0.1c0.2,0,0.9-0.8,1.7-1.8c0.7-1,1.5-2.2,1.7-2.7
						c0-0.1,0.1-0.2,0.1-0.2c0-0.1,0.1-0.2,0.1-0.3c0.1-0.2,0.1-0.3-0.3-0.8c-0.4-0.6-1.1-0.6-1.7-0.6c-0.2,0-0.4,0-0.5,0
						C49.2,88.5,49.2,88.6,49.1,88.9L49.1,88.9L49.1,88.9C49.1,88.9,49.1,88.9,49.1,88.9z M48.8,95.1L48.8,95.1L48.8,95.1L48.8,95.1
						z"/>
					<path id="_408602744" d="M47.4,89.8c0,0.1,0.1,0.1,0.1,0.2c0.2,0.3,0.5,0.6,0.5,1.2c0,0.1,0,0.2,0,0.4c0,0.3,0.1,0.6,0,0.8
						c-0.1,0.2-0.4,0.3-0.9,0.1c-1-0.4-1.2-0.9-1.3-1.2v0c0,0,0-0.1,0-0.1h0c0-0.1-0.1-0.2-0.1-0.3c0-0.2,0-0.4-0.3-0.6
						c-0.2-0.2-0.3-0.3-0.3-0.5c0-0.1,0-0.2,0-0.3c0-0.1,0.1-0.2,0.2-0.2c0.1,0,0.2-0.1,0.3-0.1c0.3,0,0.6,0,0.9,0.2
						C47,89.4,47.2,89.5,47.4,89.8L47.4,89.8L47.4,89.8z M47.4,90.1c0-0.1-0.1-0.1-0.1-0.2c-0.2-0.2-0.4-0.3-0.7-0.4
						c-0.2-0.1-0.5-0.1-0.8-0.1c-0.1,0-0.2,0-0.2,0c-0.1,0-0.1,0.1-0.1,0.1c0,0,0,0.1,0,0.2c0,0.1,0.2,0.3,0.3,0.4
						c0.3,0.3,0.3,0.5,0.3,0.8c0,0.1,0,0.2,0.1,0.3v0c0,0,0,0.1,0,0.1h0c0.1,0.3,0.3,0.7,1.1,1.1c0.4,0.1,0.5,0.1,0.6,0
						c0.1-0.1,0-0.4,0-0.7c0-0.1,0-0.2,0-0.4C47.8,90.6,47.6,90.3,47.4,90.1L47.4,90.1z"/>
					<path id="_408602576" class="st12" d="M46.2,89.4c0.7,0.1,0.8-0.1,0.5-0.4c-0.3-0.4-0.3-0.5-1-0.5c-0.7,0-1.2,0.1-0.7,0.5
						C45.5,89.4,45.5,89.4,46.2,89.4z"/>
					<path id="_408602456" d="M46.2,89.3c0.3,0,0.5,0,0.5,0c0,0,0-0.1-0.1-0.2c0-0.1-0.1-0.1-0.1-0.2c-0.2-0.2-0.3-0.3-0.8-0.3
						c-0.3,0-0.6,0-0.7,0.1c-0.1,0,0,0.1,0.1,0.3c0.4,0.4,0.4,0.4,1,0.4C46.1,89.3,46.2,89.3,46.2,89.3L46.2,89.3
						C46.2,89.3,46.2,89.3,46.2,89.3z M47,89.4c-0.1,0.1-0.4,0.1-0.7,0.1c0,0-0.1,0-0.1,0c-0.7,0-0.7,0-1.2-0.4
						c-0.3-0.3-0.3-0.5-0.1-0.6c0.2-0.1,0.5-0.1,0.8-0.1c0.7,0,0.8,0.1,1,0.4c0,0,0.1,0.1,0.1,0.1C47.1,89.1,47.1,89.3,47,89.4z"/>
					<path id="_408602312" class="st13" d="M47.7,90h6.5c0,3.8-1.9,13-3.2,13C49.6,103,47.7,93.9,47.7,90z"/>
					<path id="_408602072" d="M47.7,89.9h6.5h0.1V90c0,2.1-0.6,5.7-1.3,8.6c-0.6,2.5-1.4,4.5-2.1,4.5c-0.7,0-1.4-2-2.1-4.5
						c-0.7-2.9-1.3-6.5-1.3-8.6v-0.1H47.7z M54,90.1h-6.2c0,2.1,0.6,5.6,1.3,8.5c0.6,2.4,1.3,4.3,1.8,4.3c0.5,0,1.2-1.9,1.8-4.3
						C53.5,95.8,54,92.2,54,90.1z"/>
					<path id="_408602144" d="M48.6,90.8h4.6h0.1v0.1c0,1.4-0.4,4.5-1,7c-0.4,1.9-0.9,3.4-1.4,3.4c-0.5,0-1-1.5-1.4-3.4
						c-0.5-2.4-1-5.6-1-7v-0.1C48.5,90.8,48.6,90.8,48.6,90.8z M53.1,91h-4.3c0,1.4,0.4,4.5,1,6.8c0.4,1.8,0.8,3.2,1.2,3.2
						c0.4,0,0.8-1.4,1.2-3.2C52.6,95.4,53.1,92.4,53.1,91z"/>
					<path id="_408601976" class="st14" d="M50.4,90.9h0.9v1.5h1.8c0,0.2-0.1,0.5-0.1,0.8h-1.7v7.6c-0.1,0.3-0.3,0.4-0.4,0.4
						c-0.2,0-0.3-0.2-0.5-0.5v-7.5h-1.6c0-0.3-0.1-0.5-0.1-0.8h1.7C50.4,92.4,50.4,90.9,50.4,90.9z"/>
					<path id="_408601880" d="M50.4,90.8h0.9h0.1v0.1v1.4h1.7h0.1l0,0.1c0,0.1,0,0.2,0,0.4c0,0.1,0,0.3,0,0.4l0,0.1H53h-1.6v7.5v0
						l0,0c-0.1,0.1-0.2,0.2-0.2,0.3c-0.1,0.1-0.2,0.1-0.3,0.1c-0.1,0-0.2-0.1-0.3-0.2c-0.1-0.1-0.2-0.2-0.3-0.4l0,0v0v-7.4h-1.5
						h-0.1l0-0.1c0-0.1,0-0.3,0-0.4c0-0.2,0-0.3,0-0.4l0-0.1h0.1h1.6v-1.4v-0.1C50.3,90.8,50.4,90.8,50.4,90.8z M51.2,91h-0.7v1.4
						v0.1h-0.1h-1.6c0,0.1,0,0.2,0,0.3c0,0.1,0,0.2,0,0.3h1.5h0.1v0.1v7.4c0.1,0.1,0.1,0.3,0.2,0.3c0.1,0.1,0.1,0.1,0.1,0.1
						c0,0,0.1,0,0.1-0.1c0.1-0.1,0.1-0.1,0.2-0.3v-7.5V93h0.1h1.6c0-0.1,0-0.2,0-0.3c0-0.1,0-0.2,0-0.3h-1.6h-0.1v-0.1L51.2,91
						L51.2,91z"/>
					<path id="_408601712" class="st15" d="M42.5,101.8c0.2,0,0.5-0.1,0.5-0.3l-0.1-2.8c0-0.2-0.1-0.3-0.3-0.3h0
						c-0.2,0-0.3,0.1-0.3,0.3l-0.2,2.8C42,101.6,42.3,101.8,42.5,101.8z"/>
					<path id="_408601616" d="M42.5,101.7C42.5,101.7,42.5,101.7,42.5,101.7c0.1,0,0.2,0,0.2-0.1c0.1,0,0.1-0.1,0.1-0.1h0h0l0,0h0
						c0,0,0,0,0,0v0l-0.1-2.8c0-0.1,0-0.1-0.1-0.2c0,0-0.1,0-0.1-0.1l0,0h0c0,0-0.1,0-0.1,0c0,0-0.1,0.1-0.1,0.1l-0.2,2.8l0,0
						c0,0,0,0,0,0v0c0,0,0,0.1,0.1,0.1C42.3,101.6,42.4,101.7,42.5,101.7L42.5,101.7C42.5,101.7,42.5,101.7,42.5,101.7z M42.5,101.9
						L42.5,101.9C42.5,101.9,42.5,101.9,42.5,101.9L42.5,101.9c-0.1,0-0.3,0-0.4-0.1c-0.1-0.1-0.2-0.2-0.2-0.3l0,0c0,0,0,0,0,0v0
						l0.2-2.8c0-0.1,0.1-0.2,0.1-0.3c0.1-0.1,0.2-0.1,0.3-0.1l0,0h0h0c0.1,0,0.2,0.1,0.3,0.1c0.1,0.1,0.1,0.2,0.1,0.3l0.1,2.8l0,0
						l0,0l-0.1,0l0.1,0c0,0.1-0.1,0.2-0.2,0.3C42.7,101.8,42.6,101.9,42.5,101.9L42.5,101.9z"/>
					<path id="_408601448" class="st15" d="M42.3,98l0.6,0c0-1.5,0.5-16.3,0.1-16.3C42.6,81.7,42.3,96.5,42.3,98z"/>
					<path id="_408601352" d="M42.4,97.9l0.3,0c0-0.2,0-0.5,0-0.8c0-1,0.1-2.5,0.1-4.2c0.1-4.8,0.2-11.1,0.1-11.1
						c-0.2,0-0.3,6.3-0.4,11.1c0,1.7-0.1,3.2-0.1,4.2C42.4,97.5,42.4,97.7,42.4,97.9z M42.9,98.1l-0.6,0l-0.1,0l0-0.1
						c0-0.2,0-0.5,0-0.9c0-1,0-2.5,0.1-4.2c0.1-4.9,0.3-11.3,0.7-11.3c0.4,0,0.3,6.4,0.2,11.3c0,1.7-0.1,3.3-0.1,4.2
						c0,0.4,0,0.8,0,0.9l0,0.1L42.9,98.1z"/>
					<path id="_408601184" class="st15" d="M42.6,97.8c0.7,0,1.2,0.4,1.2,0.9l0,0l-2.4,0l0,0C41.4,98.1,41.9,97.7,42.6,97.8z"/>
					<path id="_408601088" d="M42.6,97.7c0.4,0,0.7,0.1,0.9,0.3c0.2,0.2,0.4,0.4,0.4,0.7v0l0,0l0,0.1l-0.1,0l-2.4,0l-0.1,0l0-0.1
						l0,0v0c0-0.3,0.2-0.5,0.4-0.7C41.9,97.8,42.2,97.6,42.6,97.7z M43.3,98.1c-0.2-0.1-0.5-0.2-0.8-0.2c-0.3,0-0.6,0.1-0.8,0.2
						c-0.2,0.1-0.3,0.3-0.3,0.5l2.1,0C43.6,98.4,43.5,98.2,43.3,98.1z"/>
					<path id="_408600920" class="st16" d="M43.1,100c0.4-0.3,0.8-0.5,0.6-0.9c-0.2-0.4-0.6-0.4-1-0.3c-0.4,0-0.9,0.3-0.8,0.5
						c0.1,0.3,0.6,0.2,0.4,0.5s-0.2,0.7,0.1,0.7C42.9,100.5,42.8,100.2,43.1,100z"/>
					<path id="_408600752" d="M43,99.9c0.1-0.1,0.1-0.1,0.2-0.1h0c0.3-0.2,0.6-0.4,0.4-0.7c-0.1-0.2-0.2-0.2-0.4-0.3
						c-0.1,0-0.3,0-0.5,0h0c-0.1,0-0.3,0.1-0.4,0.1c-0.1,0-0.2,0.1-0.2,0.1c0,0-0.1,0.1-0.1,0.1h0c0,0,0,0,0,0
						c0,0.1,0.1,0.1,0.2,0.1c0.2,0.1,0.4,0.2,0.2,0.4c-0.1,0.1-0.1,0.2-0.1,0.3c0,0.1,0,0.1,0,0.1c0,0,0,0.1,0.1,0.1
						c0,0,0.1,0,0.1,0c0.2,0,0.2-0.1,0.3-0.2C42.8,100.1,42.9,100,43,99.9L43,99.9L43,99.9z M43.3,99.9L43.3,99.9
						c-0.1,0-0.1,0.1-0.2,0.1l0,0c-0.1,0.1-0.1,0.2-0.2,0.2c-0.1,0.2-0.2,0.3-0.5,0.3c-0.1,0-0.1,0-0.2,0c-0.1,0-0.2-0.1-0.2-0.2
						c0-0.1,0-0.2,0-0.2c0-0.1,0.1-0.2,0.1-0.4c0.1-0.1,0-0.1-0.1-0.2c-0.1-0.1-0.2-0.1-0.3-0.2c0,0,0-0.1,0-0.1v0
						c0-0.1,0-0.2,0.1-0.3c0.1-0.1,0.2-0.1,0.3-0.2c0.1-0.1,0.3-0.1,0.5-0.1l0,0c0.2,0,0.4,0,0.6,0c0.2,0.1,0.4,0.2,0.5,0.4
						C44.1,99.4,43.7,99.7,43.3,99.9z"/>
					<path id="_406193664" class="st17" d="M46.4,115.9c-0.1,0.3-0.1,0.5-1.1,1c-1,0.5-1.3,0.7-1.4,0s0.1-0.7,0.6-1.1
						c0.5-0.3,0.8-0.5,1.3-0.4C46.4,115.7,46.3,115.4,46.4,115.9L46.4,115.9z"/>
					<path id="_406192320" d="M46.6,115.9L46.6,115.9c-0.1,0.3-0.1,0.6-1.1,1c-0.1,0.1-0.2,0.1-0.3,0.2c-0.4,0.2-0.6,0.3-0.8,0.3
						c-0.3,0-0.4-0.1-0.4-0.5c-0.1-0.7,0.1-0.8,0.6-1.1c0,0,0.1-0.1,0.1-0.1c0.3-0.2,0.5-0.3,0.7-0.4c0.2-0.1,0.4-0.1,0.7,0
						c0.1,0,0.2,0,0.3,0c0.1,0,0.1,0,0.2,0c0.1,0,0.1,0.1,0.1,0.2C46.5,115.8,46.5,115.9,46.6,115.9L46.6,115.9L46.6,115.9
						L46.6,115.9z M45.3,116.8c0.9-0.4,1-0.6,1-0.9c0-0.1,0-0.1,0-0.1c0-0.1-0.1-0.1-0.1-0.2c0,0,0,0,0,0c-0.1,0-0.2,0-0.3-0.1
						c-0.2-0.1-0.4,0-0.6,0c-0.2,0.1-0.4,0.2-0.6,0.3c0,0-0.1,0.1-0.1,0.1c-0.4,0.2-0.5,0.3-0.5,0.9c0,0.2,0.1,0.3,0.2,0.3
						c0.1,0,0.4-0.1,0.7-0.3C45.1,116.9,45.2,116.9,45.3,116.8L45.3,116.8z"/>
					<path id="_406199496" class="st18" d="M45.3,115.7c-0.4,0.4-0.9,0.9-0.4,0.9c0.5,0.1,0.7,0.1,1-0.2c0.3-0.4,0.6-0.6,0.1-0.7
						C45.4,115.6,45.6,115.5,45.3,115.7z"/>
					<path id="_406197264" d="M45.4,115.7c-0.2,0.2-0.4,0.4-0.5,0.5c-0.1,0.1-0.1,0.2,0,0.2c0,0,0.1,0,0.2,0c0.3,0,0.5,0.1,0.7-0.2
						c0,0,0.1-0.1,0.1-0.1c0.1-0.1,0.2-0.3,0.2-0.3c0,0,0-0.1-0.2-0.1c-0.2,0-0.3-0.1-0.4-0.1c0,0,0,0,0,0
						C45.5,115.7,45.5,115.7,45.4,115.7L45.4,115.7L45.4,115.7z M44.6,116.2c0.1-0.2,0.3-0.4,0.5-0.6l0,0l0,0l0,0
						c0.1-0.1,0.2-0.1,0.2-0.1c0,0,0.1,0,0.1,0c0,0,0.1,0,0.3,0.1c0.3,0,0.4,0.1,0.4,0.3c0,0.1-0.1,0.3-0.3,0.4c0,0-0.1,0.1-0.1,0.1
						c-0.3,0.4-0.5,0.4-0.9,0.3c0,0-0.1,0-0.1,0C44.5,116.6,44.5,116.4,44.6,116.2L44.6,116.2z"/>
					<path id="_405488232" class="st17" d="M48.9,115.9c0.1,0.3,0.1,0.5,1.1,1c1,0.5,1,0.5,1.5,0.3c0.5-0.3-0.3-1-0.8-1.3
						c-0.5-0.3-0.8-0.5-1.3-0.4C48.9,115.6,49,115.4,48.9,115.9L48.9,115.9z"/>
					<path id="_408694552" d="M48.7,115.9L48.7,115.9L48.7,115.9L48.7,115.9c0-0.1,0-0.1,0-0.2c0.1-0.1,0.1-0.2,0.1-0.2
						c0.1,0,0.1,0,0.2,0c0.1,0,0.1,0,0.3,0c0.3-0.1,0.5-0.1,0.7,0c0.2,0.1,0.4,0.2,0.7,0.4c0.3,0.2,0.7,0.5,0.9,0.8
						c0.1,0.1,0.1,0.2,0.1,0.3c0,0.1,0,0.2-0.1,0.3c0,0-0.1,0.1-0.2,0.1h0c-0.5,0.3-0.6,0.2-1.3-0.1c-0.1,0-0.2-0.1-0.3-0.1
						C48.8,116.4,48.8,116.2,48.7,115.9z M49,115.9c0,0.2,0.1,0.4,1,0.9c0.1,0.1,0.2,0.1,0.3,0.1c0.6,0.3,0.7,0.3,1.1,0.1l0,0
						c0,0,0.1,0,0.1-0.1c0,0,0-0.1,0-0.1c0-0.1,0-0.1-0.1-0.2c-0.2-0.3-0.5-0.6-0.8-0.7c-0.2-0.2-0.4-0.3-0.6-0.3
						c-0.2-0.1-0.3-0.1-0.6,0c-0.2,0-0.3,0.1-0.3,0.1c0,0,0,0,0,0c0,0,0,0-0.1,0.2C49,115.8,49,115.8,49,115.9L49,115.9z"/>
					<path id="_408695848" class="st18" d="M50,115.6c0.4,0.4,0.9,0.9,0.4,0.9c-0.5,0.1-0.7,0.1-1-0.2s-0.6-0.6-0.1-0.7
						C49.9,115.5,49.7,115.4,50,115.6z"/>
					<path id="_408695152" d="M50.1,115.5c0.2,0.2,0.4,0.4,0.5,0.6c0.2,0.3,0.2,0.4-0.2,0.5c-0.1,0-0.1,0-0.1,0
						c-0.4,0.1-0.6,0.1-0.9-0.3c0,0-0.1-0.1-0.1-0.1c-0.1-0.2-0.2-0.3-0.3-0.4c0-0.2,0.1-0.3,0.4-0.3c0.2,0,0.3-0.1,0.3-0.1
						c0,0,0.1,0,0.1,0C49.9,115.4,49.9,115.4,50.1,115.5L50.1,115.5L50.1,115.5L50.1,115.5L50.1,115.5z M50.4,116.2
						c-0.1-0.2-0.3-0.4-0.5-0.5l0,0c-0.1,0-0.1-0.1-0.1-0.1c0,0,0,0,0,0c-0.1,0-0.1,0.1-0.4,0.1c-0.1,0-0.2,0-0.2,0.1
						c0,0.1,0.1,0.2,0.2,0.3c0,0,0.1,0.1,0.1,0.1c0.2,0.3,0.4,0.2,0.7,0.2c0.1,0,0.1,0,0.2,0C50.5,116.4,50.5,116.3,50.4,116.2
						L50.4,116.2z"/>
					<path id="_408696448" d="M44.5,103.9c0.1,0,0.2,0,0.2,0.1c0.1,0.1,0.1,0.1,0.1,0.2c0,0.1,0,0.2-0.1,0.2
						c-0.1,0.1-0.1,0.1-0.2,0.1c-0.1,0-0.2,0-0.2-0.1c-0.1-0.1-0.1-0.1-0.1-0.2c0-0.1,0-0.2,0.1-0.2
						C44.3,103.9,44.4,103.9,44.5,103.9z M44.6,104.1C44.6,104.1,44.5,104.1,44.6,104.1c-0.1,0-0.1,0-0.1,0c0,0,0,0,0,0.1
						c0,0,0,0,0,0.1c0,0,0,0,0.1,0s0.1,0,0.1,0C44.6,104.2,44.6,104.2,44.6,104.1C44.6,104.1,44.6,104.1,44.6,104.1z"/>
					<path id="_408696304" d="M44.9,105.3c0.1,0,0.2,0,0.2,0.1l0,0c0.1,0,0.1,0.1,0.1,0.2s0,0.1-0.1,0.2v0c-0.1,0-0.1,0.1-0.2,0.1
						c-0.1,0-0.2,0-0.2-0.1c-0.1,0-0.1-0.1-0.1-0.2c0-0.1,0-0.1,0.1-0.2h0C44.7,105.3,44.8,105.3,44.9,105.3L44.9,105.3z
						 M44.9,105.5L44.9,105.5C44.9,105.5,44.9,105.5,44.9,105.5C44.8,105.5,44.8,105.5,44.9,105.5L44.9,105.5
						C44.8,105.5,44.8,105.6,44.9,105.5C44.8,105.6,44.8,105.6,44.9,105.5C44.8,105.6,44.8,105.6,44.9,105.5
						C44.9,105.6,44.9,105.6,44.9,105.5L44.9,105.5C44.9,105.6,44.9,105.6,44.9,105.5C44.9,105.6,44.9,105.5,44.9,105.5z"/>
					<path id="_408696184" d="M49.8,105.6c0.1,0,0.2,0,0.2,0.1c0.1,0,0.1,0.1,0.1,0.2c0,0.1,0,0.1-0.1,0.2v0c-0.1,0-0.1,0.1-0.2,0.1
						c-0.1,0-0.2,0-0.2-0.1c-0.1,0-0.1-0.1-0.1-0.2c0-0.1,0-0.1,0.1-0.2l0,0C49.6,105.6,49.7,105.6,49.8,105.6z M49.8,105.8
						C49.8,105.8,49.8,105.8,49.8,105.8C49.8,105.8,49.7,105.8,49.8,105.8L49.8,105.8c-0.1,0-0.1,0-0.1,0
						C49.7,105.9,49.7,105.9,49.8,105.8C49.7,105.9,49.8,105.9,49.8,105.8C49.8,105.9,49.8,105.9,49.8,105.8L49.8,105.8
						C49.8,105.9,49.8,105.9,49.8,105.8C49.8,105.8,49.8,105.8,49.8,105.8z"/>
				</g>
				<g id="g210">
					<path id="_206846368" d="M48.4,84.5c0.3,0,0.6,0.1,0.5,0.1c0,0.1-0.2,0-0.5,0s-0.5,0.1-0.5,0C47.8,84.5,48.1,84.5,48.4,84.5z"
						/>
					<path id="_405652416" d="M47.4,84.6C47.4,84.6,47.4,84.6,47.4,84.6C47.3,84.6,47.3,84.6,47.4,84.6c0,0.1,0,0.1,0,0.2
						c0,0,0,0.1,0,0.2c0,0.1-0.1,0.3-0.1,0.4c-0.1,0.1-0.1,0.2-0.1,0.3c0,0,0.1,0,0.1,0c0,0,0,0,0-0.1c0,0,0-0.1,0.1-0.2
						c0.1-0.1,0.1-0.3,0.1-0.4c0-0.1,0-0.2-0.1-0.3C47.5,84.6,47.5,84.6,47.4,84.6z"/>
					<path id="_212050776" d="M47.4,85.6C47.4,85.6,47.4,85.6,47.4,85.6C47.4,85.7,47.4,85.7,47.4,85.6c0,0.1,0.1,0.1,0.2,0.1
						c0.1,0,0.1,0,0.2-0.1c0,0,0,0,0-0.1c0,0-0.1,0-0.1,0c0,0-0.1,0-0.1,0C47.5,85.6,47.5,85.6,47.4,85.6z"/>
					<path id="_212046200" d="M46.8,84.8c0.3,0,0.5,0,0.5,0.1s0,0.2-0.3,0.2c-0.3,0-0.6-0.2-0.6-0.2S46.5,84.8,46.8,84.8z"/>
					<path id="_406300832" d="M48.4,84.8c-0.3,0-0.5,0-0.5,0.1s0,0.2,0.3,0.2c0.3,0,0.6-0.2,0.6-0.2S48.7,84.8,48.4,84.8z"/>
					<path id="_406296728" d="M46.8,84.5c-0.3,0-0.6,0.1-0.5,0.1c0,0.1,0.2,0,0.5,0c0.3,0,0.5,0.1,0.5,0
						C47.3,84.5,47.1,84.5,46.8,84.5z"/>
					<path id="_406296776" d="M47.7,86.1c-0.1,0-0.1,0-0.2,0c-0.1,0,0,0-0.2,0c-0.1,0-0.4,0-0.4,0s0.3,0.2,0.6,0.2c0,0,0,0,0,0
						c0,0,0,0,0,0c0.2,0,0.6-0.1,0.6-0.2C48.1,86.1,47.9,86.1,47.7,86.1z"/>
				</g>
			</g>
		</g>
	</g>
</g>
</svg>
