<svg xmlns="http://www.w3.org/2000/svg" viewBox="0 0 179.11 296.11"><defs><style>.cls-1{fill:#ffe641;}.cls-1,.cls-10,.cls-11,.cls-13,.cls-14,.cls-15,.cls-16,.cls-17,.cls-18,.cls-19,.cls-20,.cls-21,.cls-22,.cls-23,.cls-3,.cls-4,.cls-5,.cls-6,.cls-7,.cls-8,.cls-9{fill-rule:evenodd;}.cls-12,.cls-2{fill:none;}.cls-3{fill:#0690d4;}.cls-4{fill:#c6c4c9;}.cls-6{fill:#fdc137;}.cls-7{fill:#e82b1f;}.cls-8{fill:#f1b738;}.cls-10,.cls-9{fill:#b8c0c2;}.cls-10,.cls-12,.cls-13{stroke:#000;stroke-miterlimit:11.34;}.cls-10,.cls-13{stroke-width:0.47px;}.cls-11,.cls-13{fill:#bbbfc2;}.cls-12{stroke-width:0.22px;}.cls-14{fill:#dba737;}.cls-15{fill:#cab08f;}.cls-16{fill:#766841;}.cls-17{fill:#e32e26;}.cls-18{fill:#ecb938;}.cls-19{fill:#e72c2e;}.cls-20{fill:#4e503a;}.cls-21{fill:#cab296;}.cls-22{fill:#19172a;}.cls-23{fill:#c99a54;}</style></defs><g id="Шар_2" data-name="Шар 2"><g id="svg2"><g id="Layer_1"><g id="_406295744" data-name=" 406295744"><g id="g16"><g id="g18"><path id="_408610960" data-name=" 408610960" class="cls-1" d="M137.22,78.42c-8-2.79-23.53-8.73-48.07-8.73S51.2,75.28,43,77.87l-1.39-2.79,3.31-5.22L36.41,48.1l-5.9-5.21-4.41-1L17.43,19.38l-2.83-2-.67-2.54L50.85,4.41,63.21,15.9l0,2.11-1.78,1.55L67,40.79,79.4,39.4l-4.85-7.46-2.46-.37L67.39,7.72,65,5.63l-.72-2.77a155.86,155.86,0,0,1,49.82-.7l-.58,2.76L111,7,106.55,30.7l-2.65.65-5.35,7.88,12.18,1.39L116.65,19l-2.44-1.21-.29-2.37,13-11L165,15.1l-1.55,2.65-3.37,1.71L152.76,42.1l-4.58.45-5.77,4-8.18,22.28,3.83,5.74-.84,3.86Z"/><path id="_408610864" data-name=" 408610864" d="M137.05,78.89l-1.36-.48a130.89,130.89,0,0,0-46.54-8.22,122.55,122.55,0,0,0-42.83,7.12c-1.16.39-2.24.75-3.15,1l-.4.12-.19-.38-1.4-2.78-.12-.26.15-.23,3.17-5L36,48.4l-5.71-5L26,42.43l-.26,0-.1-.26L17,19.7l-2.71-1.89-.15-.11,0-.17L13.45,15l-.12-.47.47-.14L50.72,3.93,51,3.86l.2.19L63.55,15.54l.16.14v.21l0,2.11v.23l-.18.15L62,19.73l5.38,20.52L78.54,39,74.26,32.4,72,32.06,71.67,32l-.07-.35L66.93,8l-2.3-2-.12-.1,0-.15L63.75,3l-.14-.53.53-.09A150.41,150.41,0,0,1,88.78,0a163.51,163.51,0,0,1,25.34,1.65l.52.07-.1.52L114,5l0,.17-.14.11-2.37,2-4.37,23.5-.06.31-.32.08-2.46.61-4.79,7,11,1.25,5.69-20.77-2.07-1-.24-.12,0-.26-.3-2.37,0-.27.2-.18L126.65,4l.2-.17.26.07,38.05,10.71.62.18-.32.55L163.91,18l-.07.13-.13.07-3.19,1.61-7.29,22.45-.1.31-.32,0-4.45.44-5.53,3.82-8,21.89,3.69,5.53.11.18,0,.21-.84,3.85-.13.55-.53-.18Zm-1-1.42.83.29.68-3.1-3.72-5.57-.14-.21.09-.23,8.18-22.28.06-.15.13-.09,5.77-4,.1-.07h.13l4.26-.42,7.24-22.33.07-.2.18-.09,3.24-1.65,1.15-2L127.09,5l-12.64,10.7.23,1.84,2.19,1.1.37.18-.11.4-5.92,21.58-.11.41-.42,0-12.19-1.4-.82-.09.47-.68,5.35-7.88.11-.16.18,0,2.34-.58,4.35-23.36,0-.18.14-.12,2.38-2,.43-2.06A163.33,163.33,0,0,0,88.79,1,150,150,0,0,0,64.85,3.26l.55,2.09,2.31,2,.14.12,0,.16,4.63,23.51,2.12.32.22,0,.12.19,4.85,7.46.44.68-.8.09L67.1,41.29l-.43.05-.11-.42L61,19.68l-.08-.29.23-.21,1.6-1.4,0-1.66L50.72,5,14.54,15.21,15,17.1,17.72,19l.12.08.06.15,8.56,22.3,4.15.89.13,0,.1.09,5.9,5.22.09.08,0,.11L45.4,69.68l.09.23-.13.22-3.16,5,1.08,2.15c.89-.28,1.78-.58,2.73-.9a123.67,123.67,0,0,1,43.14-7.17A131.8,131.8,0,0,1,136,77.47Z"/><path id="_408610792" data-name=" 408610792" d="M41.4,74.64c2-1,10.68-4.37,23-6.71a133.46,133.46,0,0,1,24.77-2.4c24.62,0,49.35,8.71,49.42,8.73l-.33.95c-.07,0-24.63-8.68-49.09-8.68a132.28,132.28,0,0,0-24.58,2.38c-12.2,2.33-20.76,5.64-22.72,6.62Z"/><path id="_408610720" data-name=" 408610720" d="M44.79,69.1c2-1,9.87-3.57,20.88-5.44a147.61,147.61,0,0,1,23.47-2.13h0c22.35-.17,45.5,6.62,45.57,6.64l-.28,1c-.07,0-23.08-6.77-45.29-6.59a146,146,0,0,0-23.31,2.11C54.93,66.5,47.15,69,45.24,70Z"/><path id="_408610648" data-name=" 408610648" d="M42.28,62.28c2-1,10.08-3.73,21.83-5.66a156.4,156.4,0,0,1,25-2c24.6,0,47.58,6.26,47.65,6.28l-.26,1c-.07,0-22.91-6.25-47.39-6.25a154.28,154.28,0,0,0-24.88,2c-11.64,1.91-19.63,4.6-21.55,5.56l-.44-.89Z"/><path id="_408610576" data-name=" 408610576" d="M39.49,55c2-1,11.14-4.1,23.72-6.29A151.14,151.14,0,0,1,88.8,46.39c24.6,0,50.87,7,51,7l-.25,1c-.08,0-26.22-6.94-50.7-6.94a149.42,149.42,0,0,0-25.43,2.28c-12.47,2.16-21.5,5.22-23.43,6.19L39.49,55Z"/><path id="_408610504" data-name=" 408610504" d="M36.53,47.66a91.12,91.12,0,0,1,13.58-4.08c4.83-1.17,10.63-2.36,16.9-3.29l.14,1c-6.25.93-12,2.12-16.81,3.28a91.17,91.17,0,0,0-13.36,4Zm42.85-8.77c1.56-.11,3.11-.19,4.69-.25s3.15-.09,4.73-.09h2.07c2.58,0,5.18,0,7.81.15l-.07,1c-2.62-.18-5.18-.16-7.73-.15H88.8c-1.63,0-3.18,0-4.7.09s-3.06.14-4.65.25l-.07-1Zm31.41,1.23a301.49,301.49,0,0,1,31.74,5.93l-.24,1a302.44,302.44,0,0,0-31.63-5.92l.13-1Z"/><polygon id="_408610432" data-name=" 408610432" points="61.52 49.4 60.54 49.62 58.9 42.47 59.87 42.25 61.52 49.4"/><polygon id="_408610360" data-name=" 408610360" points="89.1 46.77 88.1 46.79 87.96 39.02 88.95 39 89.1 46.77"/><polygon id="_408610288" data-name=" 408610288" points="89.1 62.61 88.1 62.63 87.96 54.85 88.95 54.84 89.1 62.61"/><polygon id="_408610216" data-name=" 408610216" points="89.15 29.77 88.15 29.78 88.01 22.01 89 21.99 89.15 29.77"/><polygon id="_408610144" data-name=" 408610144" points="89.04 13.6 88.05 13.62 87.9 5.84 88.9 5.83 89.04 13.6"/><polygon id="_408610072" data-name=" 408610072" points="50.13 59.83 49.17 60.11 47.16 53.05 48.12 52.78 50.13 59.83"/><polygon id="_408610000" data-name=" 408610000" points="75.8 55.43 74.81 55.57 73.75 48 74.74 47.86 75.8 55.43"/><polygon id="_408609928" data-name=" 408609928" points="65.54 64.07 64.57 64.31 62.9 57.54 63.87 57.3 65.54 64.07"/><polygon id="_408609856" data-name=" 408609856" points="41.55 38.11 40.59 38.38 38.2 30.2 39.16 29.93 41.55 38.11"/><polygon id="_408609784" data-name=" 408609784" points="28.92 32.4 27.98 32.73 25.49 25.81 26.43 25.47 28.92 32.4"/><polygon id="_408609712" data-name=" 408609712" points="48.98 26.7 48.02 26.96 46 19.47 46.97 19.21 48.98 26.7"/><polygon id="_408609496" data-name=" 408609496" points="36.34 21.92 35.38 22.19 33.37 15.14 34.33 14.86 36.34 21.92"/><polygon id="_408609568" data-name=" 408609568" points="54.69 33.3 54.89 33.24 55.07 33.34 66.81 39.87 66.33 40.74 54.77 34.31 27 42.41 26.72 41.45 54.69 33.3"/><polyline id="_408609400" data-name=" 408609400" class="cls-2" points="64.84 33.11 53.04 25.91 23.82 34.4"/><polygon id="_408609304" data-name=" 408609304" points="52.97 26.45 23.96 34.88 23.68 33.92 52.9 25.43 53.11 25.37 53.3 25.48 65.1 32.68 64.58 33.53 52.97 26.45"/><polygon id="_408609232" data-name=" 408609232" points="51.03 17.65 51.25 17.59 51.45 17.72 63.41 25.85 62.85 26.68 51.08 18.68 20.5 27.4 20.23 26.44 51.03 17.65"/><polygon id="_408609160" data-name=" 408609160" points="49.34 10.9 17.76 19.99 17.49 19.03 49.31 9.87 49.55 9.8 49.75 9.95 61.77 19.26 61.17 20.05 49.34 10.9"/><polygon id="_408609088" data-name=" 408609088" points="50.56 6.87 50.82 6.79 51.03 6.97 63.16 17.47 62.5 18.22 50.58 7.9 15.19 17.89 14.92 16.93 50.56 6.87"/><polygon id="_408609016" data-name=" 408609016" points="51.37 7.53 51.38 7.66 51.31 7.78 49.83 10.57 55.4 34.03 55.43 34.18 55.38 34.33 51.69 43.79 50.76 43.43 54.39 34.12 48.81 10.62 48.77 10.44 48.86 10.27 50.37 7.43 50.3 4.76 51.29 4.73 51.37 7.53"/><polygon id="_408608944" data-name=" 408608944" points="117.78 49.21 116.81 48.99 118.45 41.84 119.43 42.06 117.78 49.21"/><polygon id="_408277880" data-name=" 408277880" points="129.16 59.41 128.19 59.14 130.21 52.09 131.17 52.36 129.16 59.41"/><polygon id="_408277808" data-name=" 408277808" points="103.51 55.44 102.52 55.3 103.58 47.74 104.57 47.87 103.51 55.44"/><polygon id="_408277736" data-name=" 408277736" points="113.76 63.9 112.79 63.66 114.46 56.89 115.43 57.13 113.76 63.9"/><polygon id="_408277664" data-name=" 408277664" points="59.93 29.37 58.95 29.57 57.54 22.89 58.52 22.69 59.93 29.37"/><polygon id="_408277592" data-name=" 408277592" points="137.26 37.84 136.31 37.57 138.54 29.93 139.5 30.2 137.26 37.84"/><polygon id="_408277520" data-name=" 408277520" points="149.72 32.7 148.77 32.42 150.82 25.5 151.78 25.78 149.72 32.7"/><polygon id="_408277448" data-name=" 408277448" points="129.71 27.29 128.74 27.04 130.73 19.22 131.7 19.47 129.71 27.29"/><polygon id="_408277376" data-name=" 408277376" points="142.31 22.19 141.35 21.92 143.37 14.86 144.33 15.14 142.31 22.19"/><polygon id="_408277304" data-name=" 408277304" points="122.93 34.31 111.36 40.74 110.88 39.87 122.62 33.34 122.8 33.24 122.99 33.29 152.51 41.19 152.25 42.15 122.93 34.31"/><polygon id="_408277232" data-name=" 408277232" points="124.69 25.62 124.88 25.51 125.08 25.57 154.92 34.2 154.64 35.16 125.01 26.59 113.1 33.54 112.6 32.67 124.69 25.62"/><polygon id="_408277160" data-name=" 408277160" points="126.9 18.68 114.84 26.68 114.29 25.85 126.54 17.72 126.73 17.59 126.95 17.65 157.47 26.44 157.2 27.4 126.9 18.68"/><polygon id="_408277088" data-name=" 408277088" points="127.94 9.95 128.14 9.8 128.38 9.87 160.2 19.03 159.93 19.99 128.35 10.9 116.53 20.05 115.92 19.26 127.94 9.95"/><polygon id="_408277016" data-name=" 408277016" points="127.11 7.9 114.9 18.23 114.26 17.47 126.67 6.96 126.88 6.79 127.13 6.87 163.25 17.13 162.98 18.09 127.11 7.9"/><polygon id="_408276944" data-name=" 408276944" points="127.32 7.43 128.84 10.27 128.93 10.44 128.88 10.62 123.31 34.12 126.71 42.69 125.78 43.06 122.32 34.33 122.26 34.19 122.3 34.03 127.87 10.57 126.38 7.78 126.32 7.66 126.32 7.53 126.4 4.73 127.4 4.76 127.32 7.43"/><polygon id="_408276872" data-name=" 408276872" points="118.45 30.44 117.48 30.22 119.18 22.68 120.16 22.9 118.45 30.44"/><path id="_408276800" data-name=" 408276800" d="M72.37,30.86A87.19,87.19,0,0,1,89,29a95.83,95.83,0,0,1,17.18,1.19l-.15,1A93.93,93.93,0,0,0,89,30a85.58,85.58,0,0,0-16.46,1.87Z"/><path id="_408276728" data-name=" 408276728" d="M70.68,23.29a96.77,96.77,0,0,1,17.7-1.67A131.22,131.22,0,0,1,107.91,23l-.14,1a129.34,129.34,0,0,0-19.38-1.36,95.78,95.78,0,0,0-17.52,1.65l-.19-1Z"/><path id="_408276656" data-name=" 408276656" d="M68.94,15a114.53,114.53,0,0,1,19.28-1.67A155.63,155.63,0,0,1,109.5,14.7l-.13,1a153.61,153.61,0,0,0-21.14-1.36A114.94,114.94,0,0,0,69.11,16l-.17-1Z"/><path id="_408276584" data-name=" 408276584" d="M67.29,7A144.53,144.53,0,0,1,88.77,5.14a162.86,162.86,0,0,1,22.37,1.2l-.12,1a164.45,164.45,0,0,0-22.24-1.2A143.87,143.87,0,0,0,67.46,8Z"/><path id="_408276512" data-name=" 408276512" d="M65.23,5.09A135.34,135.34,0,0,1,88.12,3a200.66,200.66,0,0,1,25.07,1.39l-.11,1A200.78,200.78,0,0,0,88.14,4,133.56,133.56,0,0,0,65.41,6.07Z"/><polygon id="_408276416" data-name=" 408276416" points="103.03 22.56 102.04 22.45 102.91 14.72 103.9 14.83 103.03 22.56"/><polygon id="_408276368" data-name=" 408276368" points="76.24 22.81 75.25 22.92 74.39 15.19 75.38 15.08 76.24 22.81"/></g><g id="g69"><path id="_408276200" data-name=" 408276200" class="cls-3" d="M.43,79.05H178.68V206.56c0,49-40.11,89.12-89.12,89.12h0c-49,0-89.13-40.11-89.13-89.12V79.05Z"/><path id="_408276104" data-name=" 408276104" d="M.43,78.62H179.11V206.56A89.56,89.56,0,0,1,0,206.56V78.62Zm177.81.87H.87V206.56a88.69,88.69,0,0,0,177.37,0V79.49Z"/><g id="g73"><g id="g75"><polygon id="_408275936" data-name=" 408275936" class="cls-4" points="57.45 143.37 25.34 143.37 25.34 101.8 20.76 98.03 20.76 90.72 29.9 90.72 29.9 95.1 36.82 95.1 36.82 90.72 45.96 90.72 45.96 95.1 52.89 95.1 52.89 90.72 62.03 90.72 62.03 98.04 57.45 101.8 57.45 143.37"/><path id="_408275840" data-name=" 408275840" d="M57.89,102v41.81h-33V102l-4.41-3.63-.16-.14V90.29h10v4.37h6.05V90.29h10v4.37h6.05V90.29h10v7.95l-.16.13L57.89,102ZM57,142.94V101.6l.16-.13,4.41-3.63V91.15H53.32v4.38H45.53V91.15H37.26v4.38H29.47V91.15H21.2v6.68l4.41,3.64.16.13v41.34Z"/><g id="g79"><path id="_408275672" data-name=" 408275672" class="cls-5" d="M41.39,108.17h0a1.34,1.34,0,0,1,1.35,1.34v7.7H40.05v-7.7A1.34,1.34,0,0,1,41.39,108.17Z"/><path id="_408275504" data-name=" 408275504" class="cls-5" d="M47.66,108.17h0A1.35,1.35,0,0,1,49,109.51v7.7h-2.7v-7.7A1.35,1.35,0,0,1,47.66,108.17Z"/><path id="_408275336" data-name=" 408275336" class="cls-5" d="M35.13,108.17h0a1.35,1.35,0,0,1,1.35,1.34v7.7h-2.7v-7.7A1.35,1.35,0,0,1,35.13,108.17Z"/><path id="_408275168" data-name=" 408275168" class="cls-5" d="M44.53,121.89h0a1.35,1.35,0,0,1,1.35,1.35v7.69h-2.7v-7.69a1.35,1.35,0,0,1,1.35-1.35Z"/><path id="_408275000" data-name=" 408275000" class="cls-5" d="M38.26,121.89h0a1.35,1.35,0,0,1,1.35,1.35v7.69h-2.7v-7.69a1.35,1.35,0,0,1,1.35-1.35Z"/></g><path id="_408274880" data-name=" 408274880" d="M25.29,101.37H57.42v.86H25.29Zm36.79-2.9H20.71V97.6H62.08v.86Z"/><polygon id="_408274712" data-name=" 408274712" class="cls-4" points="105.65 143.37 73.53 143.37 73.53 101.8 68.95 98.03 68.95 90.72 78.09 90.72 78.09 95.1 85.02 95.1 85.02 90.72 94.16 90.72 94.16 95.1 101.08 95.1 101.08 90.72 110.22 90.72 110.22 98.04 105.65 101.8 105.65 143.37"/><path id="_408274616" data-name=" 408274616" d="M106.08,102v41.81h-33V102l-4.41-3.63-.16-.14V90.29h10v4.37h6V90.29h10v4.37h6.06V90.29h10v7.95l-.16.13L106.08,102Zm-.87,40.94V101.6l.16-.13,4.42-3.63V91.15h-8.28v4.38H93.72V91.15H85.45v4.38H77.66V91.15H69.39v6.68l4.41,3.64.16.13v41.34Z"/><polygon id="_408274448" data-name=" 408274448" class="cls-4" points="153.83 143.37 121.71 143.37 121.71 101.8 117.14 98.03 117.14 90.72 126.28 90.72 126.28 95.1 133.2 95.1 133.2 90.72 142.34 90.72 142.34 95.1 149.26 95.1 149.26 90.72 158.4 90.72 158.4 98.04 153.83 101.8 153.83 143.37"/><path id="_408274352" data-name=" 408274352" d="M154.26,102v41.81h-33V102l-4.42-3.63-.16-.14V90.29h10v4.37h6.06V90.29h10v4.37h6.06V90.29h10v7.95l-.16.13L154.26,102Zm-.86,40.94V101.6l.16-.13L158,97.84V91.15H149.7v4.38h-7.79V91.15h-8.28v4.38h-7.79V91.15h-8.27v6.68l4.42,3.64.16.13v41.34Z"/><path id="_408274136" data-name=" 408274136" d="M73.48,101.37h32.14v.86H73.48Zm36.79-2.9H68.9V97.6h41.37v.86Z"/><path id="_408274208" data-name=" 408274208" d="M121.66,101.37H153.8v.86H121.66Zm36.8-2.9H117.08V97.6h41.38v.86Z"/><g id="g93"><path id="_408274040" data-name=" 408274040" class="cls-5" d="M89.59,108.17h0a1.34,1.34,0,0,1,1.34,1.34v7.7H88.24v-7.7A1.34,1.34,0,0,1,89.59,108.17Z"/><path id="_408273872" data-name=" 408273872" class="cls-5" d="M95.85,108.17h0a1.35,1.35,0,0,1,1.35,1.34v7.7H94.5v-7.7A1.35,1.35,0,0,1,95.85,108.17Z"/><path id="_408273704" data-name=" 408273704" class="cls-5" d="M83.32,108.17h0a1.35,1.35,0,0,1,1.35,1.34v7.7H82v-7.7A1.35,1.35,0,0,1,83.32,108.17Z"/><path id="_408273536" data-name=" 408273536" class="cls-5" d="M92.72,121.89h0a1.35,1.35,0,0,1,1.35,1.35v7.69h-2.7v-7.69a1.35,1.35,0,0,1,1.35-1.35Z"/><path id="_408273296" data-name=" 408273296" class="cls-5" d="M86.45,121.89h0a1.35,1.35,0,0,1,1.35,1.35v7.69H85.1v-7.69a1.35,1.35,0,0,1,1.35-1.35Z"/></g><g id="g100"><path id="_408273152" data-name=" 408273152" class="cls-5" d="M137.77,108.17h0a1.35,1.35,0,0,1,1.35,1.34v7.7h-2.7v-7.7A1.35,1.35,0,0,1,137.77,108.17Z"/><path id="_408272984" data-name=" 408272984" class="cls-5" d="M144,108.17h0a1.35,1.35,0,0,1,1.35,1.34v7.7h-2.7v-7.7A1.35,1.35,0,0,1,144,108.17Z"/><path id="_408272816" data-name=" 408272816" class="cls-5" d="M131.5,108.17h0a1.35,1.35,0,0,1,1.35,1.34v7.7h-2.7v-7.7A1.35,1.35,0,0,1,131.5,108.17Z"/><path id="_408272648" data-name=" 408272648" class="cls-5" d="M140.9,121.89h0a1.34,1.34,0,0,1,1.34,1.35v7.69h-2.69v-7.69a1.34,1.34,0,0,1,1.34-1.35Z"/><path id="_408272408" data-name=" 408272408" class="cls-5" d="M134.64,121.89h0a1.35,1.35,0,0,1,1.35,1.35v7.69h-2.7v-7.69a1.35,1.35,0,0,1,1.35-1.35Z"/></g><path id="_408272264" data-name=" 408272264" class="cls-4" d="M59,253.82H20.12v-2.75l5.22-4.77V149.22l-4.58-3.77v-8.54H29.9v4.38h6.92v-4.38H46v4.38h6.93v-4.38H62v4.38H69v-4.37h9.14v4.38H85v-4.38h9.14v4.38h6.92v-4.38h9.14v4.38h6.92v-4.37h9.14v4.38h6.92v-4.38h9.14v4.38h6.92v-4.38h9.14v8.55l-4.57,3.76-.05,97.08,5.22,4.77v2.75H119.9V199.75a30.51,30.51,0,0,0-30.43-30.43h0A30.52,30.52,0,0,0,59,199.75v54.07Z"/><path id="_408272168" data-name=" 408272168" d="M59,254.25H19.68v-3.37l.14-.13,5.08-4.64V149.42l-4.41-3.64-.16-.13v-9.17h10v4.37h6.05v-4.37h10v4.37h6.05v-4.37h10v4.38h6.06v-4.37h10v4.37h6v-4.37h10v4.37h6.06v-4.37h10v4.38h6v-4.37h10v4.37h6.06v-4.37h10v4.37h6.06v-4.37h10v9.18l-.16.13-4.42,3.63,0,96.69,5.08,4.64.14.13v3.37h-40v-54.5a30.1,30.1,0,0,0-30-30h0a30.1,30.1,0,0,0-30,30v54.5Zm-38.48-.87H58.6V199.75a31,31,0,0,1,30.87-30.86h0a31,31,0,0,1,30.87,30.86v53.63h38.22v-2.12l-5.08-4.64-.14-.13v-.19l.06-97.08V149l.16-.14,4.41-3.62v-7.92H149.7v4.38h-7.79v-4.38h-8.28v4.38h-7.79v-4.38h-8.27v4.37h-7.78v-4.38h-8.28v4.38H93.72v-4.38H85.45v4.38H77.66v-4.38H69.39v4.37h-7.8v-4.38H53.32v4.38H45.53v-4.38H37.26v4.38H29.47v-4.38H21.2v7.91l4.41,3.63.16.14v97.47l-.14.13-5.08,4.64v2.12Z"/><path id="_408272096" data-name=" 408272096" d="M113.64,152.55a4.06,4.06,0,0,1,2.88,1.19h0a4.07,4.07,0,0,1,1.2,2.88,4,4,0,0,1-.58,2.09,4.08,4.08,0,0,1-1.34,1.37v4.27h-4.33v-4.27a4.08,4.08,0,0,1-1.34-1.37,4,4,0,0,1-.58-2.09,4.07,4.07,0,0,1,1.2-2.89h0a4.07,4.07,0,0,1,2.89-1.2Zm2.27,1.81a3.22,3.22,0,0,0-4.55,0h0a3.2,3.2,0,0,0-.94,2.27,3.18,3.18,0,0,0,1.69,2.83l.23.13v3.9h2.6v-3.9l.23-.13a3.24,3.24,0,0,0,1.23-1.18,3.23,3.23,0,0,0-.49-3.92Zm-50.44-1.81a4.06,4.06,0,0,1,2.89,1.19h0a4.07,4.07,0,0,1,1.2,2.88,4,4,0,0,1-.58,2.09,4.08,4.08,0,0,1-1.34,1.37v4.27H63.31v-4.27A4.08,4.08,0,0,1,62,158.72a4,4,0,0,1-.58-2.09,4.07,4.07,0,0,1,1.2-2.89h0a4.07,4.07,0,0,1,2.88-1.2Zm2.28,1.81a3.22,3.22,0,0,0-4.55,0h0a3.23,3.23,0,0,0-.49,3.92A3.27,3.27,0,0,0,64,159.46l.23.13v3.9h2.59v-3.9l.23-.13a3.18,3.18,0,0,0,1.69-2.83,3.2,3.2,0,0,0-.94-2.27Z"/><path id="_408272000" data-name=" 408272000" d="M122.64,149.21v41.53l-.84-2.36a34.61,34.61,0,0,0-12.6-16.6,34.18,34.18,0,0,0-39.26-.14A34.65,34.65,0,0,0,57.3,187.91l-.84,2.25V149.21h.87v36.35a35.49,35.49,0,0,1,12.12-14.63,35,35,0,0,1,40.25.15A35.56,35.56,0,0,1,121.78,186V149.21Z"/><path id="_408271856" data-name=" 408271856" d="M127.41,173.89v7.24l26.41,0V182l-31.59,0v-.87h4.32v-7.24h-4.33V173h9.29v-7.39h-9.3v-.87h4.32v-7.32h-4.33v-.87h9.29v-7.3h.87v7.3h10.69v-7.29H144v7.29h9.87v.87h-3.64v7.32h3.65v.87H144V173h9.87v.87l-26.4,0Zm5-8.26V173h10.7v-7.39Zm-5-.86h10.18v-7.32H127.41v7.32Zm11,0H149.3v-7.32H138.45v7.32Zm15.37,25.47-31.59,0v-.87l31.59,0v.87Zm0,8.25-31.59,0v-.86l31.59,0v.86Zm0,8-31.59,0v-.87l31.59,0v.87Zm0,8.06-31.59,0v-.86l31.59,0v.86Zm0,7.87-31.59,0v-.87l31.59,0v.87Zm0,8.1-31.59,0v-.86l31.59,0v.86Zm0,8.57-31.59,0v-.86l31.59,0v.87Z"/><path id="_408271736" data-name=" 408271736" d="M51.81,173.89v7.24l-26.4,0V182L57,182v-.87H52.69v-7.24H57V173H47.71v-7.39H57v-.87H52.69v-7.32H57v-.87H47.71v-7.3h-.86v7.3H36.15v-7.29h-.86v7.29H25.42v.87h3.64v7.32H25.42v.87h9.86V173H25.42v.87Zm-5-8.26V173H36.15v-7.39Zm5-.86H41.65v-7.32H51.81Zm-11,0H29.93v-7.32H40.77v7.32ZM25.42,190.23l31.58,0v-.87l-31.58,0Zm0,8.25,31.58,0v-.86l-31.58,0Zm0,8,31.58,0v-.87l-31.58,0Zm0,8.06,31.58,0v-.86l-31.58,0Zm0,7.87,31.58,0v-.87l-31.58,0Zm0,8.1,31.58,0v-.86l-31.58,0Zm0,8.57,31.58,0v-.86l-31.58,0Z"/><path id="_408271520" data-name=" 408271520" d="M25.42,148.77H153.79v.87H25.42v-.87Zm133-2.89H20.84V145H158.45Z"/><path id="_408271592" data-name=" 408271592" d="M25.26,246H53.7v.86H25.26Zm98.26,0h30.27v.86H123.52Zm34.36,4.62H123v-.87h34.92Zm-105.29,0H21.25v-.86H52.59Z"/><path id="_408271424" data-name=" 408271424" class="cls-6" d="M149.43,170.28h-.49c-16,.27-29,13.7-29,30.08v53.45h29.53Z"/><path id="_408271328" data-name=" 408271328" d="M149.43,169.85h.44v84.4h-30.4V200.37A30.7,30.7,0,0,1,128.09,179a29.62,29.62,0,0,1,20.84-9.15h.5Zm-.43.87h-.06a28.79,28.79,0,0,0-20.23,8.89,29.81,29.81,0,0,0-8.37,20.76v53H149V170.72Z"/><path id="_408271160" data-name=" 408271160" class="cls-4" d="M144.75,228H119.91v3.34h24.84l1.67-1.67L144.75,228Zm0-23.68H119.91v3.34h24.84l1.67-1.67Z"/><path id="_408271064" data-name=" 408271064" d="M144.58,228.39H120.34v2.47h24.23l1.24-1.24-1.23-1.23Zm-24.68-.87h25l.13.13,1.67,1.67.3.3-.3.31-1.67,1.67-.13.13H119.47v-4.21Zm24.68-22.82H120.34v2.47h24.23l1.24-1.23-1.23-1.24Zm-24.68-.86h25l.13.13,1.67,1.66.3.31-.3.31-1.67,1.67-.13.12H119.47v-4.2Z"/><path id="_408270896" data-name=" 408270896" class="cls-6" d="M29.5,170.28H30c16,.27,29,13.7,29,30.08v53.45H29.5Z"/><path id="_408270800" data-name=" 408270800" d="M29.5,169.85H30A29.64,29.64,0,0,1,50.85,179a30.7,30.7,0,0,1,8.62,21.36v53.88H29.07v-84.4Zm.49.87h0v82.66H58.6v-53a29.78,29.78,0,0,0-8.38-20.76A28.77,28.77,0,0,0,30,170.72Z"/><path id="_408270608" data-name=" 408270608" class="cls-4" d="M34.19,228H59v3.34H34.19l-1.67-1.67L34.19,228Zm0-23.68H59v3.34H34.19l-1.67-1.67Z"/><path id="_408270464" data-name=" 408270464" d="M34.19,227.52H59.47v4.2H34l-.13-.12-1.67-1.67-.31-.31.31-.3,1.67-1.67.13-.13Zm24.41.86H34.36l-1.23,1.24,1.23,1.24H58.6ZM34.19,203.83H59.47V208H34l-.13-.13-1.67-1.67-.31-.3.31-.31L33.88,204l.13-.13Zm24.41.87H34.36l-1.23,1.24,1.23,1.23H58.6V204.7Z"/></g><g id="g123"><g id="g125"><path id="_408270320" data-name=" 408270320" class="cls-7" d="M81,232c1.58-1.2,5.6-1.33,7.43-1.27a61.68,61.68,0,0,1,6.85.58c1.53.28,2.7.77,2.6,2.95s-.28,5.32-.23,9.4,0,5.6.15,7.28.71,2.85-1,1.93-2.59-1.57-5-2.85-4.63-1.22-5.34-2.39-.72-2.09-1.68-2.49a2.15,2.15,0,0,0-2.14-.06c-.61.36-1.22,1.79-1.22-.15s.35-2.95.3-4.89a12,12,0,0,0-.61-3.82A6.31,6.31,0,0,1,81,232Z"/><path id="_408270224" data-name=" 408270224" d="M80.82,231.77a7,7,0,0,1,2.9-1,25.67,25.67,0,0,1,4.68-.29c1,0,2.49.12,3.88.24,1.17.1,2.29.22,3,.35a4,4,0,0,1,2,.82,2.8,2.8,0,0,1,.76,2.38c0,.25,0,.46,0,.69-.1,2.14-.24,5-.2,8.69,0,1.35,0,2.43,0,3.32a31.09,31.09,0,0,0,.14,3.93c0,.3.07.56.11.79a2.73,2.73,0,0,1,0,1.45c-.2.37-.63.4-1.51-.07s-1.37-.76-2-1.14c-.8-.48-1.66-1-3-1.71a16.26,16.26,0,0,0-2.86-1.09c-1.19-.36-2.12-.64-2.57-1.39a8.89,8.89,0,0,1-.56-1.11c-.26-.6-.46-1-1-1.29a3,3,0,0,0-1.12-.29,1.43,1.43,0,0,0-.81.23,2.42,2.42,0,0,0-.46.41c-.22.25-.42.46-.65.46s-.47-.3-.47-1.23a19.59,19.59,0,0,1,.16-2.35,17.3,17.3,0,0,0,.15-2.53,9.6,9.6,0,0,0-.41-3c-.06-.25-.13-.53-.2-.78a10.76,10.76,0,0,1-.39-2.24,6.19,6.19,0,0,1,.34-2.11l0-.07.06,0Zm3-.56a6.81,6.81,0,0,0-2.64.89,5.58,5.58,0,0,0-.3,1.89,10.1,10.1,0,0,0,.38,2.14c.09.34.14.57.2.77a10.62,10.62,0,0,1,.42,3.1,17.9,17.9,0,0,1-.15,2.59,18.56,18.56,0,0,0-.16,2.3v.76a1.74,1.74,0,0,0,.31-.3,2.67,2.67,0,0,1,.56-.51,1.91,1.91,0,0,1,1.06-.29,3.5,3.5,0,0,1,1.29.33A2.39,2.39,0,0,1,86,246.41a8.7,8.7,0,0,0,.53,1.06c.36.59,1.21.85,2.31,1.18a15.58,15.58,0,0,1,2.94,1.13c1.36.7,2.24,1.23,3,1.71.64.38,1.23.73,2,1.14.58.3.82.36.87.26a2.68,2.68,0,0,0-.07-1.15c0-.26-.09-.54-.12-.81a32,32,0,0,1-.14-4c0-.89,0-2,0-3.32,0-3.67.1-6.57.2-8.71,0-.26,0-.51,0-.69a2.37,2.37,0,0,0-.61-2,3.56,3.56,0,0,0-1.79-.71c-.69-.12-1.79-.24-3-.34-1.4-.12-2.87-.21-3.85-.24a24.65,24.65,0,0,0-4.59.29Z"/><path id="_408270056" data-name=" 408270056" class="cls-8" d="M85.8,235.52c-1-.1-2.34-1.93-2.24.51a64.13,64.13,0,0,1-.11,6.57,22.24,22.24,0,0,0,.31,5.45c.36,1.88.61,2.7,1,5.3.1.77.1,3.29,1.22,3.31s1.1-.4,1.11-1c0-1.35,0-3.71.11-4.9a59.68,59.68,0,0,0,.46-6.57c-.1-2.39.1-2.54.05-4.28s-.41-3.56-1.88-4.43Z"/><path id="_408269960" data-name=" 408269960" d="M85.72,235.75a2.91,2.91,0,0,1-1-.43A2.15,2.15,0,0,0,84,235c-.15,0-.24.26-.21,1,0,1.23,0,2.46,0,3.59s-.08,2.17-.13,3a23.37,23.37,0,0,0,0,2.78A21.56,21.56,0,0,0,84,248c.11.58.21,1.06.31,1.52.22,1,.41,2,.66,3.78,0,.14,0,.31.05.51.08,1,.22,2.59.94,2.6.43,0,.65-.06.76-.18a.93.93,0,0,0,.11-.54c0-.77,0-1.86,0-2.87,0-.79,0-1.53.08-2,0-.94.15-1.75.23-2.54a24.47,24.47,0,0,0,.23-4,23.18,23.18,0,0,1,0-2.6,16.37,16.37,0,0,0,0-1.68,8.4,8.4,0,0,0-.4-2.47,3.22,3.22,0,0,0-1.33-1.74Zm-.75-.83a2.74,2.74,0,0,0,.85.37h.05l0,0a3.69,3.69,0,0,1,1.58,2,9,9,0,0,1,.42,2.61,17,17,0,0,1,0,1.72,24.19,24.19,0,0,0,0,2.55,24.28,24.28,0,0,1-.22,4.09c-.09.77-.18,1.59-.23,2.5,0,.52-.06,1.26-.08,2,0,1,0,2.1,0,2.86a1.22,1.22,0,0,1-.23.85,1.37,1.37,0,0,1-1.11.34c-1.16,0-1.32-1.93-1.41-3,0-.2,0-.37-.05-.48-.24-1.79-.44-2.73-.65-3.75-.1-.47-.2-.95-.31-1.54a20.51,20.51,0,0,1-.32-2.66,24.38,24.38,0,0,1,0-2.84c0-.85.1-1.88.13-3s0-2.34,0-3.56.23-1.49.66-1.51a2,2,0,0,1,1,.39Z"/><path id="_408269792" data-name=" 408269792" class="cls-8" d="M93.55,235.52c1-.1,2.29-1.93,2.19.51s-.3,4.89-.2,6.57a21,21,0,0,1-.26,5.3,41.67,41.67,0,0,0-.76,5.55c-.16,2.1-.17,2.93-1.27,3.15-.81.17-1-.34-1-.9,0-1.35-.1-3.66-.17-4.85a60.3,60.3,0,0,1-.41-6.62c.1-2.39-.1-2.54,0-4.28s.41-3.56,1.88-4.43Z"/><path id="_408608888" data-name=" 408608888" d="M93.53,235.29a2.56,2.56,0,0,0,.84-.38,2.07,2.07,0,0,1,1-.38c.43,0,.69.39.65,1.51,0,.7-.07,1.37-.1,2-.09,1.72-.18,3.32-.11,4.52a24.61,24.61,0,0,1,0,2.59,18,18,0,0,1-.3,2.76l0,.22a38,38,0,0,0-.71,5.3h0l0,.24c-.15,2.05-.21,2.88-1.44,3.13a.94.94,0,0,1-1-.26,1.47,1.47,0,0,1-.22-.87c0-.63,0-1.48,0-2.32s-.08-1.88-.12-2.52c0-.87-.13-1.64-.2-2.39a27.67,27.67,0,0,1-.2-4.25,24.19,24.19,0,0,0,0-2.55,17,17,0,0,1,0-1.72,9.09,9.09,0,0,1,.42-2.62,3.67,3.67,0,0,1,1.59-2l0,0Zm1.08,0a3,3,0,0,1-1,.43,3.22,3.22,0,0,0-1.33,1.74,8.4,8.4,0,0,0-.4,2.47,16.37,16.37,0,0,0,0,1.68,25.12,25.12,0,0,1,0,2.6,27,27,0,0,0,.2,4.19c.07.75.15,1.53.2,2.41,0,.62.08,1.57.12,2.53s0,1.69,0,2.33a1.09,1.09,0,0,0,.12.58c.09.11.25.16.55.09.88-.18.94-.9,1.07-2.7l0-.24h0a38.28,38.28,0,0,1,.72-5.35l0-.23a17.17,17.17,0,0,0,.3-2.69,24,24,0,0,0,0-2.55c-.07-1.22,0-2.83.11-4.56,0-.67.07-1.36.1-2s-.05-1-.2-1a1.92,1.92,0,0,0-.7.32Z"/><path id="_408608720" data-name=" 408608720" class="cls-9" d="M86.38,239.93c.74.71,1.61,1.86,1.48-.59a20.48,20.48,0,0,1-.13-4.35,4.2,4.2,0,0,0-.1-2.47c-.26-.87.23-1.2-1.17-1.38a2.87,2.87,0,0,0-2.7.69c-.74.64-.76.59-.51,2.16s.08,2.25,1.32,2.83.92.46,1.07,1.38.08,1.09.74,1.73Z"/><path id="_408608624" data-name=" 408608624" d="M86.55,239.76l.24.23c.29.31.59.61.73.6s.15-.31.1-1.24-.09-1.4-.13-1.89a9.17,9.17,0,0,1,0-2.51,7.16,7.16,0,0,0,.12-1.39,4,4,0,0,0-.22-1,2.88,2.88,0,0,1-.1-.63c0-.32,0-.47-.87-.57a3.6,3.6,0,0,0-1.5,0,2.58,2.58,0,0,0-1,.6h0l-.08.07c-.56.48-.57.49-.35,1.88,0,.31.08.56.11.78.12,1,.18,1.44,1.08,1.87,1.11.52,1.12.54,1.16,1.11,0,.11,0,.26,0,.44s0,.27.05.37a1.61,1.61,0,0,0,.62,1.23Zm-.1.57c-.08-.08-.15-.16-.23-.23a2,2,0,0,1-.75-1.5c0-.11,0-.24-.06-.37s0-.35,0-.47c0-.31,0-.32-.88-.73-1.14-.53-1.22-1.11-1.36-2.23,0-.24-.06-.5-.1-.77-.27-1.65-.25-1.66.5-2.31l.09-.07h0a3,3,0,0,1,1.19-.7,4.36,4.36,0,0,1,1.69,0c1.21.15,1.23.43,1.28,1a2,2,0,0,0,.09.54,4.57,4.57,0,0,1,.23,1.08A7.45,7.45,0,0,1,88,235a9.18,9.18,0,0,0,0,2.4c0,.48.09,1.08.13,1.91.07,1.27-.16,1.71-.55,1.73s-.72-.36-1.09-.73Z"/><path id="_408608456" data-name=" 408608456" class="cls-10" d="M92.87,239.75c-.73.71-1.19,1-1.12-.74a20.86,20.86,0,0,0,0-4.2,4.29,4.29,0,0,1,.1-2.47c.26-.87-.23-1.2,1.17-1.38,2.72-.34,2.37.39,2.57,2.63.15,1.59.56,3.13-.66,3.23s-1.14.28-1.3,1.2S93.54,239.11,92.87,239.75Z"/><path id="_408608288" data-name=" 408608288" class="cls-9" d="M94.71,232.83c.81.15,1.55.53,1.86-.11s.12-.86.68-1,.67-.46.64-1.45.82-1.83-1.12-2a28.7,28.7,0,0,1-4-.33c-.89-.23-1.27-.84-2,0a2.81,2.81,0,0,0-.84,2.75,5.07,5.07,0,0,0,1.55,1.86,1.41,1.41,0,0,0,1.86.26,1.36,1.36,0,0,1,1.43,0Z"/><path id="_408608192" data-name=" 408608192" d="M94.77,232.6l.5.11c.51.13.93.24,1.08-.09a3.26,3.26,0,0,0,.18-.46c.1-.37.16-.54.67-.66a.43.43,0,0,0,.37-.26,2.58,2.58,0,0,0,.09-1,3.19,3.19,0,0,1,.09-.77,2,2,0,0,0,.06-.39c0-.3-.14-.51-1-.57l-1.59-.08a13.76,13.76,0,0,1-2.51-.25A4.85,4.85,0,0,1,92,228c-.4-.18-.69-.3-1.11.2a4,4,0,0,0-.82,1.38,1.65,1.65,0,0,0,0,1.12,4,4,0,0,0,1.23,1.54l.26.24a1.55,1.55,0,0,0,.8.43,1.18,1.18,0,0,0,.78-.2,1.43,1.43,0,0,1,1.5-.12l.11,0Zm.39.57-.5-.11h0L94.5,233a1.06,1.06,0,0,0-1.09.07,1.52,1.52,0,0,1-1.1.27,2,2,0,0,1-1-.55l-.25-.23a4.44,4.44,0,0,1-1.36-1.71,2.09,2.09,0,0,1,0-1.44,4.48,4.48,0,0,1,.9-1.55c.65-.76,1.07-.58,1.66-.32a3.65,3.65,0,0,0,.59.22,13.24,13.24,0,0,0,2.41.24l1.59.08c1.31.09,1.54.49,1.5,1.07a4.3,4.3,0,0,1-.07.46,3.62,3.62,0,0,0-.09.66,2.82,2.82,0,0,1-.11,1.15.89.89,0,0,1-.71.54c-.24,0-.27.15-.32.33a3.78,3.78,0,0,1-.2.53c-.33.68-.92.53-1.62.35Z"/><path id="_408608024" data-name=" 408608024" class="cls-9" d="M81.7,232.14c.74.79.84.89,1.75.68s1.53-.25,1.56-.61.3-.4.74.08,1.07,1.12,1.68.36c.4-.51.67-.67.72-.28s-.06.81.48.86,2.59.29,2.52-.39.47-1,.75-1.53.1-.81-.33-1-.77.07-.79-.69-1.22-1.46-3.25-1.8-4.2-.73-5.4.21-1.58,1.45-1.32,2.39a2.79,2.79,0,0,0,.89,1.71Z"/><path id="_408607928" data-name=" 408607928" d="M81.87,232a2.85,2.85,0,0,0,.73.66,1.43,1.43,0,0,0,.8,0l.46-.09c.55-.12.9-.19.91-.3a.66.66,0,0,1,.09-.3.38.38,0,0,1,.27-.19.54.54,0,0,1,.32,0,1.72,1.72,0,0,1,.47.38,2.36,2.36,0,0,0,.69.59.51.51,0,0,0,.63-.22,2.3,2.3,0,0,1,.58-.55c.31-.13.51,0,.56.39h0a1.32,1.32,0,0,1,0,.27c0,.21,0,.36.25.38h.1a8.87,8.87,0,0,0,1.61.06c.32,0,.57-.09.56-.2a1.54,1.54,0,0,1,.46-1.2,3.08,3.08,0,0,0,.31-.46c.1-.21.13-.35.09-.44s-.14-.16-.3-.23a1.09,1.09,0,0,0-.28-.06c-.38-.05-.63-.09-.66-.83,0-.3-.28-.61-.77-.88a7.33,7.33,0,0,0-2.28-.7l-.27,0c-1.91-.31-3.88-.64-4.94.2a4.69,4.69,0,0,0-1.15,1.13,1.22,1.22,0,0,0-.1,1l0,0a2.56,2.56,0,0,0,.82,1.55h0Zm.55,1.09a2.92,2.92,0,0,1-.89-.77h0a2.93,2.93,0,0,1-.94-1.75v-.06a1.66,1.66,0,0,1,.14-1.37A5,5,0,0,1,82,227.85c1.22-1,3.3-.62,5.3-.29l.28,0a7.76,7.76,0,0,1,2.43.75c.64.36,1,.8,1,1.27s.11.36.25.38a1.94,1.94,0,0,1,.4.1,1,1,0,0,1,.56.48,1,1,0,0,1-.11.84,3.76,3.76,0,0,1-.36.53,1.15,1.15,0,0,0-.36.87c0,.46-.4.65-1,.71a9.8,9.8,0,0,1-1.7-.06h-.1c-.62-.06-.64-.38-.67-.82a1.21,1.21,0,0,0,0-.19,2.85,2.85,0,0,0-.31.34.92.92,0,0,1-1.18.36,2.55,2.55,0,0,1-.86-.7,1.09,1.09,0,0,0-.31-.27h0s0,0,0,0c0,.47-.52.57-1.29.73l-.44.09a1.69,1.69,0,0,1-1.09,0Z"/><path id="_408607760" data-name=" 408607760" class="cls-9" d="M73.44,194.61a124.18,124.18,0,0,0,1,16.27c.92,7.57,1.85,14.12,1.74,16.78s-1.74,8.39-3.37,12.17-1.54,3.28-1.85,6,1.1.59,1.92-.85.95-1.91,1.67-.89.9.29,1.71-1.41,1.15-1,1.56-.53,1.13.92,2-2.25A58.77,58.77,0,0,0,82,228.78c.3-3.88,4.19-23,3.06-26.39a20.8,20.8,0,0,0-3.58-7.27c-1.63-2-2.76-3.58-2.76-6.65s.41-6.45.31-7.26-.41-2.15-1.54-2-2.66.62-3.27,6-.82,9.31-.82,9.31Z"/><path id="_408607664" data-name=" 408607664" d="M73.68,194.61c0,2,0,4.17.16,6.78s.4,5.68.86,9.46c.17,1.42.35,2.86.52,4.24a111.89,111.89,0,0,1,1.22,12.58,28.1,28.1,0,0,1-1.09,5.59A53.65,53.65,0,0,1,73,239.93l-.51,1.18c-.49,1.13-.76,1.73-.92,2.25a12.49,12.49,0,0,0-.36,2.25l0,.29c-.1.91,0,1.09.14.95a10,10,0,0,0,1.34-1.94c.08-.15.15-.28.22-.39a3.33,3.33,0,0,1,.73-1.07c.37-.25.66-.09,1.11.55.21.3.32.4.39.35a4,4,0,0,0,.65-1.17c.07-.14.13-.28.27-.56.56-1.17,1-1.35,1.37-1.17a1.55,1.55,0,0,1,.5.49l.08.1c.14.17.33.34.52.21h0c.31-.21.68-.86,1.12-2.38.5-1.71,1-3.7,1.4-5.78a50.4,50.4,0,0,0,.74-5.32c.1-1.2.53-3.85,1-7,1.17-7.13,2.79-17,2-19.27a33.78,33.78,0,0,0-1.59-4.1,15.27,15.27,0,0,0-2-3.09,15.43,15.43,0,0,1-2-3,8.54,8.54,0,0,1-.79-3.81c0-1.64.11-3.38.21-4.76a19.24,19.24,0,0,0,.09-2.48,3.45,3.45,0,0,0-.35-1.26.82.82,0,0,0-.91-.48,2.43,2.43,0,0,0-1.68,1c-.58.77-1.1,2.19-1.4,4.85-.59,5.26-.8,9.05-.81,9.29Zm-.31,6.8c-.14-2.63-.16-4.81-.16-6.8h0s.2-3.92.82-9.33c.31-2.76.86-4.25,1.49-5.09a2.82,2.82,0,0,1,2-1.15,1.25,1.25,0,0,1,1.4.71,4,4,0,0,1,.41,1.44,20.35,20.35,0,0,1-.09,2.56c-.1,1.37-.21,3.09-.21,4.73a8.09,8.09,0,0,0,.74,3.61,15.29,15.29,0,0,0,2,2.89,16.49,16.49,0,0,1,2,3.18,36.63,36.63,0,0,1,1.61,4.16c.8,2.4-.83,12.32-2,19.5-.52,3.17-1,5.8-1,7a48.67,48.67,0,0,1-.75,5.38c-.4,2.09-.91,4.09-1.41,5.82s-.92,2.38-1.31,2.64l-.13-.2.13.2c-.49.33-.87,0-1.14-.31l-.09-.11a1.62,1.62,0,0,0-.33-.35c-.14-.06-.35.12-.75.95l-.26.56a3.69,3.69,0,0,1-.81,1.36c-.34.23-.65.1-1-.47-.25-.36-.37-.49-.45-.43a3.35,3.35,0,0,0-.59.91l-.22.39a10.13,10.13,0,0,1-1.43,2.05c-.67.62-1.13.51-.93-1.35l0-.28a11.86,11.86,0,0,1,.39-2.34,20.93,20.93,0,0,1,.93-2.3c.16-.38.36-.82.51-1.18a53.75,53.75,0,0,0,2.29-6.61A27.6,27.6,0,0,0,76,227.65a111.91,111.91,0,0,0-1.22-12.51c-.16-1.34-.34-2.74-.52-4.23-.46-3.79-.72-6.87-.86-9.5Z"/><path id="_408607496" data-name=" 408607496" class="cls-11" d="M89,198.13c3.53,0,6.39,3.64,6.39,8.14S92.48,214.4,89,214.4s-6.39-3.64-6.39-8.13S85.42,198.13,89,198.13Z"/><path id="_408607400" data-name=" 408607400" d="M89,197.9a6,6,0,0,1,4.7,2.47,10,10,0,0,1,0,11.79,5.69,5.69,0,0,1-9.4,0,10,10,0,0,1,0-11.79A6,6,0,0,1,89,197.9Zm4.33,2.76a5.24,5.24,0,0,0-8.66,0,9.54,9.54,0,0,0,0,11.21,5.23,5.23,0,0,0,8.66,0,9.54,9.54,0,0,0,0-11.21Z"/><path id="_408607232" data-name=" 408607232" class="cls-11" d="M90.77,221.6a58,58,0,0,1,.06-6.87,1.51,1.51,0,0,1,2-1.46c.57.16.8.37.69,2.52a55.74,55.74,0,0,0,.07,5.92,23.83,23.83,0,0,0,.78,4.77c.33,1.64.28,1.78-.39,2.56s-.9.66-1.54.16-1.4-.66-1.46-2.8-.09-2.18-.25-4.8Z"/><path id="_408607136" data-name=" 408607136" d="M90.53,221.62a38,38,0,0,1,0-5.26c0-.6.06-1.14.06-1.63a2.18,2.18,0,0,1,.08-.6,1.5,1.5,0,0,1,.73-.93,2.1,2.1,0,0,1,1-.23h0a2.17,2.17,0,0,1,.55.07.93.93,0,0,1,.76.67,6.11,6.11,0,0,1,.1,2.09,49.68,49.68,0,0,0,0,5.19c0,.22,0,.45,0,.71a16.92,16.92,0,0,0,.52,3.59c.08.36.17.75.25,1.15a5.11,5.11,0,0,1,.18,1.68,2,2,0,0,1-.63,1.07c-.38.45-.66.64-1,.64s-.54-.17-.9-.44l-.27-.2c-.61-.41-1.23-.83-1.28-2.78-.05-1.58-.07-2-.15-3.22,0-.4-.06-.89-.11-1.57Zm.47-5.23a38.6,38.6,0,0,0,0,5.19h0c0,.65.08,1.16.11,1.57.07,1.2.1,1.63.15,3.23s.56,2.06,1.07,2.41l.29.21c.28.22.47.36.61.35s.32-.14.61-.47a1.86,1.86,0,0,0,.52-.84,4.88,4.88,0,0,0-.18-1.52c-.09-.43-.17-.79-.25-1.14a18.07,18.07,0,0,1-.53-3.67c0-.22,0-.46,0-.71a50.45,50.45,0,0,1-.05-5.23,5.68,5.68,0,0,0-.08-1.92c-.07-.24-.22-.31-.44-.37a1.61,1.61,0,0,0-.42-.05h0a1.59,1.59,0,0,0-.75.18,1,1,0,0,0-.5.64,1.63,1.63,0,0,0-.06.47c0,.48,0,1-.07,1.66Z"/><path id="_408606968" data-name=" 408606968" class="cls-11" d="M84,221.45c.24-3.11.24-5.35.24-6.9s-.85-1-1.42-.88-1-.31-.87,1.84.09,3.89,0,6.07-.76,3-1.08,4.65-.28,1.78.39,2.55.9.66,1.54.16.93-.5.69-2.39.34-2.48.51-5.1Z"/><path id="_408606872" data-name=" 408606872" d="M83.79,221.43c.12-1.56.19-2.89.22-4s0-2.07,0-2.86-.16-.86-.36-.86a1.94,1.94,0,0,0-.53.13l-.23.08a1.24,1.24,0,0,1-.36,0c-.26,0-.42,0-.34,1.55,0,1.08.08,2.05.07,3s0,2-.07,3.05a9.93,9.93,0,0,1-.64,3.11,11.76,11.76,0,0,0-.45,1.57,4.88,4.88,0,0,0-.18,1.52,1.73,1.73,0,0,0,.52.84c.29.33.46.47.61.48s.32-.14.6-.35l.17-.13c.45-.33.64-.47.43-2a7.06,7.06,0,0,1,.17-2.65,18.28,18.28,0,0,0,.34-2.49Zm.69-4c0,1.15-.1,2.5-.22,4.05h0a17.17,17.17,0,0,1-.35,2.56,6.47,6.47,0,0,0-.16,2.49c.24,1.85,0,2-.62,2.48l-.16.13a1.55,1.55,0,0,1-.9.45c-.3,0-.57-.2-1-.64a2.11,2.11,0,0,1-.62-1.07,4.9,4.9,0,0,1,.18-1.69,11.84,11.84,0,0,1,.46-1.63,9.55,9.55,0,0,0,.62-3c0-1.09.07-2.06.07-3s0-1.94-.07-3c-.11-2,.23-2,.78-2l.26,0,.21-.07a2,2,0,0,1,.68-.16c.46,0,.83.28.83,1.33,0,.76,0,1.7,0,2.87Z"/><path id="_408606704" data-name=" 408606704" class="cls-11" d="M85.83,221.32c.24-3.11.19-5.29.19-6.85s-.85-1-1.42-.87-1-.32-.87,1.83.14,3.85,0,6a25.84,25.84,0,0,1-.57,4.75c-.33,1.64-.28,1.78.39,2.56s.9.65,1.54.16.93-.51.69-2.39a21.38,21.38,0,0,1,0-5.21Z"/><path id="_408606608" data-name=" 408606608" d="M85.59,221.3c.21-2.68.2-4.66.2-6.15v-.68c0-.68-.15-.85-.36-.85a1.58,1.58,0,0,0-.52.13l-.24.07a1.71,1.71,0,0,1-.35.06c-.26,0-.43,0-.35,1.54.06,1.08.1,2,.11,3s0,1.94-.06,3a25.2,25.2,0,0,1-.2,2.6c-.09.73-.21,1.37-.37,2.19a4.88,4.88,0,0,0-.18,1.52,1.77,1.77,0,0,0,.52.84c.29.33.46.47.61.47s.32-.13.6-.35l.17-.13c.45-.33.64-.47.43-2a19.34,19.34,0,0,1,0-4.59c0-.23,0-.47,0-.66Zm.67-6.15c0,1.51,0,3.51-.2,6.19h0c0,.28,0,.47,0,.66a18.56,18.56,0,0,0,0,4.5c.24,1.84,0,2-.62,2.48l-.16.12c-.36.28-.61.46-.9.45s-.57-.19-1-.64a2.07,2.07,0,0,1-.62-1.07,4.84,4.84,0,0,1,.18-1.68c.16-.82.28-1.47.37-2.16s.15-1.47.19-2.55.07-2.06.06-3,0-1.92-.11-3c-.1-2,.24-2,.78-2l.26,0,.22-.07a2.31,2.31,0,0,1,.67-.15c.47,0,.84.27.84,1.32v.68Z"/><path id="_408606440" data-name=" 408606440" class="cls-11" d="M88.85,221.6c.25-3.11-.34-5.27-.34-6.82a1.45,1.45,0,0,0-1.91-1.51c-.57.16-.8.37-.69,2.52a55.76,55.76,0,0,1-.08,5.92,25.41,25.41,0,0,1-.39,4.65c-.33,1.63.36,2,1,2.78s.9.66,1.54.16,1.39-.66,1.45-2.8-.77-2.28-.61-4.9Z"/><path id="_408606344" data-name=" 408606344" d="M88.62,221.58a24.18,24.18,0,0,0-.19-4.88,18.78,18.78,0,0,1-.16-1.92,1.88,1.88,0,0,0-.06-.51,1,1,0,0,0-.48-.65,1.39,1.39,0,0,0-.7-.17,1.23,1.23,0,0,0-.36,0,.54.54,0,0,0-.45.37,6.09,6.09,0,0,0-.07,1.92A50.45,50.45,0,0,1,86.1,221c0,.25,0,.5,0,.71,0,.39,0,.72,0,1a20.34,20.34,0,0,1-.36,3.65,2.1,2.1,0,0,0,.67,2.25l.31.34c.29.33.46.47.61.47s.32-.13.6-.34a2.73,2.73,0,0,1,.3-.21c.51-.35,1-.7,1.07-2.41a5.64,5.64,0,0,0-.3-2.06,7,7,0,0,1-.31-2.85Zm.28-4.94a23.76,23.76,0,0,1,.18,5h0a6.79,6.79,0,0,0,.31,2.69,6.35,6.35,0,0,1,.31,2.2c-.06,2-.67,2.37-1.28,2.78-.09.07-.19.13-.27.2a1.45,1.45,0,0,1-.9.44c-.3,0-.57-.19-1-.63L86,229a2.47,2.47,0,0,1-.79-2.66,18.82,18.82,0,0,0,.35-3.58c0-.31,0-.65,0-1s0-.49,0-.71a49.68,49.68,0,0,0,.05-5.19,6.11,6.11,0,0,1,.1-2.09.93.93,0,0,1,.76-.67A1.7,1.7,0,0,1,87,213a1.83,1.83,0,0,1,.93.25,1.5,1.5,0,0,1,.7.92,2.49,2.49,0,0,1,.08.64,17.54,17.54,0,0,0,.16,1.86Z"/><path id="_408606176" data-name=" 408606176" class="cls-11" d="M88.67,221.6c-.24-3.11-.19-5.29-.19-6.85s.24-.81,1.42-.87,1-.34.87,1.81-.14,3.87,0,6.05a25.84,25.84,0,0,0,.57,4.74c.33,1.64.28,1.78-.39,2.56s-.9.66-1.54.16-.93-.51-.69-2.39a21.38,21.38,0,0,0,0-5.21Z"/><path id="_408606080" data-name=" 408606080" d="M88.44,221.62c-.21-2.68-.2-4.68-.2-6.19v-.68c0-1,.12-1.23.54-1.23a1.39,1.39,0,0,1,.32,0,2.83,2.83,0,0,0,.79.07l.36,0c.44,0,.64-.06.78.22a2.33,2.33,0,0,1,0,1c0,.23,0,.52,0,.84-.06,1.08-.1,2-.11,3s0,1.93.06,3,.1,1.85.19,2.55.21,1.34.37,2.16a4.84,4.84,0,0,1,.18,1.68,2.07,2.07,0,0,1-.62,1.07c-.39.45-.66.64-1,.64a1.53,1.53,0,0,1-.9-.44l-.16-.13c-.6-.44-.86-.63-.62-2.48a19.09,19.09,0,0,0,0-4.5c0-.21,0-.43,0-.66Zm.27-6.18c0,1.48,0,3.46.2,6.14h0c0,.23,0,.45,0,.66a19.34,19.34,0,0,1,0,4.59c-.21,1.57,0,1.71.43,2l.17.13c.28.22.46.36.6.35s.32-.14.61-.47a1.77,1.77,0,0,0,.52-.84,4.88,4.88,0,0,0-.18-1.52c-.16-.82-.28-1.46-.37-2.19a25.2,25.2,0,0,1-.2-2.6c0-1.09-.07-2.06-.06-3s0-1.95.11-3c0-.36,0-.63,0-.86a3.51,3.51,0,0,0,0-.78s-.1,0-.32,0l-.37,0A3.62,3.62,0,0,1,89,214l-.23,0s-.06.14-.06.76v.69Z"/><g id="g154"><path id="_408605912" data-name=" 408605912" class="cls-11" d="M84.42,210.44a13.11,13.11,0,0,0,4.69,1.06c2.35.09,3.1-.81,3.29.74s1,1.88-.85,2A17.79,17.79,0,0,1,86,214c-1.69-.41-3.56-.41-3.47-1.88S83,210.19,84.42,210.44Z"/><path id="_4086059121" data-name=" 4086059121" class="cls-12" d="M84.42,210.44a13.11,13.11,0,0,0,4.69,1.06c2.35.09,3.1-.81,3.29.74s1,1.88-.85,2A17.79,17.79,0,0,1,86,214c-1.69-.41-3.56-.41-3.47-1.88S83,210.19,84.42,210.44Z"/></g><path id="_408605744" data-name=" 408605744" class="cls-11" d="M93.43,221.6c-.25-3.11-.22-5.32-.22-6.87s1.9-1.63,2.47-1.46.8.37.69,2.52a55.76,55.76,0,0,0,.08,5.92,24.63,24.63,0,0,0,.77,4.77c.33,1.64.28,1.78-.39,2.56s-.9.66-1.54.16-1.39-.66-1.45-2.8-.25-2.18-.41-4.8Z"/><path id="_408605648" data-name=" 408605648" d="M93.19,221.62c-.22-2.86-.22-5-.22-6.51v-.38a1.89,1.89,0,0,1,.07-.5,1.59,1.59,0,0,1,.9-1,3,3,0,0,1,1.2-.24,2.35,2.35,0,0,1,.6.07.93.93,0,0,1,.76.67,6.11,6.11,0,0,1,.1,2.09,49.68,49.68,0,0,0,.05,5.19c0,.22,0,.44,0,.71a17.59,17.59,0,0,0,.52,3.59c.09.36.17.75.25,1.15a4.84,4.84,0,0,1,.18,1.68,2.07,2.07,0,0,1-.62,1.07c-.39.45-.66.64-1,.64a1.53,1.53,0,0,1-.9-.44c-.08-.07-.18-.13-.27-.2-.61-.41-1.22-.83-1.28-2.78a20.27,20.27,0,0,0-.18-2.31c-.07-.58-.15-1.24-.22-2.48Zm.25-6.51c0,1.52,0,3.61.22,6.47h0c.08,1.21.16,1.87.23,2.45a20.53,20.53,0,0,1,.18,2.35c.05,1.71.56,2.06,1.08,2.41l.29.21c.28.22.46.36.6.35s.32-.14.61-.47a1.86,1.86,0,0,0,.52-.84,4.88,4.88,0,0,0-.18-1.52c-.08-.43-.17-.79-.25-1.14a18,18,0,0,1-.53-3.67c0-.21,0-.46,0-.71a50.45,50.45,0,0,1-.05-5.23,6.09,6.09,0,0,0-.07-1.92.54.54,0,0,0-.45-.37,1.81,1.81,0,0,0-.47-.05,2.41,2.41,0,0,0-1,.2,1.12,1.12,0,0,0-.65.71,1.46,1.46,0,0,0,0,.38v.38Z"/><path id="_408605480" data-name=" 408605480" class="cls-13" d="M82.86,196.93A3.67,3.67,0,0,0,80,198.57c-.41.9-.33,1.15-.25,3.11a64.81,64.81,0,0,1-.24,8.43c-.33,3.36.32,3.93.32,5.24s.74.57.82,1.8.41.9,1.48,1.31,1.39-.33,1.55-1.55.9-4.42,1-6.06-.57-4.34-.73-6.88.65-2.94,1.23-3.35,1.55-1.48.81-2.29a4.24,4.24,0,0,0-3.11-1.4Z"/><path id="_408605312" data-name=" 408605312" class="cls-14" d="M89.57,180a7.17,7.17,0,1,1-7.16,7.16A7.16,7.16,0,0,1,89.57,180Z"/><path id="_408605216" data-name=" 408605216" d="M89.57,179.81A7.39,7.39,0,1,1,84.34,182,7.41,7.41,0,0,1,89.57,179.81Zm4.9,2.5a6.92,6.92,0,1,0,2,4.89A6.9,6.9,0,0,0,94.47,182.31Z"/><path id="_408605048" data-name=" 408605048" class="cls-15" d="M89.73,198.19h0c-1.07.05-3.84-1.74-3.12-2.25s1.89-3,1.94-5.22c0-.64,2.34-.58,2.35,0,0,2.2,1.23,4.71,1.95,5.22S90.8,198.24,89.73,198.19Z"/><path id="_408604952" data-name=" 408604952" d="M89.73,198h0v0A4.68,4.68,0,0,0,92,197a3.06,3.06,0,0,0,.58-.52c.1-.13.16-.23.15-.28l0,0a5.62,5.62,0,0,1-1.41-2.35,9.59,9.59,0,0,1-.63-3.05c0-.08-.21-.14-.48-.19a2.56,2.56,0,0,0-.49,0,2.45,2.45,0,0,0-.48,0c-.25,0-.43.11-.43.19a10.17,10.17,0,0,1-.63,3.05,5.84,5.84,0,0,1-1.41,2.35s0,0,0,0,0,.15.14.28a3.4,3.4,0,0,0,.58.52,4.75,4.75,0,0,0,2.27,1v0Zm0,.47h0a5.26,5.26,0,0,1-2.56-1.1,3.6,3.6,0,0,1-.66-.61.81.81,0,0,1-.24-.67.5.5,0,0,1,.2-.3,5.45,5.45,0,0,0,1.25-2.14,9.14,9.14,0,0,0,.6-2.89c0-.35.35-.56.81-.65a3.56,3.56,0,0,1,.57,0,2.63,2.63,0,0,1,.57.05c.49.08.86.3.87.64a9.14,9.14,0,0,0,.6,2.89A5.46,5.46,0,0,0,93,195.75a.52.52,0,0,1,.21.3.85.85,0,0,1-.24.67,3.38,3.38,0,0,1-.67.61,5.23,5.23,0,0,1-2.55,1.1Z"/><path id="_408604784" data-name=" 408604784" class="cls-9" d="M105.67,194.61a124.18,124.18,0,0,1-1,16.27c-.92,7.57-1.85,14.12-1.74,16.78s1.74,8.39,3.37,12.17,1.54,3.28,1.85,6-1.1.59-1.92-.85-.95-1.91-1.67-.89-.9.29-1.71-1.41-1.15-1-1.56-.53-1.12.92-2-2.25a58,58,0,0,1-2.14-11.16c-.31-3.88-4.2-23-3.07-26.39a20.8,20.8,0,0,1,3.58-7.27c1.63-2,2.76-3.58,2.76-6.65s-.41-6.45-.31-7.26.41-2.15,1.54-2,2.66.62,3.27,6,.82,9.31.82,9.31Z"/><path id="_408604688" data-name=" 408604688" d="M105.91,194.61c0,2,0,4.17-.17,6.8s-.4,5.71-.86,9.5c-.18,1.49-.36,2.89-.52,4.23a111.91,111.91,0,0,0-1.22,12.51,27.6,27.6,0,0,0,1.07,5.48,53.75,53.75,0,0,0,2.29,6.61c.15.36.35.8.51,1.18a24,24,0,0,1,.94,2.3,12.83,12.83,0,0,1,.38,2.34l0,.28c.2,1.86-.25,2-.93,1.35a9.74,9.74,0,0,1-1.42-2.05l-.23-.39a3.35,3.35,0,0,0-.59-.91c-.08-.06-.2.07-.45.43-.4.57-.71.7-1,.47a3.83,3.83,0,0,1-.81-1.36l-.26-.56c-.4-.83-.61-1-.75-.95a1.62,1.62,0,0,0-.33.35l-.09.11c-.27.34-.65.64-1.14.31s-.83-1-1.31-2.64-1-3.73-1.41-5.82a48.67,48.67,0,0,1-.75-5.38c-.09-1.19-.53-3.82-1-7-1.18-7.18-2.8-17.1-2-19.5a36.63,36.63,0,0,1,1.61-4.16,16.49,16.49,0,0,1,2-3.18,15.29,15.29,0,0,0,2-2.89,8.09,8.09,0,0,0,.74-3.61c0-1.64-.11-3.36-.21-4.73a20.35,20.35,0,0,1-.09-2.56,4,4,0,0,1,.41-1.44,1.25,1.25,0,0,1,1.4-.71,2.85,2.85,0,0,1,2,1.15c.62.84,1.17,2.33,1.49,5.09.61,5.41.81,9.29.81,9.33h0Zm-.64,6.78c.14-2.61.16-4.78.16-6.78h0c0-.24-.22-4-.81-9.29-.3-2.66-.82-4.08-1.4-4.85a2.43,2.43,0,0,0-1.68-1,.82.82,0,0,0-.91.48,3.45,3.45,0,0,0-.35,1.26,19.24,19.24,0,0,0,.09,2.48c.1,1.38.22,3.12.22,4.76a8.4,8.4,0,0,1-.8,3.81,15.43,15.43,0,0,1-2,3,15.27,15.27,0,0,0-2,3.09,33.78,33.78,0,0,0-1.59,4.1c-.76,2.28.86,12.14,2,19.27.52,3.19,1,5.84,1,7a50.4,50.4,0,0,0,.74,5.32c.4,2.08.9,4.07,1.4,5.78.44,1.52.81,2.17,1.12,2.38s.38,0,.52-.21l.08-.1a1.55,1.55,0,0,1,.5-.49c.39-.18.81,0,1.37,1.17.14.28.2.42.27.56a4,4,0,0,0,.65,1.17c.07.05.18,0,.39-.35.45-.64.74-.8,1.11-.55a3.33,3.33,0,0,1,.73,1.07c.07.11.14.24.22.39a10.43,10.43,0,0,0,1.34,1.94c.15.14.24,0,.14-.95l0-.29a11.65,11.65,0,0,0-.36-2.25c-.16-.52-.43-1.12-.92-2.25l-.51-1.18a53.65,53.65,0,0,1-2.31-6.67,28.1,28.1,0,0,1-1.09-5.59,111.89,111.89,0,0,1,1.22-12.58c.17-1.38.35-2.82.52-4.24.46-3.78.72-6.85.86-9.46Z"/><path id="_408604472" data-name=" 408604472" d="M101.4,228.06a.23.23,0,0,0-.24-.23.25.25,0,0,0-.23.25,35.2,35.2,0,0,0,1.34,6.48c.92,3.32,2.13,7,3,9.35a.23.23,0,0,0,.3.13.24.24,0,0,0,.14-.3c-.9-2.33-2.1-6-3-9.3A34.64,34.64,0,0,1,101.4,228.06Z"/><path id="_408604544" data-name=" 408604544" d="M99.46,231.31a.23.23,0,0,0-.26-.2.23.23,0,0,0-.21.26c.5,4,3.09,10.42,3.1,10.44a.24.24,0,0,0,.31.13.23.23,0,0,0,.13-.3s-2.58-6.41-3.07-10.33Z"/><path id="_408604376" data-name=" 408604376" class="cls-15" d="M89.73,183.18c1.82,0,3.29,2.06,3.29,4.61s-1.47,4.62-3.29,4.62-3.3-2.07-3.3-4.62S87.91,183.18,89.73,183.18Z"/><path id="_408604280" data-name=" 408604280" d="M89.73,182.94a3.13,3.13,0,0,1,2.52,1.45,6.23,6.23,0,0,1,0,6.8,2.9,2.9,0,0,1-5,0,6.23,6.23,0,0,1,0-6.8A3.13,3.13,0,0,1,89.73,182.94Zm2.14,1.72a2.46,2.46,0,0,0-4.28,0,5.78,5.78,0,0,0,0,6.26,2.46,2.46,0,0,0,4.28,0,5.78,5.78,0,0,0,0-6.26Z"/><path id="_408604112" data-name=" 408604112" class="cls-16" d="M90.76,182.14c2.46-.08,4.59,4.69,3.55,5.5s-.89-2.25-2.76-2.68-2.58-2.69-.79-2.82Z"/><path id="_408604016" data-name=" 408604016" d="M90.75,181.91a3.5,3.5,0,0,1,2.66,1.56,8,8,0,0,1,1,1.71,4.89,4.89,0,0,1,.4,1.63,1.19,1.19,0,0,1-.35,1,.58.58,0,0,1-.94-.11,3.94,3.94,0,0,1-.41-.75h0c-.32-.69-.74-1.58-1.61-1.78h0a2.74,2.74,0,0,1-1.79-1.32,1.83,1.83,0,0,1-.22-.75,1.13,1.13,0,0,1,.2-.7,1.31,1.31,0,0,1,1-.51ZM93,183.76a3.08,3.08,0,0,0-2.26-1.38h0a.88.88,0,0,0-.71.31.7.7,0,0,0-.11.41,1.39,1.39,0,0,0,.17.55,2.26,2.26,0,0,0,1.48,1.08h0c1.09.25,1.56,1.26,1.93,2h0a3.83,3.83,0,0,0,.36.66.18.18,0,0,0,.28,0,.78.78,0,0,0,.17-.63,4.22,4.22,0,0,0-.37-1.47,7.4,7.4,0,0,0-.93-1.6Z"/><path id="_408603848" data-name=" 408603848" class="cls-16" d="M88.69,182.14c-2.45-.08-4.58,4.69-3.55,5.5S86,185.39,87.9,185s2.59-2.69.79-2.82Z"/><path id="_408603752" data-name=" 408603752" d="M88.68,182.38a3,3,0,0,0-2.26,1.38,7.06,7.06,0,0,0-.94,1.6,4.45,4.45,0,0,0-.37,1.47.78.78,0,0,0,.18.63.18.18,0,0,0,.28,0,4.77,4.77,0,0,0,.35-.66c.36-.78.83-1.79,1.93-2a2.29,2.29,0,0,0,1.48-1.08,1.36,1.36,0,0,0,.16-.55.64.64,0,0,0-.11-.41.88.88,0,0,0-.7-.31Zm-2.63,1.09a3.48,3.48,0,0,1,2.65-1.56h0a1.34,1.34,0,0,1,1.06.51,1.12,1.12,0,0,1,.19.7,1.69,1.69,0,0,1-.22.75A2.74,2.74,0,0,1,88,185.19c-.87.2-1.28,1.09-1.6,1.78a4.59,4.59,0,0,1-.41.75.59.59,0,0,1-1,.11,1.25,1.25,0,0,1-.35-1,4.93,4.93,0,0,1,.41-1.63,7.27,7.27,0,0,1,1-1.71Z"/><path id="_408603584" data-name=" 408603584" class="cls-16" d="M87.69,191.49c-.74-.23-2.25-2-2.2-2.92s1.26-3,1.15-2.3a8.73,8.73,0,0,0-.07,3A4.64,4.64,0,0,0,87.69,191.49Z"/><path id="_408603488" data-name=" 408603488" d="M87.61,191.71a4.25,4.25,0,0,1-1.58-1.4,3.08,3.08,0,0,1-.77-1.75,6.07,6.07,0,0,1,.88-2.22,2.58,2.58,0,0,1,.22-.31c.19-.2.35-.22.48,0a.41.41,0,0,1,0,.28s0,.11,0,.22a8.1,8.1,0,0,0,0,2.68,3.16,3.16,0,0,0,.78,1.72,2.54,2.54,0,0,1,.33.47l-.22.1.22-.1a.23.23,0,0,1-.12.31.25.25,0,0,1-.19,0ZM86.4,190l.22.27a3.89,3.89,0,0,1-.28-1,8,8,0,0,1,0-2.27,4.88,4.88,0,0,0-.57,1.59A2.76,2.76,0,0,0,86.4,190Z"/><path id="_408603320" data-name=" 408603320" class="cls-16" d="M91.76,191.49c.74-.23,2.25-2,2.2-2.92s-1.25-3-1.15-2.3a8.93,8.93,0,0,1,.08,3A4.62,4.62,0,0,1,91.76,191.49Z"/><path id="_408603224" data-name=" 408603224" d="M92.84,190.3l.21-.27a2.7,2.7,0,0,0,.68-1.45,5,5,0,0,0-.58-1.58,8.28,8.28,0,0,1,0,2.27,3.89,3.89,0,0,1-.28,1Zm.59,0a4.33,4.33,0,0,1-1.58,1.4.24.24,0,0,1-.3-.32l.21.1-.21-.1a2.45,2.45,0,0,1,.32-.47,3,3,0,0,0,.78-1.72,8.1,8.1,0,0,0,0-2.68,1.94,1.94,0,0,1,0-.22.41.41,0,0,1,0-.28c.13-.21.3-.19.49,0a2.58,2.58,0,0,1,.22.31,6.23,6.23,0,0,1,.87,2.22,3.12,3.12,0,0,1-.76,1.75Z"/><path id="_408603008" data-name=" 408603008" d="M78.18,228.08a.25.25,0,0,0-.23-.25.23.23,0,0,0-.24.23,35.29,35.29,0,0,1-1.32,6.38c-.92,3.3-2.12,7-3,9.3a.24.24,0,0,0,.14.3.22.22,0,0,0,.3-.13c.9-2.35,2.11-6,3-9.35a35.2,35.2,0,0,0,1.34-6.48Z"/><path id="_408603080" data-name=" 408603080" d="M80.12,231.37a.23.23,0,0,0-.2-.26.24.24,0,0,0-.27.21c-.49,3.92-3.06,10.3-3.07,10.32a.24.24,0,0,0,.13.31.25.25,0,0,0,.31-.14s2.6-6.46,3.1-10.44Z"/><path id="_408602912" data-name=" 408602912" class="cls-17" d="M89.66,197.26c1.14,0,2.62,0,2.86-.9s.25-1.06,1.47-.82,3.44-.16,4.59,1.64.74,1.47.49,2.7-6,11.3-7.12,10.8-2,.09-2.87-1.14a17.62,17.62,0,0,1-2.21-5.89c-.41-2.3-.08-3.44-1-4.42a5.47,5.47,0,0,0-3.27-1.81c-1.23-.16-2.21.25-1.07-.73a3.7,3.7,0,0,1,3.2-1.15c1.22.17,1.31.49,2.21,1a4.86,4.86,0,0,0,2.7.74Z"/><path id="_408602672" data-name=" 408602672" d="M89.66,197c1.06,0,2.44,0,2.64-.73h0l0-.09h0c.27-1,.32-1.18,1.72-.9a6.74,6.74,0,0,0,1,.1c1.26.08,2.81.17,3.75,1.64s.89,1.63.69,2.26a6.12,6.12,0,0,0-.17.62,2.54,2.54,0,0,1-.2.55,54,54,0,0,1-3.42,6.16c-1.5,2.38-3.05,4.43-3.74,4.29l-.08,0h0a3.61,3.61,0,0,0-1.1-.23,2.11,2.11,0,0,1-1.87-1,14.32,14.32,0,0,1-1.35-2.77,19,19,0,0,1-.9-3.21c-.14-.79-.19-1.45-.24-2a3.54,3.54,0,0,0-.68-2.3,6.11,6.11,0,0,0-1.48-1.17,4.73,4.73,0,0,0-1.65-.55,6.52,6.52,0,0,0-.94,0c-.37,0-.63,0-.77-.15s0-.47.52-1a5.66,5.66,0,0,1,1.64-1,3.56,3.56,0,0,1,1.74-.15,3.2,3.2,0,0,1,1.68.63c.17.11.35.24.61.38a6,6,0,0,0,1.21.53,4.67,4.67,0,0,0,1.38.18Zm3.09-.61c-.29,1.08-1.87,1.08-3.09,1.08a5.16,5.16,0,0,1-1.51-.2,7,7,0,0,1-1.31-.57,6.83,6.83,0,0,1-.64-.4,2.79,2.79,0,0,0-1.48-.55,3,3,0,0,0-1.52.13,4.81,4.81,0,0,0-1.49,1c-.3.25-.51.24-.47.29s.17,0,.41,0a7.4,7.4,0,0,1,1,.05,5.36,5.36,0,0,1,1.82.61,6.18,6.18,0,0,1,1.59,1.27,3.79,3.79,0,0,1,.81,2.57,17.8,17.8,0,0,0,.24,2,17.61,17.61,0,0,0,.87,3.13,14.29,14.29,0,0,0,1.3,2.68,1.72,1.72,0,0,0,1.53.79,3.81,3.81,0,0,1,1.23.27c.44.09,1.83-1.85,3.24-4.08a55.6,55.6,0,0,0,3.39-6.09,3.19,3.19,0,0,0,.17-.47,5.08,5.08,0,0,1,.18-.67c.15-.46.18-.56-.64-1.85S96.15,196,95,195.88a7.54,7.54,0,0,1-1-.11c-1-.19-1-.08-1.18.56h0l0,.08ZM92,210.47Z"/><path id="_408602744" data-name=" 408602744" d="M89.45,198.37c.08.14.18.28.27.43a4.87,4.87,0,0,1,1,2.79c0,.27,0,.54.07.81a4,4,0,0,1-.06,1.8c-.22.51-.71.68-1.73.23a3.82,3.82,0,0,1-2.52-2.7h0c0-.08,0-.16-.06-.22h0a2.79,2.79,0,0,1-.14-.76,2.18,2.18,0,0,0-.56-1.46,3.49,3.49,0,0,1-.66-1.12,1.2,1.2,0,0,1,0-.67.81.81,0,0,1,.45-.51,1.61,1.61,0,0,1,.68-.13,4.28,4.28,0,0,1,1.8.35,4.6,4.6,0,0,1,1.48,1.12l0,0Zm-.12.69-.27-.43a4.05,4.05,0,0,0-1.31-1,3.85,3.85,0,0,0-1.61-.31,1.19,1.19,0,0,0-.48.08.32.32,0,0,0-.19.22.72.72,0,0,0,0,.4,3,3,0,0,0,.57,1,2.55,2.55,0,0,1,.67,1.72,3,3,0,0,0,.11.65h0a2,2,0,0,1,.07.23h0A3.41,3.41,0,0,0,89.18,204c.7.31,1,.26,1.11,0a4,4,0,0,0,0-1.57c0-.27-.06-.55-.07-.83a4.48,4.48,0,0,0-.91-2.55Z"/><path id="_408602576" data-name=" 408602576" class="cls-17" d="M87.06,197.51c1.37.15,1.67-.15,1.06-1s-.6-1.21-2-1.13-2.27.15-1.37,1.21.91,1,2.35.91Z"/><path id="_408602456" data-name=" 408602456" d="M87.09,197.28c.61.06,1,.05,1.08-.06s0-.25-.24-.56c-.09-.12-.16-.24-.23-.34-.36-.52-.51-.75-1.61-.7a4.22,4.22,0,0,0-1.46.21c-.11.07-.06.24.26.62.78.9.83.9,1.9.84l.26,0h0Zm1.4.28c-.22.21-.69.27-1.43.19h-.24c-1.3.07-1.36.07-2.28-1-.59-.68-.57-1.07-.14-1.33a4.27,4.27,0,0,1,1.67-.27c1.36-.07,1.56.23,2,.91l.22.33c.39.52.46.91.18,1.17Z"/><path id="_408602312" data-name=" 408602312" class="cls-18" d="M89.92,199h12.7c0,8.59-3.75,29.35-6.35,29.35S89.92,207.63,89.92,199Z"/><path id="_408602072" data-name=" 408602072" d="M89.92,198.78h12.94V199a109.89,109.89,0,0,1-2.52,19.46c-1.23,5.67-2.74,10.12-4.07,10.12s-2.84-4.45-4.07-10.13A109.45,109.45,0,0,1,89.69,199v-.23Zm12.46.47H90.16a110.86,110.86,0,0,0,2.5,19.11c1.19,5.47,2.55,9.76,3.61,9.76s2.42-4.29,3.61-9.75a110.22,110.22,0,0,0,2.5-19.12Z"/><path id="_408602144" data-name=" 408602144" d="M91.78,200.63H101v.24a106.49,106.49,0,0,1-1.89,15.79c-.83,4.26-1.85,7.6-2.84,7.6s-2-3.34-2.84-7.6a106.49,106.49,0,0,1-1.89-15.79v-.24Zm8.75.48H92a107,107,0,0,0,1.87,15.46c.79,4.05,1.67,7.22,2.38,7.22s1.59-3.17,2.38-7.22A108.61,108.61,0,0,0,100.53,201.11Z"/><path id="_408601976" data-name=" 408601976" class="cls-19" d="M95.34,200.87H97.1v3.39h3.49c0,.56-.1,1.15-.16,1.76H97.1v17.11c-.28.57-.56.9-.83.9s-.61-.41-.93-1.13V206H92.12c-.07-.61-.12-1.2-.17-1.76h3.39v-3.39Z"/><path id="_408601880" data-name=" 408601880" d="M95.34,200.63h2V204h3.52l0,.25c0,.23,0,.51-.07.85s-.06.62-.09.91l0,.22H97.33v16.92l0,0a3.3,3.3,0,0,1-.46.73.81.81,0,0,1-.58.3.84.84,0,0,1-.63-.36,4.2,4.2,0,0,1-.52-.9l0-.05V206.26H91.9l0-.22c0-.29-.06-.6-.09-.91s-.05-.62-.07-.85l0-.26h3.4v-3.39Zm1.52.48H95.58v3.39H92.21c0,.22,0,.41.05.59s0,.45.07.69h3.25v17.07a3.12,3.12,0,0,0,.42.75c.11.12.2.19.27.19a.37.37,0,0,0,.23-.15,2.16,2.16,0,0,0,.36-.57V205.78h3.35c0-.24.05-.47.07-.69s0-.37,0-.59H96.86v-3.39Z"/><path id="_408601712" data-name=" 408601712" class="cls-20" d="M79.68,225.53c.31,0,.9-.28.89-.65l-.18-6.41a.64.64,0,0,0-.55-.68h0a.64.64,0,0,0-.58.66l-.44,6.39c0,.37.55.69.86.69Z"/><path id="_408601616" data-name=" 408601616" d="M79.69,225.3h0a.86.86,0,0,0,.42-.15c.12-.08.21-.17.21-.26h0l-.17-6.41a.6.6,0,0,0-.12-.34.24.24,0,0,0-.2-.11h0a.23.23,0,0,0-.21.1.52.52,0,0,0-.13.34l-.44,6.39h0c0,.09.08.19.2.27a.88.88,0,0,0,.41.17h0Zm0,.47h-.07a1.31,1.31,0,0,1-.65-.26.8.8,0,0,1-.4-.65h0v0h0l.44-6.39a1.14,1.14,0,0,1,.24-.62.76.76,0,0,1,.57-.27h0a.77.77,0,0,1,.56.29,1,1,0,0,1,.21.63l.18,6.4h0v0h0a.8.8,0,0,1-.42.64,1.35,1.35,0,0,1-.67.23Z"/><path id="_408601448" data-name=" 408601448" class="cls-20" d="M79.29,217.07l1.13,0c.07-3.49,1-36.88.2-36.89S79.36,213.57,79.29,217.07Z"/><path id="_408601352" data-name=" 408601352" d="M79.53,216.84h.66c0-.41,0-1,0-1.88,0-2.18.14-5.64.22-9.53.22-10.77.46-25,.16-25s-.64,14.24-.87,25c-.08,3.91-.14,7.35-.17,9.52,0,.83,0,1.47,0,1.88Zm.88.49-1.12,0h-.24v-.23c0-.39,0-1.12,0-2.12,0-2.17.1-5.62.18-9.52.23-11,.65-25.48,1.35-25.47s.52,14.51.3,25.48c-.08,3.92-.16,7.37-.22,9.54,0,1,0,1.75,0,2.12v.23Z"/><path id="_408601184" data-name=" 408601184" class="cls-20" d="M79.87,216.45a2.2,2.2,0,0,1,2.31,2v.11l-4.69-.1v-.1a2.2,2.2,0,0,1,2.39-2Z"/><path id="_408601088" data-name=" 408601088" d="M79.87,216.22a2.82,2.82,0,0,1,1.81.67,2.13,2.13,0,0,1,.74,1.61h0v.34h-.23l-4.7-.09h-.23v-.33h0a2.08,2.08,0,0,1,.8-1.57,2.78,2.78,0,0,1,1.83-.6Zm1.49,1a2.26,2.26,0,0,0-1.5-.56,2.34,2.34,0,0,0-1.52.5,1.67,1.67,0,0,0-.62,1.08l4.22.09a1.6,1.6,0,0,0-.58-1.11Z"/><path id="_408600920" data-name=" 408600920" class="cls-21" d="M80.92,221.45c.76-.65,1.65-1.17,1.21-2s-1.13-.89-2-.78-1.77.64-1.5,1.22,1.17.39.8,1.14-.47,1.48.26,1.59.66-.59,1.23-1.12Z"/><path id="_408600752" data-name=" 408600752" d="M80.76,221.27l.33-.27h0c.58-.47,1.13-.91.83-1.49a1.1,1.1,0,0,0-.7-.64,2.66,2.66,0,0,0-1.06,0h0a2.57,2.57,0,0,0-.79.22,1.37,1.37,0,0,0-.44.31.35.35,0,0,0-.11.27h0a.31.31,0,0,0,0,.08.84.84,0,0,0,.41.33c.39.2.71.36.39,1a2.7,2.7,0,0,0-.24.73.67.67,0,0,0,0,.32.27.27,0,0,0,.14.16l.18.05c.3,0,.41-.15.55-.4a2.39,2.39,0,0,1,.47-.66Zm.62.1h0l-.3.25h0a2.14,2.14,0,0,0-.39.55c-.23.41-.41.72-1,.63a.75.75,0,0,1-.31-.09.71.71,0,0,1-.38-.42,1.11,1.11,0,0,1,0-.55,3.12,3.12,0,0,1,.29-.86c.11-.24,0-.31-.18-.39a1.13,1.13,0,0,1-.62-.55.7.7,0,0,1-.07-.22h0a.77.77,0,0,1,.23-.63,1.65,1.65,0,0,1,.59-.42,3.22,3.22,0,0,1,.93-.27h0a3,3,0,0,1,1.25,0,1.56,1.56,0,0,1,1,.87c.47.93-.22,1.48-1,2.08Z"/><path id="_406193664" data-name=" 406193664" class="cls-22" d="M87.48,257.52c-.1.61-.16,1.12-2.09,2.19s-2.55,1.63-2.7.1.26-1.68,1.22-2.39,1.53-1.12,2.5-.82.71-.2,1.07.92Z"/><path id="_406192320" data-name=" 406192320" d="M87.71,257.56v0c-.1.66-.2,1.22-2.2,2.32l-.62.35a5.16,5.16,0,0,1-1.56.72c-.53,0-.77-.27-.86-1.15-.16-1.54.21-1.8,1.09-2.44l.22-.16a6,6,0,0,1,1.3-.82,2,2,0,0,1,1.41,0,2.68,2.68,0,0,0,.55.11.49.49,0,0,1,.32.1c.12.1.16.24.26.57,0,.1.07.21.09.29l0,.05v.06Zm-2.43,1.94c1.77-1,1.87-1.44,2-2l-.08-.23a2.93,2.93,0,0,0-.11-.35s0,0-.06,0a2.73,2.73,0,0,1-.65-.13,1.45,1.45,0,0,0-1.09,0,5.63,5.63,0,0,0-1.2.76l-.22.16c-.73.53-1,.75-.9,2,0,.54.15.74.34.72a5.19,5.19,0,0,0,1.38-.65l.63-.36Z"/><path id="_406199496" data-name=" 406199496" class="cls-23" d="M85.19,256.9c-.78.84-1.73,1.94-.84,2.07s1.34.32,1.9-.52,1.12-1.42.11-1.55-.56-.38-1.17,0Z"/><path id="_406197264" data-name=" 406197264" d="M85.34,257.09a6.84,6.84,0,0,0-1,1.23c-.13.22-.16.39,0,.42l.29,0c.61.1,1,.16,1.37-.46.07-.09.14-.2.21-.3a2.43,2.43,0,0,0,.42-.73c0-.07-.08-.12-.35-.15a2.34,2.34,0,0,1-.74-.19s0,0,0,0l-.2.14,0,0Zm-1.4,1A7.88,7.88,0,0,1,85,256.74l0,0,0,0,.06,0c.24-.15.33-.21.45-.21a.39.39,0,0,1,.21.06,2.48,2.48,0,0,0,.61.15c.61.08.8.31.76.67a2.63,2.63,0,0,1-.5.94l-.2.3c-.58.87-1,.8-1.84.67l-.29-.05c-.7-.1-.7-.54-.38-1.11Z"/><path id="_405488232" data-name=" 405488232" class="cls-22" d="M92.21,257.37c.1.61.16,1.12,2.09,2.19s1.93,1.22,3,.61-.56-2.19-1.52-2.91-1.53-1.11-2.5-.81-.71-.2-1.07.92Z"/><path id="_408694552" data-name=" 408694552" d="M92,257.44v-.09l0-.06.09-.28c.1-.33.14-.47.26-.57a.49.49,0,0,1,.32-.1,2.28,2.28,0,0,0,.55-.12,1.94,1.94,0,0,1,1.41,0,6.37,6.37,0,0,1,1.3.81,6.94,6.94,0,0,1,1.74,1.8,1.6,1.6,0,0,1,.22.62.79.79,0,0,1-.15.61,1,1,0,0,1-.31.27h0c-1.06.61-1.18.54-2.65-.29l-.58-.32c-2-1.1-2.09-1.67-2.2-2.32Zm.46-.06c.09.53.19,1,2,2l.59.32c1.26.71,1.35.77,2.19.29h0a.45.45,0,0,0,.16-.14.34.34,0,0,0,.06-.28,1.13,1.13,0,0,0-.16-.44,6.64,6.64,0,0,0-1.61-1.65,6.06,6.06,0,0,0-1.2-.76,1.56,1.56,0,0,0-1.09,0,2.73,2.73,0,0,1-.65.13h-.06a2.34,2.34,0,0,0-.11.34l-.08.24Z"/><path id="_408695848" data-name=" 408695848" class="cls-23" d="M94.5,256.75c.78.84,1.73,1.94.84,2.07s-1.34.32-1.9-.52-1.12-1.42-.11-1.55.56-.39,1.17,0Z"/><path id="_408695152" data-name=" 408695152" d="M94.67,256.59a8.24,8.24,0,0,1,1.08,1.34c.32.57.32,1-.38,1.12l-.29,0c-.8.13-1.26.21-1.84-.66l-.2-.3a2.63,2.63,0,0,1-.5-.94c0-.36.15-.6.76-.67a2,2,0,0,0,.61-.16.5.5,0,0,1,.21-.05c.12,0,.21.05.45.21l.06,0,0,0,0,0Zm.67,1.57a7.61,7.61,0,0,0-1-1.23l0,0-.2-.13s0,0,0,0a2.34,2.34,0,0,1-.74.19c-.27,0-.36.09-.35.15a2.32,2.32,0,0,0,.42.73l.21.31c.41.62.76.56,1.37.46l.29-.05c.2,0,.17-.19,0-.42Z"/><path id="_408696448" data-name=" 408696448" d="M83.66,230.25a.67.67,0,0,1,.47.19.66.66,0,0,1,0,.95.67.67,0,0,1-.47.19.65.65,0,0,1-.47-.19.66.66,0,0,1,0-.95A.65.65,0,0,1,83.66,230.25Zm.14.53a.2.2,0,0,0-.14-.06.21.21,0,0,0-.2.2.16.16,0,0,0,.06.13.17.17,0,0,0,.14.06.21.21,0,0,0,.2-.19A.2.2,0,0,0,83.8,230.78Z"/><path id="_408696304" data-name=" 408696304" d="M84.36,233.53a.61.61,0,0,1,.41.17h0a.58.58,0,0,1,0,.82h0a.57.57,0,0,1-.41.17.58.58,0,0,1-.58-.58.57.57,0,0,1,.17-.41h0a.61.61,0,0,1,.41-.17Zm.08.51h0a.08.08,0,0,0-.07,0,.11.11,0,0,0-.08,0h0a.08.08,0,0,0,0,.07.1.1,0,0,0,.11.11.08.08,0,0,0,.07,0h0a.19.19,0,0,0,0-.08A.11.11,0,0,0,84.44,234Z"/><path id="_408696184" data-name=" 408696184" d="M94.05,234.14a.59.59,0,0,1,.41.17.6.6,0,0,1,.18.42.58.58,0,0,1-.18.42h0a.55.55,0,0,1-.41.17.56.56,0,0,1-.42-.17.58.58,0,0,1-.18-.42.56.56,0,0,1,.18-.41h0a.6.6,0,0,1,.42-.17Zm.08.51a.12.12,0,0,0-.08,0,.13.13,0,0,0-.09,0h0a.11.11,0,0,0,0,.08.11.11,0,0,0,.12.12.11.11,0,0,0,.08,0h0a.13.13,0,0,0,0-.09.12.12,0,0,0,0-.08Z"/></g><g id="g210"><path id="_206846368" data-name=" 206846368" class="cls-5" d="M91.24,186.44c.57,0,1.09.14,1,.29s-.42,0-1,0-1,.17-1.06,0S90.67,186.44,91.24,186.44Z"/><path id="_405652416" data-name=" 405652416" d="M89.41,186.67a.1.1,0,1,0-.12.17.5.5,0,0,1,.15.17,1.53,1.53,0,0,1,.08.52,2.39,2.39,0,0,1-.25.92c-.11.27-.19.48-.12.6a.11.11,0,0,0,.19-.12,1.4,1.4,0,0,1,.13-.4,2.71,2.71,0,0,0,.27-1,1.47,1.47,0,0,0-.11-.6A.5.5,0,0,0,89.41,186.67Z"/><path id="_212050776" data-name=" 212050776" d="M89.45,189a.11.11,0,0,0-.14.06.1.1,0,0,0,0,.14.81.81,0,0,0,.39.07.64.64,0,0,0,.36-.11.11.11,0,0,0,0-.16.12.12,0,0,0-.15,0,.48.48,0,0,1-.24.08A.63.63,0,0,1,89.45,189Z"/><path id="_212046200" data-name=" 212046200" class="cls-5" d="M88.15,187.05a2,2,0,0,1,.93.12.55.55,0,0,1-.61.45,2.31,2.31,0,0,1-1.24-.45A2,2,0,0,1,88.15,187.05Z"/><path id="_406300832" data-name=" 406300832" class="cls-5" d="M91.31,187.05a2,2,0,0,0-.93.12.55.55,0,0,0,.61.45,2.35,2.35,0,0,0,1.25-.45A2,2,0,0,0,91.31,187.05Z"/><path id="_406296728" data-name=" 406296728" class="cls-5" d="M88.1,186.44c-.57,0-1.09.14-1,.29s.42,0,1,0,1,.17,1.06,0S88.67,186.44,88.1,186.44Z"/><path id="_406296776" data-name=" 406296776" class="cls-5" d="M90,190.1c-.29,0-.24,0-.35,0s-.1,0-.39,0a2.13,2.13,0,0,0-.81.11,2,2,0,0,0,1.09.39h.18a2,2,0,0,0,1.09-.39,2.13,2.13,0,0,0-.81-.11Z"/></g></g></g></g></g></g></g></g></g></svg>