<?xml version="1.0" standalone="no"?>
<!DOCTYPE svg PUBLIC "-//W3C//DTD SVG 20010904//EN"
 "http://www.w3.org/TR/2001/REC-SVG-20010904/DTD/svg10.dtd">
<svg version="1.0" xmlns="http://www.w3.org/2000/svg"
 width="1824.000000pt" height="1824.000000pt" viewBox="0 0 1824.000000 1824.000000"
 preserveAspectRatio="xMidYMid meet">
<metadata>
Created by potrace 1.11, written by Peter Selinger 2001-2013
</metadata>
<g transform="translate(0.000000,1824.000000) scale(0.100000,-0.100000)"
fill="#000000" stroke="none">
<path d="M23 13667 c135 -89 180 -117 188 -117 5 0 9 -3 9 -8 0 -4 9 -12 20
-17 24 -12 253 -156 260 -165 5 -5 30 -20 75 -44 37 -21 110 -71 113 -78 2 -5
8 -8 13 -8 6 0 37 -18 69 -40 32 -22 63 -40 69 -40 5 0 11 -3 13 -8 3 -8 191
-129 228 -147 11 -5 20 -13 20 -17 0 -5 4 -8 9 -8 5 0 44 -22 85 -50 42 -27
80 -50 86 -50 5 0 10 -4 10 -8 0 -5 12 -15 28 -23 41 -21 166 -103 174 -114 4
-5 8 -6 8 -2 0 4 6 3 13 -3 22 -20 198 -130 207 -130 4 0 10 -3 12 -8 2 -6
148 -101 223 -145 11 -7 22 -15 25 -18 3 -3 31 -20 62 -38 32 -18 58 -36 58
-39 0 -4 15 -14 33 -22 17 -7 41 -22 51 -32 11 -10 23 -18 28 -18 10 0 150
-91 159 -103 3 -5 9 -7 12 -5 4 1 16 -5 27 -14 11 -10 22 -18 24 -18 3 0 44
-26 93 -58 48 -31 100 -64 116 -71 15 -8 27 -18 27 -23 0 -4 4 -8 10 -8 9 0
123 -70 148 -91 7 -6 23 -16 35 -23 12 -6 53 -32 92 -56 38 -25 77 -49 86 -55
9 -5 27 -17 40 -26 38 -26 177 -113 198 -125 11 -5 30 -18 43 -27 49 -36 384
-248 401 -253 9 -4 17 -10 17 -15 0 -5 5 -9 10 -9 6 0 16 -5 23 -10 18 -15
157 -103 190 -119 15 -8 27 -18 27 -23 0 -4 4 -8 9 -8 9 0 405 -249 428 -270
7 -5 15 -10 18 -10 3 0 39 -22 81 -50 41 -27 80 -50 85 -50 5 0 9 -3 9 -8 0
-4 20 -18 45 -31 25 -13 45 -28 45 -32 0 -5 4 -9 9 -9 6 0 74 -41 153 -91 79
-50 152 -96 163 -102 11 -7 22 -15 25 -18 3 -3 12 -9 20 -12 8 -4 40 -23 70
-42 l55 -35 -35 -1 c-19 0 -1188 -1 -2597 -1 -1410 -1 -2563 -3 -2563 -4 0 -5
109 -75 140 -91 8 -4 24 -15 34 -25 11 -10 26 -18 33 -18 7 0 13 -4 13 -10 0
-5 5 -10 11 -10 6 0 30 -13 54 -30 24 -16 46 -30 50 -30 3 0 15 -9 27 -20 12
-11 28 -20 35 -20 7 0 13 -4 13 -10 0 -5 4 -10 9 -10 5 0 50 -27 100 -60 50
-33 95 -60 101 -60 6 0 13 -7 16 -15 4 -8 11 -15 16 -15 6 0 33 -15 61 -32
172 -111 213 -138 224 -147 7 -6 15 -11 17 -11 3 0 36 -19 73 -43 38 -24 72
-44 77 -44 5 -1 12 -5 15 -10 3 -5 69 -49 146 -98 77 -49 142 -92 145 -95 3
-4 10 -9 15 -11 6 -2 42 -23 80 -47 39 -24 79 -48 90 -55 11 -7 22 -14 25 -17
3 -3 30 -21 60 -40 30 -19 99 -63 152 -97 54 -35 102 -63 108 -63 5 0 10 -4
10 -9 0 -5 14 -14 30 -21 17 -7 30 -16 30 -21 0 -5 5 -9 11 -9 5 0 37 -18 69
-40 32 -22 63 -40 69 -40 5 0 11 -3 13 -7 5 -12 92 -68 101 -65 4 1 7 -3 7 -8
0 -6 6 -10 14 -10 8 0 21 -6 28 -13 7 -8 45 -33 83 -58 39 -24 72 -47 73 -51
2 -4 8 -8 14 -8 5 0 29 -13 53 -30 24 -16 48 -30 54 -30 6 0 11 -4 11 -10 0
-5 6 -10 13 -10 8 0 22 -9 32 -20 10 -11 22 -20 27 -20 5 0 36 -18 68 -40 32
-22 62 -40 65 -40 3 0 11 -5 18 -10 18 -16 227 -150 233 -150 8 0 69 -44 72
-52 2 -5 8 -8 13 -8 6 0 37 -18 70 -40 33 -22 65 -40 70 -40 5 0 9 -4 9 -10 0
-5 7 -10 15 -10 8 0 15 -4 15 -10 0 -5 6 -10 13 -10 7 0 22 -8 33 -17 11 -10
32 -25 47 -33 15 -8 90 -55 168 -105 77 -49 155 -98 172 -109 18 -10 34 -22
35 -27 2 -5 8 -9 14 -9 5 0 29 -13 53 -30 24 -16 48 -30 54 -30 6 0 11 -3 11
-8 0 -4 20 -18 45 -32 25 -14 45 -28 45 -32 0 -5 5 -8 10 -8 6 0 38 -18 71
-40 33 -22 65 -40 70 -40 5 0 9 -4 9 -10 0 -5 6 -10 13 -10 7 0 23 -9 35 -20
12 -11 23 -20 26 -20 4 0 72 -42 351 -221 33 -21 65 -43 72 -48 7 -6 15 -11
18 -11 3 0 33 -18 65 -40 32 -22 62 -40 65 -40 8 0 69 -44 73 -52 2 -5 8 -8
13 -8 6 0 37 -18 69 -40 32 -22 64 -40 69 -40 6 0 11 -3 11 -8 0 -4 9 -12 20
-17 38 -19 255 -160 258 -167 2 -5 8 -8 13 -8 6 0 37 -18 70 -40 33 -22 65
-40 70 -40 5 0 9 -4 9 -8 0 -5 12 -15 28 -23 15 -8 65 -39 112 -69 47 -30 93
-59 102 -65 10 -5 63 -39 118 -75 56 -36 109 -70 118 -75 9 -6 50 -31 90 -58
40 -26 77 -47 82 -47 6 0 10 -4 10 -10 0 -5 7 -10 15 -10 8 0 15 -4 15 -10 0
-5 4 -10 10 -10 5 0 35 -17 67 -38 32 -21 96 -63 143 -93 47 -29 88 -58 91
-62 3 -5 8 -8 10 -6 2 1 36 -19 76 -45 39 -25 76 -46 82 -46 6 0 11 -3 11 -7
0 -8 56 -43 67 -42 3 0 9 -3 12 -9 3 -5 65 -46 136 -90 72 -45 137 -86 145
-92 56 -38 248 -161 260 -167 8 -4 29 -17 46 -30 17 -13 34 -23 38 -23 3 0 28
-15 54 -33 26 -18 54 -36 62 -40 8 -4 56 -34 105 -67 50 -33 114 -73 143 -90
28 -18 58 -37 65 -43 6 -7 32 -23 57 -36 25 -14 47 -27 50 -31 3 -3 34 -24 69
-46 35 -21 74 -46 86 -54 13 -8 45 -28 72 -44 26 -16 50 -32 53 -35 8 -10 44
-31 63 -37 9 -4 17 -10 17 -14 0 -5 10 -12 22 -16 12 -3 30 -15 41 -25 11 -10
34 -25 51 -34 17 -8 72 -42 121 -74 50 -33 133 -85 185 -117 52 -32 100 -62
105 -67 15 -13 133 -88 205 -132 36 -21 71 -45 79 -53 17 -16 23 -14 113 45
40 26 86 54 101 62 15 8 27 18 27 23 0 4 5 8 11 8 5 0 37 18 69 40 32 22 61
40 64 40 2 0 47 28 100 62 52 35 123 81 158 102 76 48 198 126 345 220 59 39
111 70 114 70 3 1 13 9 23 19 10 9 22 17 27 17 5 0 35 18 66 40 32 22 62 40
67 40 6 0 19 8 30 18 12 10 92 63 179 118 87 54 170 107 185 116 15 10 34 21
42 25 8 3 17 9 20 13 7 8 169 110 176 110 3 0 14 9 26 20 12 11 34 26 50 32
15 7 28 16 28 20 0 5 7 8 15 8 8 0 24 9 34 19 10 10 28 22 40 26 12 3 21 10
21 14 0 4 18 16 40 26 22 10 40 22 40 27 0 5 5 6 10 3 6 -3 10 -2 10 2 0 5 26
24 58 42 31 19 97 61 145 93 49 32 90 58 93 58 2 0 27 16 54 35 27 19 53 35
56 35 3 0 31 17 62 39 32 21 82 54 112 73 30 19 121 77 202 129 81 52 160 102
175 112 16 9 36 20 46 23 9 4 17 10 17 15 0 5 7 9 15 9 8 0 15 4 15 9 0 5 8
12 18 15 21 8 52 26 84 49 13 9 113 74 223 143 110 70 220 139 245 155 25 16
50 33 57 39 7 5 17 10 23 10 5 0 10 5 10 10 0 6 5 10 11 10 5 0 37 18 69 40
32 22 62 40 65 40 8 0 68 42 76 53 3 5 8 8 10 6 2 -1 50 28 106 64 57 37 107
67 113 67 5 0 10 5 10 10 0 6 4 10 9 10 5 0 44 23 85 50 42 28 80 50 86 50 5
0 10 4 10 8 0 5 12 15 28 23 32 16 92 54 109 69 7 5 16 10 21 10 5 0 17 9 27
20 10 11 22 17 26 14 5 -3 9 0 9 5 0 6 7 11 15 11 8 0 15 4 15 9 0 5 10 13 23
17 12 4 24 9 27 13 10 13 120 81 130 81 6 0 13 7 16 15 4 8 10 15 15 15 9 0
110 59 119 70 3 3 28 19 55 35 28 15 52 31 55 35 3 4 20 15 39 24 18 10 55 33
81 52 26 19 52 34 58 34 6 0 16 8 21 18 6 9 11 14 11 9 0 -4 21 8 48 26 26 18
54 36 62 40 13 6 237 148 280 177 51 35 153 100 156 100 3 0 32 18 64 40 32
22 64 40 69 40 6 0 11 3 11 8 0 4 34 27 75 51 41 24 80 50 86 57 6 8 15 14 20
14 4 0 35 18 68 40 33 22 64 40 70 40 5 0 11 3 13 8 2 4 48 35 103 69 55 34
105 66 110 70 6 5 35 23 65 40 30 18 65 41 78 53 12 11 22 19 22 16 0 -4 185
111 320 199 102 67 188 121 211 135 62 36 185 116 197 127 7 7 18 13 23 13 5
0 15 5 22 11 7 5 68 46 137 89 69 43 130 84 137 89 7 6 15 11 18 11 3 0 33 18
66 40 33 22 65 40 70 40 5 0 9 3 9 8 0 4 13 13 28 20 16 6 37 20 48 30 10 9
36 26 57 37 21 11 47 28 57 38 11 9 23 17 28 17 5 0 26 13 48 30 21 16 42 30
46 30 6 0 135 82 153 98 6 5 15 11 21 13 9 4 128 78 269 169 30 19 104 66 165
104 61 38 109 71 106 73 -2 2 -950 6 -2107 9 -1157 3 -2108 5 -2114 5 -5 0
-37 0 -70 -1 -33 -1 -65 -1 -70 0 -6 1 -14 1 -20 0 -11 -2 -67 -2 -157 1 -31
0 -60 -1 -65 -4 -5 -3 -15 -2 -22 3 -8 4 -27 4 -42 0 -20 -6 -29 -5 -29 3 0 8
-3 8 -11 0 -7 -7 -21 -8 -40 -3 -17 5 -31 5 -35 -1 -3 -5 -10 -7 -15 -4 -9 6
-94 9 -114 5 -5 -1 -14 -1 -20 0 -14 3 -278 3 -290 0 -5 -1 -12 -1 -15 0 -15
6 -213 4 -217 -3 -2 -4 -9 -4 -15 -1 -16 10 -188 11 -188 1 0 -5 -5 -5 -11 -1
-19 11 -159 10 -159 -1 0 -7 -3 -7 -8 0 -9 12 -302 14 -302 2 0 -4 -6 -5 -12
-1 -7 5 -382 9 -833 10 -451 1 -822 3 -825 3 -3 1 -5 746 -5 1656 l0 1655
-5205 -1 c-4031 0 -5201 -3 -5187 -12z m14622 -3868 c143 -42 255 -139 321
-280 19 -40 27 -66 41 -129 5 -24 4 -142 -2 -175 -9 -46 -49 -155 -57 -155 -5
0 -8 -5 -8 -11 0 -11 -58 -87 -91 -119 -59 -58 -168 -112 -254 -127 -180 -30
-349 26 -475 159 -43 44 -105 152 -113 194 -2 11 -8 27 -12 38 -9 21 -11 180
-3 216 15 59 54 157 68 170 3 3 17 21 30 40 52 74 144 139 246 175 36 13 79
22 95 21 16 -1 29 1 29 4 0 12 116 -1 185 -21z"/>
<path d="M13146 12614 l-277 -276 90 -92 c216 -219 371 -381 371 -388 0 -4 5
-8 11 -8 6 0 22 -13 36 -30 13 -16 29 -30 33 -30 5 0 67 57 139 128 71 70 195
191 274 268 l145 142 268 -269 c148 -148 273 -269 278 -269 4 0 127 120 273
267 l264 266 196 -196 c108 -108 200 -197 204 -197 4 0 11 -8 14 -17 4 -10 35
-43 69 -74 l61 -56 275 278 276 278 -37 38 c-20 21 -71 70 -112 110 -41 40
-72 75 -69 78 3 3 1 5 -5 5 -6 0 -41 32 -79 71 -79 81 -68 70 -172 173 l-80
78 -270 -268 -271 -269 -205 205 c-113 113 -234 233 -269 268 l-64 63 -272
-270 -273 -271 -248 248 c-137 136 -259 257 -273 270 l-25 23 -276 -277z"/>
<path d="M13126 11520 c-2 -3 -2 -31 -1 -62 0 -34 -3 -58 -10 -58 -7 0 -7 -3
0 -8 14 -10 14 -404 0 -414 -6 -5 -5 -8 3 -8 9 0 11 -7 7 -20 -5 -15 -2 -20
12 -21 59 -3 2711 -4 2725 -1 15 4 16 30 15 300 l-2 297 -1373 0 c-756 0
-1375 -2 -1376 -5z"/>
</g>
</svg>
